<?xml version="1.0" encoding="UTF-8"?>
<!DOCTYPE svg PUBLIC "-//W3C//DTD SVG 1.1//EN" "http://www.w3.org/Graphics/SVG/1.1/DTD/svg11.dtd">
<!-- Creator: CorelDRAW 2020 (64-Bit) -->
<svg xmlns="http://www.w3.org/2000/svg" xml:space="preserve" width="50.0858mm" height="42.3334mm" version="1.1" style="shape-rendering:geometricPrecision; text-rendering:geometricPrecision; image-rendering:optimizeQuality; fill-rule:evenodd; clip-rule:evenodd"
viewBox="0 0 2459.63 2078.92"
 xmlns:xlink="http://www.w3.org/1999/xlink"
 xmlns:xodm="http://www.corel.com/coreldraw/odm/2003">
 <defs>
  <style type="text/css">
   <![CDATA[
    .fil3 {fill:#A3A3A3;fill-rule:nonzero}
    .fil6 {fill:#A6A6A6;fill-rule:nonzero}
    .fil7 {fill:#CCCCCC;fill-rule:nonzero}
    .fil1 {fill:#E6E6EB;fill-rule:nonzero}
    .fil0 {fill:#F1F1F1;fill-rule:nonzero}
    .fil4 {fill:#F4F4F4;fill-rule:nonzero}
    .fil5 {fill:#F7F7F7;fill-rule:nonzero}
    .fil2 {fill:white;fill-rule:nonzero}
   ]]>
  </style>
 </defs>
 <g id="图层_x0020_1">
  <metadata id="CorelCorpID_0Corel-Layer"/>
  <g id="_1997599394352">
   <path class="fil0" d="M1043.25 1953.85c0,40.5 -165.89,73.34 -370.54,73.34 -204.63,0 -370.53,-32.84 -370.53,-73.34 0,-40.5 165.9,-73.34 370.53,-73.34 204.64,0 370.54,32.84 370.54,73.34z"/>
   <path class="fil1" d="M339.03 1985.77c59.96,24.51 186.84,41.42 333.69,41.42 146.84,0 273.72,-16.91 333.69,-41.42 -59.97,-24.52 -186.85,-41.42 -333.69,-41.42 -146.84,0 -273.73,16.9 -333.69,41.42z"/>
   <polygon class="fil2" points="1382.84,947.58 1382.84,2031.97 1261.11,2031.97 1261.11,947.58 "/>
   <path class="fil3" d="M1389.57 947.58l0 1091.11 -135.19 0 0 -1097.84 135.19 0 0 6.72zm-13.45 1077.66l0 -1070.94 -108.28 0 0 1070.94 108.28 0z"/>
   <polygon class="fil1" points="1334.79,955.59 1334.79,2024.95 1273.92,2024.95 1273.92,955.59 "/>
   <path class="fil2" d="M1222.76 866.64c0,-55.28 44.42,-100.08 99.22,-100.08 54.8,0 99.22,44.81 99.22,100.08 0,55.28 -44.42,100.08 -99.22,100.08 -54.8,0 -99.22,-44.81 -99.22,-100.08z"/>
   <path class="fil3" d="M1216.04 866.64c0,-29.47 11.86,-56.16 31.03,-75.5 19.17,-19.34 45.66,-31.31 74.91,-31.31 29.25,0 55.74,11.97 74.91,31.31 19.17,19.34 31.03,46.03 31.03,75.5 0,29.47 -11.86,56.16 -31.03,75.5 -19.18,19.34 -45.67,31.31 -74.91,31.31 -29.25,0 -55.74,-11.96 -74.91,-31.31 -19.17,-19.33 -31.03,-46.03 -31.03,-75.5zm40.54 -66.05c-16.74,16.88 -27.09,40.23 -27.09,66.05 0,25.81 10.35,49.16 27.09,66.05 16.73,16.88 39.85,27.31 65.4,27.31 25.55,0 48.68,-10.44 65.41,-27.31 16.73,-16.88 27.09,-40.23 27.09,-66.05 0,-25.81 -10.36,-49.16 -27.09,-66.04 -16.73,-16.88 -39.86,-27.32 -65.41,-27.32 -25.55,0 -48.67,10.44 -65.4,27.31z"/>
   <path class="fil1" d="M1256.54 866.64c0,-36.45 29.29,-66.01 65.44,-66.01 36.14,0 65.44,29.55 65.44,66.01 0,36.45 -29.29,66.01 -65.44,66.01 -36.14,0 -65.44,-29.55 -65.44,-66.01z"/>
   <path class="fil3" d="M1249.82 866.64c0,-20.05 8.08,-38.23 21.14,-51.4 13.06,-13.18 31.11,-21.33 51.02,-21.33 19.92,0 37.97,8.15 51.03,21.33 13.05,13.17 21.13,31.35 21.13,51.4 0,20.06 -8.08,38.23 -21.13,51.4 -13.06,13.18 -31.11,21.33 -51.03,21.33 -19.92,0 -37.96,-8.15 -51.02,-21.33 -13.06,-13.17 -21.14,-31.35 -21.14,-51.4zm30.64 -41.95c-10.62,10.72 -17.19,25.55 -17.19,41.95 0,16.4 6.57,31.23 17.19,41.95 10.62,10.71 25.3,17.34 41.52,17.34 16.22,0 30.9,-6.62 41.52,-17.34 10.62,-10.72 17.2,-25.55 17.2,-41.95 0,-16.4 -6.58,-31.23 -17.2,-41.95 -10.62,-10.71 -25.3,-17.34 -41.52,-17.34 -16.22,0 -30.9,6.62 -41.52,17.34z"/>
   <polygon class="fil2" points="2395.49,947.58 2395.49,2031.97 2273.76,2031.97 2273.76,947.58 "/>
   <path class="fil3" d="M2402.21 947.58l0 1091.11 -135.19 0c0.08,-365.95 0.08,-731.89 0,-1097.84l135.19 0 0 6.72zm-13.45 1077.66l0 -1070.94 -108.29 0 0 1070.94 108.29 0z"/>
   <polygon class="fil1" points="2347.44,955.59 2347.44,2024.95 2286.57,2024.95 2286.57,955.59 "/>
   <path class="fil2" d="M2235.41 866.64c0,-55.28 44.42,-100.08 99.22,-100.08 54.8,0 99.22,44.81 99.22,100.08 0,55.28 -44.42,100.08 -99.22,100.08 -54.8,0 -99.22,-44.81 -99.22,-100.08z"/>
   <path class="fil3" d="M2228.68 866.64c0,-29.47 11.85,-56.16 31.03,-75.5 19.18,-19.34 45.67,-31.31 74.91,-31.31 29.25,0 55.74,11.97 74.91,31.31 19.17,19.34 31.03,46.03 31.03,75.5 0,29.47 -11.86,56.16 -31.03,75.5 -19.18,19.34 -45.67,31.31 -74.91,31.31 -29.25,0 -55.74,-11.96 -74.91,-31.31 -19.17,-19.33 -31.03,-46.03 -31.03,-75.5zm40.54 -66.05c-16.74,16.88 -27.09,40.23 -27.09,66.05 0,25.81 10.36,49.16 27.09,66.05 16.73,16.88 39.85,27.31 65.4,27.31 25.55,0 48.67,-10.44 65.4,-27.31 16.74,-16.88 27.09,-40.23 27.09,-66.05 0,-25.81 -10.36,-49.16 -27.09,-66.04 -16.73,-16.88 -39.86,-27.32 -65.4,-27.32 -25.55,0 -48.68,10.44 -65.4,27.31z"/>
   <path class="fil1" d="M2269.19 866.64c0,-36.45 29.3,-66.01 65.44,-66.01 36.14,0 65.44,29.55 65.44,66.01 0,36.45 -29.3,66.01 -65.44,66.01 -36.14,0 -65.44,-29.55 -65.44,-66.01z"/>
   <path class="fil3" d="M2262.47 866.64c0,-20.05 8.08,-38.23 21.14,-51.4 13.06,-13.18 31.11,-21.33 51.02,-21.33 19.92,0 37.96,8.15 51.03,21.33 13.05,13.17 21.13,31.35 21.13,51.4 0,20.06 -8.08,38.23 -21.13,51.4 -13.07,13.18 -31.11,21.33 -51.03,21.33 -19.92,0 -37.96,-8.15 -51.02,-21.33 -13.06,-13.17 -21.14,-31.35 -21.14,-51.4zm30.64 -41.95c-10.62,10.72 -17.19,25.55 -17.19,41.95 0,16.4 6.57,31.23 17.19,41.95 10.62,10.71 25.3,17.34 41.52,17.34 16.22,0 30.9,-6.62 41.52,-17.34 10.62,-10.72 17.19,-25.55 17.19,-41.95 0,-16.4 -6.57,-31.23 -17.19,-41.95 -10.62,-10.71 -25.3,-17.34 -41.52,-17.34 -16.22,0 -30.9,6.62 -41.52,17.34z"/>
   <polygon class="fil2" points="715.13,1104.03 715.13,1977.63 630.31,1977.63 630.31,1104.03 "/>
   <path class="fil3" d="M721.85 1104.03l0 880.33 -98.28 0 0 -887.05 98.28 0 0 6.73zm-13.45 866.88l0 -860.16 -71.37 0 0 860.16 71.37 0z"/>
   <polygon class="fil1" points="681.64,1104.03 681.64,1968.94 639.23,1968.94 639.23,1104.03 "/>
   <path class="fil4" d="M614.79 1095.04l-469.54 -473.63c-31.99,-32.26 -31.99,-84.58 0,-116.85l469.54 -473.63c31.99,-32.27 83.86,-32.27 115.84,0l469.55 473.63c31.99,32.27 31.99,84.59 0,116.85l-469.55 473.63c-31.98,32.26 -83.85,32.26 -115.84,0z"/>
   <path class="fil3" d="M610.03 1099.77l-469.54 -473.62c-17.31,-17.46 -25.97,-40.32 -25.97,-63.16 0,-22.84 8.66,-45.7 25.97,-63.16l469.54 -473.63 0 -0.03 0.52 -0.52 0.02 0c17.25,-17.1 39.7,-25.65 62.13,-25.65l0 0.02c22.45,0 44.9,8.54 62.14,25.63l0.02 0 0.52 0.52 0 0.03 469.54 473.63c17.31,17.46 25.96,40.32 25.96,63.16 0,22.84 -8.66,45.7 -25.96,63.16l-469.54 473.62 0 0.03 -0.52 0.52 -0.02 0c-17.25,17.1 -39.7,25.65 -62.14,25.65l0 -0.03c-22.45,0 -44.9,-8.54 -62.13,-25.62l-0.02 0 -0.52 -0.52 0 -0.03zm-460.03 -483.08l469.53 473.61 0.01 -0.01 0.52 0.52 -0.01 0.01c14.62,14.49 33.64,21.73 52.66,21.73l0 -0.02c19.04,0 38.07,-7.23 52.67,-21.7l-0.01 -0.01 0.52 -0.52 0.01 0.01 469.53 -473.61c14.68,-14.81 22.02,-34.25 22.02,-53.7 0,-19.46 -7.34,-38.89 -22.02,-53.7l-469.53 -473.62 -0.01 0.01 -0.52 -0.52 0.01 -0.01c-14.62,-14.49 -33.64,-21.73 -52.67,-21.73l0 0.03c-19.03,0 -38.06,7.23 -52.66,21.7l0.01 0.01 -0.52 0.52 -0.01 -0.01 -469.53 473.62c-14.68,14.81 -22.03,34.24 -22.03,53.7 0,19.45 7.35,38.89 22.03,53.7z"/>
   <polygon class="fil2" points="2393.79,1267.41 1267.66,1267.41 1267.66,1078.29 2393.79,1078.29 "/>
   <path class="fil3" d="M2393.78 1274.14l-1132.85 0 0 -202.58 1139.57 0 0 202.58 -6.73 0zm-1119.4 -13.45l1112.67 0 0 -175.68 -1112.67 0 0 175.68z"/>
   <polygon class="fil1" points="1516.64,1267.42 1415.74,1267.42 1466.37,1078.29 1567.27,1078.29 "/>
   <path class="fil3" d="M1516.64 1274.14l-109.65 0c18.09,-67.52 36.17,-135.05 54.23,-202.58l114.8 0 -54.22 202.58 -5.16 0zm-92.15 -13.45l87 0 47.02 -175.68 -86.99 0 -47.03 175.68z"/>
   <polygon class="fil1" points="1318.57,1267.42 1261.11,1267.42 1261.11,1078.29 1372.36,1078.29 "/>
   <path class="fil3" d="M1318.57 1274.14l-64.18 0 0 -202.58 126.88 0c-19.21,67.52 -38.4,135.05 -57.62,202.58l-5.07 0zm-50.73 -13.45l45.66 0 49.97 -175.68 -95.63 0 0 175.68z"/>
   <polygon class="fil1" points="1714.08,1267.42 1613.17,1267.42 1663.8,1078.29 1764.7,1078.29 "/>
   <path class="fil3" d="M1714.08 1274.14l-109.66 0c18.09,-67.52 36.17,-135.05 54.23,-202.58l114.81 0 -54.22 202.58 -5.15 0zm-92.16 -13.45l87.01 0 47.02 -175.68 -87 0 -47.03 175.68z"/>
   <polygon class="fil1" points="1908.99,1267.42 1808.09,1267.42 1858.71,1078.29 1959.61,1078.29 "/>
   <path class="fil3" d="M1908.98 1274.14l-109.65 0c18.08,-67.52 36.16,-135.05 54.23,-202.58l114.81 0 -54.23 202.58 -5.15 0zm-92.15 -13.45l87 0 47.03 -175.68 -87 0 -47.02 175.68z"/>
   <polygon class="fil1" points="2105.16,1267.42 2004.25,1267.42 2054.88,1078.29 2155.78,1078.29 "/>
   <path class="fil3" d="M2105.16 1274.14l-109.66 0c18.09,-67.52 36.17,-135.05 54.23,-202.58l114.81 0 -54.23 202.58 -5.15 0zm-92.15 -13.45l87 0 47.02 -175.68 -87 0 -47.03 175.68z"/>
   <polygon class="fil1" points="2300.06,1267.42 2199.17,1267.42 2249.79,1078.29 2350.69,1078.29 "/>
   <path class="fil3" d="M2300.06 1274.14l-109.65 0c18.08,-67.52 36.16,-135.05 54.22,-202.58l114.81 0 -54.23 202.58 -5.15 0zm-92.15 -13.45l87 0 47.03 -175.68 -87 0 -47.02 175.68z"/>
   <polygon class="fil2" points="1267.66,1410.21 2393.79,1410.21 2393.79,1599.34 1267.66,1599.34 "/>
   <path class="fil3" d="M1267.66 1403.49l1132.85 0 0 202.58 -1139.57 0 0 -202.58 6.73 0zm1119.4 13.45l-1112.67 0 0 175.68 1112.67 0 0 -175.68z"/>
   <polygon class="fil2" points="1267.66,1732.21 2393.79,1732.21 2393.79,1803.6 1267.66,1803.6 "/>
   <path class="fil3" d="M1267.66 1725.49l1132.85 0 0 84.84 -1139.57 0 0 -84.84 6.73 0zm1119.4 13.45l-1112.67 0 0 57.94 1112.67 0 0 -57.94z"/>
   <polygon class="fil1" points="1516.64,1599.34 1415.74,1599.34 1466.37,1410.21 1567.27,1410.21 "/>
   <path class="fil3" d="M1516.64 1606.06l-109.65 0c18.09,-67.52 36.17,-135.04 54.23,-202.58l114.8 0 -54.22 202.58 -5.16 0zm-92.15 -13.45l87 0 47.02 -175.68 -86.99 0 -47.03 175.68z"/>
   <polygon class="fil1" points="1267.66,1410.21 1372.36,1410.21 1321.74,1599.34 1267.66,1599.34 "/>
   <path class="fil3" d="M1267.66 1403.49l113.45 0 -54.23 202.58 -65.95 0 0 -202.58 6.73 0zm95.94 13.45l-89.22 0 0 175.68 42.2 0 47.02 -175.68z"/>
   <polygon class="fil1" points="1714.08,1599.34 1613.17,1599.34 1663.8,1410.21 1764.7,1410.21 "/>
   <path class="fil3" d="M1714.08 1606.06l-109.66 0c18.09,-67.52 36.17,-135.05 54.23,-202.58l114.81 0 -54.22 202.58 -5.15 0zm-92.16 -13.45l87.01 0 47.02 -175.68 -87 0 -47.03 175.68z"/>
   <polygon class="fil1" points="1908.99,1599.34 1808.09,1599.34 1858.71,1410.21 1959.61,1410.21 "/>
   <path class="fil3" d="M1908.98 1606.06l-109.65 0c18.08,-67.52 36.16,-135.04 54.23,-202.58l114.81 0 -54.23 202.58 -5.15 0zm-92.15 -13.45l87 0 47.03 -175.68 -87 0 -47.02 175.68z"/>
   <polygon class="fil1" points="2105.16,1599.34 2004.25,1599.34 2054.88,1410.21 2155.78,1410.21 "/>
   <path class="fil3" d="M2105.16 1606.06l-109.66 0c18.09,-67.52 36.17,-135.04 54.23,-202.58l114.81 0 -54.23 202.58 -5.15 0zm-92.15 -13.45l87 0 47.02 -175.68 -87 0 -47.03 175.68z"/>
   <polygon class="fil1" points="2300.06,1599.34 2199.17,1599.34 2249.79,1410.21 2350.69,1410.21 "/>
   <path class="fil3" d="M2300.06 1606.06l-109.65 0c18.08,-67.52 36.16,-135.05 54.22,-202.58l114.81 0 -54.23 202.58 -5.15 0zm-92.15 -13.45l87 0 47.03 -175.68 -87 0 -47.02 175.68z"/>
   <polygon class="fil3" points="2265.43,2025.25 2459.63,2025.25 2459.63,2038.7 2265.43,2038.7 "/>
   <polygon class="fil3" points="1178.37,2025.25 2222.28,2025.25 2222.28,2038.7 1178.37,2038.7 "/>
   <polygon class="fil3" points="1763.2,921.99 2187.31,921.99 2187.31,935.44 1763.2,935.44 "/>
   <polygon class="fil3" points="918.34,2026.37 1077.93,2026.37 1077.93,2039.82 918.34,2039.82 "/>
   <polygon class="fil3" points="897.12,1195.17 1194,1195.17 1194,1208.62 897.12,1208.62 "/>
   <polygon class="fil3" points="758.29,1195.17 859.18,1195.17 859.18,1208.62 758.29,1208.62 "/>
   <polygon class="fil3" points="1966.32,622.53 2390.44,622.53 2390.44,635.98 1966.32,635.98 "/>
   <polygon class="fil3" points="1585.74,164.79 1624.8,164.79 1624.8,178.24 1585.74,178.24 "/>
   <polygon class="fil3" points="1304.49,164.79 1515.43,164.79 1515.43,178.24 1304.49,178.24 "/>
   <polygon class="fil3" points="1220.78,164.79 1259.85,164.79 1259.85,178.24 1220.78,178.24 "/>
   <polygon class="fil3" points="465.66,1409.44 504.72,1409.44 504.72,1422.89 465.66,1422.89 "/>
   <polygon class="fil3" points="184.4,1409.44 395.34,1409.44 395.34,1422.89 184.4,1422.89 "/>
   <polygon class="fil3" points="100.7,1409.44 139.76,1409.44 139.76,1422.89 100.7,1422.89 "/>
   <path class="fil1" d="M346.5 616.93c-29.54,-29.79 -29.54,-78.1 0,-107.9l406.65 -410.19 -26.89 -27.13c-29.54,-29.79 -77.43,-29.79 -106.97,0l-433.55 437.32c-29.54,29.79 -29.54,78.1 0,107.9l433.55 437.32c29.54,29.79 77.43,29.79 106.97,0l26.89 -27.13 -406.65 -410.19z"/>
   <path class="fil5" d="M6.5 2069.92c8.66,0 8.67,-13.45 0,-13.45 -8.66,0 -8.67,13.45 0,13.45z"/>
   <path class="fil5" d="M6.5 2078.92c8.66,0 8.67,-13.45 0,-13.45 -8.66,0 -8.67,13.45 0,13.45z"/>
   <path class="fil3" d="M610.03 1002.59l-373.2 -376.44c-17.31,-17.46 -25.96,-40.32 -25.96,-63.16 0,-22.84 8.66,-45.7 25.96,-63.16l373.2 -376.45 0 -0.03 0.51 -0.51 0.02 0c17.26,-17.1 39.71,-25.66 62.15,-25.66 22.44,0 44.89,8.55 62.15,25.66l0.03 0 0.51 0.51 0 0.03 373.2 376.45c17.31,17.46 25.96,40.32 25.96,63.16 0,22.84 -8.65,45.7 -25.96,63.16l-373.2 376.44 0 0.03 -0.52 0.51 -0.03 0c-17.23,17.08 -39.68,25.63 -62.14,25.63l0 0.02c-22.43,0 -44.88,-8.55 -62.14,-25.65l-0.02 0 -0.52 -0.51 0 -0.03zm-363.7 -385.9l373.19 376.44 0.01 -0.01 0.51 0.52 -0.01 0.01c14.6,14.47 33.63,21.71 52.66,21.71l0 0.02c19.02,0 38.05,-7.24 52.67,-21.73l-0.01 -0.01 0.51 -0.52 0.01 0.01 373.19 -376.44c14.68,-14.81 22.02,-34.25 22.02,-53.7 0,-19.45 -7.34,-38.89 -22.02,-53.7l-373.19 -376.44 -0.01 0.01 -0.5 -0.51 0.01 -0.01c-14.6,-14.47 -33.63,-21.71 -52.68,-21.71 -19.04,0 -38.07,7.23 -52.67,21.71l0.01 0.01 -0.5 0.51 -0.01 -0.01 -373.19 376.44c-14.68,14.81 -22.02,34.24 -22.02,53.7 0,19.45 7.34,38.89 22.02,53.7z"/>
   <path class="fil2" d="M1036.88 504.56c31.99,32.26 31.99,84.58 0,116.86l-179.43 180.98 -102.07 158.65 339.53 -339.64c31.98,-32.27 31.98,-84.59 0,-116.86l-269.37 -271.72 31.91 90.73 179.43 180.99z"/>
   <path class="fil4" d="M513.44 648.44l0 -56.83 28.98 0 0 -22.23 -28.98 0 0 -129.78 -30.25 0 -92.37 133.34 0 18.67 96.16 0 0 56.83 26.45 0zm-94.27 -79.06l0 -0.63 50.66 -71.05c5.69,-9.56 10.83,-18.58 17.15,-30.78l0.99 0c-0.63,10.93 -0.99,21.86 -0.99,32.78l0 69.67 -67.81 0zm213.73 -133.34c-41.99,0 -71.96,38.53 -71.96,108.66 0.63,69.04 27.99,107.29 68.44,107.29 45.87,0 72.05,-39.25 72.05,-110.2 0,-66.49 -24.83,-105.75 -68.53,-105.75zm-1.54 21.86c28.98,0 41.99,33.7 41.99,85.16 0,53.28 -13.63,87.07 -42.35,87.07 -25.46,0 -42.07,-30.87 -42.07,-85.16 0,-56.83 17.88,-87.07 42.43,-87.07zm208.94 190.54l0 -56.83 28.98 0 0 -22.23 -28.98 0 0 -129.78 -30.25 0 -92.37 133.34 0 18.67 96.16 0 0 56.83 26.45 0zm-94.27 -79.06l0 -0.63 50.66 -71.05c5.69,-9.56 10.84,-18.58 17.16,-30.78l0.99 0c-0.63,10.93 -0.99,21.86 -0.99,32.78l0 69.67 -67.81 0z"/>
   <path class="fil6" d="M513.44 648.44l0 -56.83 28.98 0 0 -22.23 -28.98 0 0 -129.78 -30.25 0 -92.37 133.34 0 18.67 96.16 0 0 56.83 26.45 0zm-94.27 -79.06l0 -0.63 50.66 -71.05c5.69,-9.56 10.83,-18.58 17.15,-30.78l0.99 0c-0.63,10.93 -0.99,21.86 -0.99,32.78l0 69.67 -67.81 0zm213.73 -133.34c-41.99,0 -71.96,38.53 -71.96,108.66 0.63,69.04 27.99,107.29 68.44,107.29 45.87,0 72.05,-39.25 72.05,-110.2 0,-66.49 -24.83,-105.75 -68.53,-105.75zm-1.54 21.86c28.98,0 41.99,33.7 41.99,85.16 0,53.28 -13.63,87.07 -42.35,87.07 -25.46,0 -42.07,-30.87 -42.07,-85.16 0,-56.83 17.88,-87.07 42.43,-87.07zm208.94 190.54l0 -56.83 28.98 0 0 -22.23 -28.98 0 0 -129.78 -30.25 0 -92.37 133.34 0 18.67 96.16 0 0 56.83 26.45 0zm-94.27 -79.06l0 -0.63 50.66 -71.05c5.69,-9.56 10.84,-18.58 17.16,-30.78l0.99 0c-0.63,10.93 -0.99,21.86 -0.99,32.78l0 69.67 -67.81 0z"/>
   <path class="fil6" d="M513.44 648.44l0 -56.83 28.98 0 0 -22.23 -28.98 0 0 -129.78 -30.25 0 -92.37 133.34 0 18.67 96.16 0 0 56.83 26.45 0zm-94.27 -79.06l0 -0.63 50.66 -71.05c5.69,-9.56 10.83,-18.58 17.15,-30.78l0.99 0c-0.63,10.93 -0.99,21.86 -0.99,32.78l0 69.67 -67.81 0zm213.73 -133.34c-41.99,0 -71.96,38.53 -71.96,108.66 0.63,69.04 27.99,107.29 68.44,107.29 45.87,0 72.05,-39.25 72.05,-110.2 0,-66.49 -24.83,-105.75 -68.53,-105.75zm-1.54 21.86c28.98,0 41.99,33.7 41.99,85.16 0,53.28 -13.63,87.07 -42.35,87.07 -25.46,0 -42.07,-30.87 -42.07,-85.16 0,-56.83 17.88,-87.07 42.43,-87.07zm208.94 190.54l0 -56.83 28.98 0 0 -22.23 -28.98 0 0 -129.78 -30.25 0 -92.37 133.34 0 18.67 96.16 0 0 56.83 26.45 0zm-94.27 -79.06l0 -0.63 50.66 -71.05c5.69,-9.56 10.84,-18.58 17.16,-30.78l0.99 0c-0.63,10.93 -0.99,21.86 -0.99,32.78l0 69.67 -67.81 0z"/>
   <path class="fil7" d="M566.53 733.24l-24.5 0 0 -20.09 25.9 0 0 -6.9 -34.04 0 0 63.6 35.45 0 0 -6.9 -27.31 0 0 -22.92 24.5 0 0 -6.79zm13.39 36.61l8.14 0 0 -27.55 7.66 0c7.4,0.27 10.76,3.58 12.65,12.36 1.78,7.92 3.18,13.4 4.19,15.19l8.43 0c-1.33,-2.46 -2.81,-8.58 -4.88,-17.46 -1.49,-6.61 -4.38,-11.13 -9.25,-12.81l0 -0.29c6.65,-2.27 11.87,-7.84 11.87,-16.23 0,-4.9 -1.78,-9.26 -4.96,-12.07 -3.92,-3.58 -9.54,-5.19 -18.24,-5.19 -5.59,0 -11.51,0.45 -15.62,1.31l0 62.74zm8.14 -56.99c1.3,-0.38 4.11,-0.75 8.03,-0.75 8.62,0.11 14.51,3.69 14.51,11.87 0,7.27 -5.51,12.09 -14.21,12.09l-8.32 0 0 -23.21zm42.18 56.99l8.14 0 0 -27.55 7.66 0c7.4,0.27 10.76,3.58 12.65,12.36 1.78,7.92 3.18,13.4 4.19,15.19l8.43 0c-1.33,-2.46 -2.81,-8.58 -4.88,-17.46 -1.49,-6.61 -4.38,-11.13 -9.25,-12.81l0 -0.29c6.65,-2.27 11.87,-7.84 11.87,-16.23 0,-4.9 -1.78,-9.26 -4.96,-12.07 -3.92,-3.58 -9.54,-5.19 -18.24,-5.19 -5.59,0 -11.51,0.45 -15.62,1.31l0 62.74zm8.14 -56.99c1.3,-0.38 4.11,-0.75 8.03,-0.75 8.62,0.11 14.5,3.69 14.5,11.87 0,7.27 -5.51,12.09 -14.21,12.09l-8.32 0 0 -23.21zm67.71 -7.65c-16.83,0 -29.27,13.21 -29.27,33.4 0,19.26 11.69,32.28 28.34,32.28 16.09,0 29.27,-11.6 29.27,-33.51 0,-18.85 -11.14,-32.17 -28.35,-32.17zm-0.37 6.71c13.57,0 20.12,13.21 20.12,25.86 0,14.42 -7.32,26.4 -20.2,26.4 -12.83,0 -20.12,-12.17 -20.12,-25.75 0,-13.96 6.73,-26.5 20.2,-26.5zm39.29 57.93l8.14 0 0 -27.55 7.66 0c7.4,0.27 10.77,3.58 12.65,12.36 1.77,7.92 3.18,13.4 4.19,15.19l8.43 0c-1.33,-2.46 -2.81,-8.58 -4.88,-17.46 -1.48,-6.61 -4.38,-11.13 -9.25,-12.81l0 -0.29c6.65,-2.27 11.88,-7.84 11.88,-16.23 0,-4.9 -1.78,-9.26 -4.96,-12.07 -3.92,-3.58 -9.55,-5.19 -18.24,-5.19 -5.6,0 -11.51,0.45 -15.62,1.31l0 62.74zm8.14 -56.99c1.3,-0.38 4.11,-0.75 8.03,-0.75 8.62,0.11 14.5,3.69 14.5,11.87 0,7.27 -5.51,12.09 -14.21,12.09l-8.32 0 0 -23.21z"/>
   <path class="fil6" d="M566.53 733.24l-24.5 0 0 -20.09 25.9 0 0 -6.9 -34.04 0 0 63.6 35.45 0 0 -6.9 -27.31 0 0 -22.92 24.5 0 0 -6.79zm13.39 36.61l8.14 0 0 -27.55 7.66 0c7.4,0.27 10.76,3.58 12.65,12.36 1.78,7.92 3.18,13.4 4.19,15.19l8.43 0c-1.33,-2.46 -2.81,-8.58 -4.88,-17.46 -1.49,-6.61 -4.38,-11.13 -9.25,-12.81l0 -0.29c6.65,-2.27 11.87,-7.84 11.87,-16.23 0,-4.9 -1.78,-9.26 -4.96,-12.07 -3.92,-3.58 -9.54,-5.19 -18.24,-5.19 -5.59,0 -11.51,0.45 -15.62,1.31l0 62.74zm8.14 -56.99c1.3,-0.38 4.11,-0.75 8.03,-0.75 8.62,0.11 14.51,3.69 14.51,11.87 0,7.27 -5.51,12.09 -14.21,12.09l-8.32 0 0 -23.21zm42.18 56.99l8.14 0 0 -27.55 7.66 0c7.4,0.27 10.76,3.58 12.65,12.36 1.78,7.92 3.18,13.4 4.19,15.19l8.43 0c-1.33,-2.46 -2.81,-8.58 -4.88,-17.46 -1.49,-6.61 -4.38,-11.13 -9.25,-12.81l0 -0.29c6.65,-2.27 11.87,-7.84 11.87,-16.23 0,-4.9 -1.78,-9.26 -4.96,-12.07 -3.92,-3.58 -9.54,-5.19 -18.24,-5.19 -5.59,0 -11.51,0.45 -15.62,1.31l0 62.74zm8.14 -56.99c1.3,-0.38 4.11,-0.75 8.03,-0.75 8.62,0.11 14.5,3.69 14.5,11.87 0,7.27 -5.51,12.09 -14.21,12.09l-8.32 0 0 -23.21zm67.71 -7.65c-16.83,0 -29.27,13.21 -29.27,33.4 0,19.26 11.69,32.28 28.34,32.28 16.09,0 29.27,-11.6 29.27,-33.51 0,-18.85 -11.14,-32.17 -28.35,-32.17zm-0.37 6.71c13.57,0 20.12,13.21 20.12,25.86 0,14.42 -7.32,26.4 -20.2,26.4 -12.83,0 -20.12,-12.17 -20.12,-25.75 0,-13.96 6.73,-26.5 20.2,-26.5zm39.29 57.93l8.14 0 0 -27.55 7.66 0c7.4,0.27 10.77,3.58 12.65,12.36 1.77,7.92 3.18,13.4 4.19,15.19l8.43 0c-1.33,-2.46 -2.81,-8.58 -4.88,-17.46 -1.48,-6.61 -4.38,-11.13 -9.25,-12.81l0 -0.29c6.65,-2.27 11.88,-7.84 11.88,-16.23 0,-4.9 -1.78,-9.26 -4.96,-12.07 -3.92,-3.58 -9.55,-5.19 -18.24,-5.19 -5.6,0 -11.51,0.45 -15.62,1.31l0 62.74zm8.14 -56.99c1.3,-0.38 4.11,-0.75 8.03,-0.75 8.62,0.11 14.5,3.69 14.5,11.87 0,7.27 -5.51,12.09 -14.21,12.09l-8.32 0 0 -23.21z"/>
   <path class="fil6" d="M566.53 733.24l-24.5 0 0 -20.09 25.9 0 0 -6.9 -34.04 0 0 63.6 35.45 0 0 -6.9 -27.31 0 0 -22.92 24.5 0 0 -6.79zm13.39 36.61l8.14 0 0 -27.55 7.66 0c7.4,0.27 10.76,3.58 12.65,12.36 1.78,7.92 3.18,13.4 4.19,15.19l8.43 0c-1.33,-2.46 -2.81,-8.58 -4.88,-17.46 -1.49,-6.61 -4.38,-11.13 -9.25,-12.81l0 -0.29c6.65,-2.27 11.87,-7.84 11.87,-16.23 0,-4.9 -1.78,-9.26 -4.96,-12.07 -3.92,-3.58 -9.54,-5.19 -18.24,-5.19 -5.59,0 -11.51,0.45 -15.62,1.31l0 62.74zm8.14 -56.99c1.3,-0.38 4.11,-0.75 8.03,-0.75 8.62,0.11 14.51,3.69 14.51,11.87 0,7.27 -5.51,12.09 -14.21,12.09l-8.32 0 0 -23.21zm42.18 56.99l8.14 0 0 -27.55 7.66 0c7.4,0.27 10.76,3.58 12.65,12.36 1.78,7.92 3.18,13.4 4.19,15.19l8.43 0c-1.33,-2.46 -2.81,-8.58 -4.88,-17.46 -1.49,-6.61 -4.38,-11.13 -9.25,-12.81l0 -0.29c6.65,-2.27 11.87,-7.84 11.87,-16.23 0,-4.9 -1.78,-9.26 -4.96,-12.07 -3.92,-3.58 -9.54,-5.19 -18.24,-5.19 -5.59,0 -11.51,0.45 -15.62,1.31l0 62.74zm8.14 -56.99c1.3,-0.38 4.11,-0.75 8.03,-0.75 8.62,0.11 14.5,3.69 14.5,11.87 0,7.27 -5.51,12.09 -14.21,12.09l-8.32 0 0 -23.21zm67.71 -7.65c-16.83,0 -29.27,13.21 -29.27,33.4 0,19.26 11.69,32.28 28.34,32.28 16.09,0 29.27,-11.6 29.27,-33.51 0,-18.85 -11.14,-32.17 -28.35,-32.17zm-0.37 6.71c13.57,0 20.12,13.21 20.12,25.86 0,14.42 -7.32,26.4 -20.2,26.4 -12.83,0 -20.12,-12.17 -20.12,-25.75 0,-13.96 6.73,-26.5 20.2,-26.5zm39.29 57.93l8.14 0 0 -27.55 7.66 0c7.4,0.27 10.77,3.58 12.65,12.36 1.77,7.92 3.18,13.4 4.19,15.19l8.43 0c-1.33,-2.46 -2.81,-8.58 -4.88,-17.46 -1.48,-6.61 -4.38,-11.13 -9.25,-12.81l0 -0.29c6.65,-2.27 11.88,-7.84 11.88,-16.23 0,-4.9 -1.78,-9.26 -4.96,-12.07 -3.92,-3.58 -9.55,-5.19 -18.24,-5.19 -5.6,0 -11.51,0.45 -15.62,1.31l0 62.74zm8.14 -56.99c1.3,-0.38 4.11,-0.75 8.03,-0.75 8.62,0.11 14.5,3.69 14.5,11.87 0,7.27 -5.51,12.09 -14.21,12.09l-8.32 0 0 -23.21z"/>
  </g>
 </g>
</svg>
