<?xml version="1.0" encoding="UTF-8"?>
<!DOCTYPE svg PUBLIC "-//W3C//DTD SVG 1.1//EN" "http://www.w3.org/Graphics/SVG/1.1/DTD/svg11.dtd">
<!-- Creator: CorelDRAW 2020 (64-Bit) -->
<svg xmlns="http://www.w3.org/2000/svg" xml:space="preserve" width="151.206mm" height="84.6666mm" version="1.1" style="shape-rendering:geometricPrecision; text-rendering:geometricPrecision; image-rendering:optimizeQuality; fill-rule:evenodd; clip-rule:evenodd"
viewBox="0 0 10904.14 6105.68"
 xmlns:xlink="http://www.w3.org/1999/xlink"
 xmlns:xodm="http://www.corel.com/coreldraw/odm/2003">
 <defs>
  <style type="text/css">
   <![CDATA[
    .fil2 {fill:#999999;fill-rule:nonzero}
    .fil0 {fill:#E6E6EB;fill-rule:nonzero}
    .fil1 {fill:white;fill-rule:nonzero}
   ]]>
  </style>
 </defs>
 <g id="图层_x0020_1">
  <metadata id="CorelCorpID_0Corel-Layer"/>
  <g id="_2033006409616">
   <path class="fil0" d="M10583.95 4824.87l-1808.71 0c-176.86,0 -320.2,-143.34 -320.2,-320.19 0,-176.86 143.34,-320.2 320.2,-320.2l1808.71 0c176.84,0 320.21,143.34 320.21,320.2 0,176.85 -143.37,320.19 -320.21,320.19zm-5051.51 -3842.48l-2501.95 0c-176.84,0 -320.2,-143.37 -320.2,-320.19 0,-176.86 143.36,-320.23 320.2,-320.23l2501.95 0c176.86,0 320.21,143.37 320.21,320.23 0,176.82 -143.35,320.19 -320.21,320.19zm-2049.32 640.42c176.86,0 320.21,-143.37 320.21,-320.21 0,-176.7 -143.13,-319.99 -319.78,-320.21l1902.82 0c-176.66,0.22 -319.81,143.51 -319.81,320.21 0,176.84 143.38,320.21 320.24,320.21l453.65 0c4.09,-0.02 8.16,-0.14 12.2,-0.3l0 0.3 2761.73 0c176.86,0 320.22,143.35 320.22,320.22 0,176.84 -143.36,320.19 -320.22,320.19l-51.22 0 -6527.77 0 -938.71 0c-176.82,0 -320.19,-143.35 -320.19,-320.19 0,-176.87 143.36,-320.22 320.19,-320.22l2338.73 0 47.72 0zm2356.7 -640.42l12.82 0 0 0.3c-4.25,-0.18 -8.54,-0.28 -12.82,-0.3zm-4135.97 2561.66l-5.39 0c-176.85,0 -320.22,-143.36 -320.22,-320.19 0,-176.86 143.37,-320.23 320.22,-320.23l308.19 0 28.72 0c176.86,0 320.21,-143.35 320.21,-320.19 0,-176.72 -143.13,-319.99 -319.78,-320.21l6526.93 0c-176.67,0.22 -319.81,143.49 -319.81,320.21 0,176.85 143.37,320.19 320.23,320.19l371.44 0 620.05 0 85.84 0c176.84,0 320.21,143.37 320.21,320.23 0,176.82 -143.37,320.19 -320.21,320.19l-3007.71 0 -225.59 0 -278.77 0 0 265.3 -285.05 0 0 379.6 737.07 0 5.39 -4.48 1262.93 0c176.84,0 320.19,143.34 320.19,320.2 0,176.85 -143.35,320.19 -320.19,320.19l-75.5 0 -2268.43 0 -1752.93 0 -3431.72 0c-176.84,0 -320.21,-143.34 -320.21,-320.19 0,-176.86 143.37,-320.2 320.21,-320.2l1020.95 0 0.4 0 660.03 0c176.85,0 320.19,-143.38 320.19,-320.22 0,-176.84 -143.35,-320.21 -320.19,-320.21l-297.71 0zm7938.3 2561.66l-7461.43 0c-176.84,0 -320.19,-143.37 -320.19,-320.19l0 -0.02c0,-176.7 143.13,-319.99 319.78,-320.21l-1.32 0 0 0 1.72 0 138.45 0c176.86,0 320.2,-143.37 320.2,-320.19 0,-176.72 -143.13,-319.99 -319.78,-320.22l1431.9 0c-176.64,0.22 -319.78,143.49 -319.78,320.22 0,176.82 143.37,320.19 320.21,320.19l1752.93 0c176.87,0 320.19,-143.37 320.19,-320.19 0,-176.72 -143.11,-319.99 -319.79,-320.22l2267.6 0c-176.64,0.22 -319.79,143.49 -319.79,320.22 0,176.82 143.37,320.19 320.22,320.19l370.88 0 831.75 0 666.25 0c176.82,0 320.19,143.36 320.19,320.21l0 0.02c0,176.82 -143.37,320.19 -320.19,320.19z"/>
   <path class="fil1" d="M3523.28 5324.4l-368.93 0c-16.85,0 -30.53,13.65 -30.53,30.5l0 108.69c0,16.85 13.67,30.5 30.53,30.5l368.93 0c16.85,0 30.5,-13.65 30.5,-30.5l0 -108.69c0,-16.85 -13.65,-30.5 -30.5,-30.5z"/>
   <path class="fil2" d="M3523.28 5354.92l-368.93 0 -0.01 108.68 368.94 -0.01 0 -108.68zm-368.93 -61.02l368.93 0c16.83,0 32.1,6.83 43.15,17.88l0 0.12c11.03,11.05 17.87,26.27 17.87,43.02l0 108.69c0,16.76 -6.84,31.98 -17.87,43.02l0 0.12c-11.05,11.05 -26.31,17.88 -43.15,17.88l-368.93 0c-16.84,0 -32.11,-6.84 -43.15,-17.88l0.06 -0.06c-11.09,-11.09 -17.95,-26.34 -17.95,-43.07l0 -108.69c0,-16.74 6.86,-31.98 17.95,-43.07l-0.06 -0.06c11.05,-11.04 26.31,-17.88 43.15,-17.88zm-0.11 61.02c-0.06,0.04 -0.04,0.01 0,0zm0.01 108.69c-0.06,-0.03 -0.04,-0.01 0,0z"/>
   <path class="fil1" d="M3490.28 3070.82l-286.24 0c-16.85,0 -30.5,13.65 -30.5,30.5l0 2224.08 347.25 0 0 -2224.08c0,-16.85 -13.65,-30.5 -30.5,-30.5z"/>
   <path class="fil2" d="M3490.28 3101.32l-286.23 0 0 2193.57 286.23 0 0 -2193.57zm-286.23 -61.02l286.24 0c16.84,0 32.09,6.82 43.14,17.87l0 0.12c11.03,11.04 17.87,26.26 17.87,43.02l0 2254.58 -408.26 0 0 -2254.58c0,-16.85 6.83,-32.1 17.87,-43.15 11.05,-11.05 26.3,-17.87 43.15,-17.87z"/>
   <path class="fil1" d="M5845.85 5324.4l-368.93 0c-16.85,0 -30.53,13.65 -30.53,30.5l0 108.69c0,16.85 13.67,30.5 30.53,30.5l368.93 0c16.85,0 30.51,-13.65 30.51,-30.5l0 -108.69c0,-16.85 -13.66,-30.5 -30.51,-30.5z"/>
   <path class="fil2" d="M5845.85 5354.92l-368.93 0 -0.01 108.68 368.94 -0.01 0 -108.68zm-368.93 -61.02l368.93 0c16.83,0 32.1,6.83 43.15,17.88l0 0.12c11.03,11.05 17.87,26.27 17.87,43.02l0 108.69c0,16.76 -6.84,31.98 -17.87,43.02l0 0.12c-11.05,11.05 -26.31,17.88 -43.15,17.88l-368.93 0c-16.83,0 -32.11,-6.84 -43.15,-17.88l0.06 -0.06c-11.08,-11.09 -17.94,-26.34 -17.94,-43.07l0 -108.69c0,-16.74 6.86,-31.98 17.94,-43.07l-0.06 -0.06c11.04,-11.04 26.31,-17.88 43.15,-17.88zm-0.11 61.02c-0.06,0.04 -0.04,0.02 0,0zm0.01 108.69c-0.06,-0.03 -0.04,-0.01 0,0z"/>
   <path class="fil1" d="M5812.85 3070.82l-286.23 0c-16.86,0 -30.51,13.65 -30.51,30.5l0 2224.08 347.25 0 0 -2224.08c0,-16.85 -13.65,-30.5 -30.51,-30.5z"/>
   <path class="fil2" d="M5812.85 3101.32l-286.23 0 0 2193.57 286.23 0 0 -2193.57zm-286.23 -61.02l286.23 0c16.84,0 32.1,6.82 43.15,17.87l0 0.12c11.03,11.04 17.88,26.26 17.88,43.02l0 2254.58 -408.28 0 0 -2254.58c0,-16.76 6.84,-31.98 17.88,-43.02l0 -0.12c11.05,-11.05 26.31,-17.87 43.15,-17.87z"/>
   <polygon class="fil1" points="7437.47,30.48 6417.26,30.48 5695.86,751.87 5695.86,1772.08 6417.26,2493.48 7437.47,2493.48 8158.87,1772.08 8158.87,751.87 "/>
   <path class="fil2" d="M7424.84 60.99l-994.96 0 -703.51 703.51 0 994.95 703.51 703.52 994.96 0 703.51 -703.52 0 -994.95 -703.51 -703.51zm-1007.58 -61.02l1032.83 0 739.29 739.28 0 1045.46 -739.29 739.28 -1045.46 0 -739.29 -739.28 0 -1045.46 739.29 -739.28 12.63 0z"/>
   <polygon class="fil1" points="7352.81,234.85 6501.92,234.85 5900.26,836.53 5900.26,1687.41 6501.92,2289.09 7352.81,2289.09 7954.47,1687.41 7954.47,836.53 "/>
   <path class="fil2" d="M7340.18 265.37l-825.64 0 -583.78 583.78 0 825.64 583.78 583.8 825.64 0 583.78 -583.8 0 -825.64 -583.78 -583.78zm-838.26 -61.02l863.52 0 619.55 619.55 0 876.14c-206.52,206.51 -413.09,412.99 -619.55,619.56l-876.14 0 -619.55 -619.56 0 -876.13c206.46,-206.58 413.03,-413.04 619.55,-619.56l12.62 0z"/>
   <path class="fil2" d="M6210.08 1376.48c35.43,29.32 75.63,43.99 120.61,43.99 25.54,0 44.82,-4.45 57.66,-13.18 12.86,-8.74 19.28,-20.11 19.28,-33.94 0,-11.86 -5.11,-23.07 -15.32,-33.78 -10.22,-10.54 -37.24,-24.88 -80.9,-43.17 -68.71,-29.16 -102.98,-71.5 -102.98,-127.04 0,-40.86 15.49,-72.66 46.63,-95.23 31.14,-22.57 72.33,-33.94 123.57,-33.94 43.01,0 79.09,5.6 108.25,16.81l0 87.98c-29.49,-20.1 -64.09,-30.15 -103.64,-30.15 -23.06,0 -41.52,4.12 -55.36,12.53 -13.84,8.4 -20.75,19.77 -20.75,34.1 0,11.37 4.78,21.75 14.17,31.3 9.39,9.56 32.78,22.41 70.19,38.72 43.66,18.79 73.81,38.55 90.12,59.32 16.31,20.75 24.55,45.47 24.55,74.3 0,42.19 -14.99,74.31 -44.81,96.55 -29.99,22.24 -72.5,33.28 -127.53,33.28 -50.26,0 -91.61,-8.24 -123.74,-24.55l0 -93.91zm673.23 -252.25l-125.55 0 0 362.97 -93.91 0 0 -362.97 -125.05 0 0 -76.62 344.52 0 0 76.62zm9.01 148.94c0,-68.88 20.11,-124.89 60.31,-168.23 40.2,-43.16 93.42,-64.75 159.49,-64.75 62.78,0 113.2,20.93 151.58,62.62 38.39,41.85 57.5,95.56 57.5,161.3 0,68.54 -19.94,124.07 -59.65,166.74 -39.87,42.68 -92.1,64.1 -156.69,64.1 -62.94,0 -114.01,-20.76 -153.39,-62.11 -39.38,-41.36 -59.16,-94.58 -59.16,-159.65zm98.54 -5.11c0,42.68 10.38,77.6 30.97,104.79 20.6,27.19 48.77,40.86 84.86,40.86 36.74,0 65.24,-13.02 85.67,-39.05 20.43,-26.03 30.65,-60.96 30.65,-104.78 0,-45.81 -9.89,-82.05 -29.83,-108.58 -19.93,-26.52 -47.94,-39.87 -84.03,-39.87 -36.74,0 -65.58,13.67 -86.67,40.86 -21.09,27.19 -31.63,62.45 -31.63,105.78zm498.4 65.91l0 153.23 -93.75 0 0 -439.59 151.25 0c109.4,0 164.1,46.3 164.1,139.06 0,44.98 -16.47,81.07 -49.43,108.26 -33.11,27.18 -74.31,40.2 -123.9,39.04l-48.28 0zm0 -213.69l0 141.86 40.54 0c55.03,0 82.54,-23.89 82.54,-71.84 0,-46.62 -27.19,-70.02 -81.72,-70.02l-41.36 0z"/>
   <polygon class="fil1" points="7101.21,5352.16 6753.32,5352.16 6753.32,2493.47 7101.21,2493.47 "/>
   <path class="fil2" d="M7101.21 5382.67l-378.4 0 0 -2919.72 408.91 0 0 2919.72 -30.51 0zm-317.38 -61.02l286.86 0 0 -2797.67 -286.86 0 0 2797.67z"/>
   <path class="fil1" d="M7142.25 5352.15l-429.96 0 0 139.2c0,16.86 13.67,30.51 30.5,30.51l368.94 0c16.86,0 30.51,-13.65 30.51,-30.51l0 -139.2z"/>
   <path class="fil2" d="M7111.74 5382.67l-368.94 0 0 108.68 368.94 0 0 -108.68zm-399.45 -61.02l460.47 0 0 169.71c0,16.77 -6.84,31.98 -17.88,43.02l0 0.12c-11.05,11.05 -26.31,17.87 -43.15,17.87l-368.94 0c-16.82,0 -32.1,-6.84 -43.14,-17.88 -11.04,-11.04 -17.88,-26.3 -17.88,-43.14l0 -169.71 30.51 0z"/>
   <polygon class="fil1" points="6097.91,3219.58 2889.02,3219.58 2889.02,3809.35 6097.91,3809.35 "/>
   <path class="fil2" d="M6067.4 3250.09l-3147.86 0 0 528.76 3147.86 0 0 -528.76zm-3178.38 -61.02l3239.4 0 0 650.79 -3269.91 0 0 -650.79 30.51 0z"/>
   <polygon class="fil2" points="3635.49,3240.19 3097.53,3822.98 3052.72,3781.74 3590.68,3198.96 "/>
   <polygon class="fil2" points="4403.99,3240.19 3866.03,3822.98 3821.22,3781.74 4359.18,3198.96 "/>
   <polygon class="fil2" points="5095.63,3240.19 4557.68,3822.98 4512.87,3781.74 5050.82,3198.96 "/>
   <polygon class="fil2" points="5864.13,3240.19 5326.17,3822.98 5281.37,3781.74 5819.32,3198.96 "/>
  </g>
 </g>
</svg>
