<?xml version="1.0" encoding="UTF-8"?>
<!DOCTYPE svg PUBLIC "-//W3C//DTD SVG 1.1//EN" "http://www.w3.org/Graphics/SVG/1.1/DTD/svg11.dtd">
<!-- Creator: CorelDRAW 2020 (64-Bit) -->
<svg xmlns="http://www.w3.org/2000/svg" xml:space="preserve" width="236.794mm" height="42.3346mm" version="1.1" style="shape-rendering:geometricPrecision; text-rendering:geometricPrecision; image-rendering:optimizeQuality; fill-rule:evenodd; clip-rule:evenodd"
viewBox="0 0 16018.73 2863.86"
 xmlns:xlink="http://www.w3.org/1999/xlink"
 xmlns:xodm="http://www.corel.com/coreldraw/odm/2003">
 <defs>
  <style type="text/css">
   <![CDATA[
    .fil0 {fill:#2979FF}
    .fil1 {fill:#2979FF;fill-rule:nonzero}
   ]]>
  </style>
 </defs>
 <g id="图层_x0020_1">
  <metadata id="CorelCorpID_0Corel-Layer"/>
  <g id="_2032995675168">
   <path class="fil0" d="M15361.9 688.62l0 -464.41 197.51 0c49.62,0 85.72,4.22 108.21,12.54 22.59,8.33 40.54,23.14 54.05,44.43 13.52,21.4 20.33,45.73 20.33,73.18 0,34.92 -10.17,63.68 -30.6,86.38 -20.44,22.7 -50.92,36.97 -91.56,42.92 20.21,11.78 36.86,24.76 49.94,38.92 13.19,14.17 30.92,39.35 53.19,75.45l56.64 90.59 -112.1 0 -67.24 -101.4c-24.11,-36 -40.65,-58.71 -49.62,-68.1 -8.86,-9.3 -18.27,-15.79 -28.22,-19.25 -10.06,-3.46 -25.83,-5.18 -47.46,-5.18l-19.03 0 0 193.93 -94.04 0zm200.41 132.28c100.65,0 191.78,-40.8 257.73,-106.75 65.96,-65.95 106.76,-157.09 106.76,-257.73 0,-100.65 -40.8,-191.79 -106.76,-257.73 -65.95,-65.95 -157.09,-106.76 -257.73,-106.76 -100.66,0 -191.79,40.81 -257.74,106.76 -65.95,65.94 -106.75,157.08 -106.75,257.73 0,100.65 40.8,191.78 106.75,257.73 65.95,65.95 157.08,106.75 257.74,106.75zm322.73 -41.75c-82.59,82.59 -196.7,133.69 -322.73,133.69 -126.02,0 -240.14,-51.1 -322.73,-133.69 -82.59,-82.59 -133.69,-196.7 -133.69,-322.73 0,-126.02 51.1,-240.14 133.69,-322.73 82.59,-82.59 196.71,-133.69 322.73,-133.69 126.03,0 240.14,51.09 322.73,133.69 82.59,82.59 133.69,196.71 133.69,322.73 0,126.03 -51.1,240.14 -133.69,322.73zm-429.09 -358.4l69.41 0c44.97,0 72.97,-1.95 84.21,-5.73 11.13,-3.78 20,-10.38 26.27,-19.68 6.38,-9.29 9.52,-20.97 9.52,-34.92 0,-15.67 -4.21,-28.22 -12.54,-37.94 -8.32,-9.61 -20.11,-15.67 -35.24,-18.16 -7.67,-1.08 -30.48,-1.62 -68.43,-1.62l-73.19 0 0 118.05z"/>
   <polygon class="fil1" points="528.89,509.62 528.89,1218.37 1782.59,1218.37 1782.59,1677.04 528.89,1677.04 528.89,2821.07 -0,2821.07 -0,50.94 1978.5,50.94 1978.5,509.62 "/>
   <path id="1" class="fil1" d="M2395.18 2560.3c-200.6,-200.59 -301.56,-504.82 -301.56,-910.67l0 -434.61c0,-406.53 102.3,-710.08 307.58,-911.34 206.6,-201.92 489.44,-303.56 848.5,-303.56 355.04,0 634.53,102.3 838.47,305.57 203.26,203.93 305.56,506.82 305.56,909.33l0 434.61c0,402.51 -104.31,705.4 -311.58,908.67 -207.94,203.93 -490.77,305.57 -848.49,305.57 -356.39,0 -635.87,-100.97 -838.47,-303.56zm1473 -918.7l0 -395.16c0,-522.87 -205.95,-783.63 -618.49,-783.63 -210.62,0 -367.76,63.52 -472.06,191.9 -103.64,126.37 -155.12,323.62 -155.12,591.73l0 395.16c0,253.41 51.48,441.3 155.12,564.32 102.97,123.03 260.1,183.87 472.06,183.87 412.54,0 618.49,-249.4 618.49,-748.2z"/>
   <polygon id="2" class="fil1" points="5445.61,1383.52 4520.89,50.94 5163.45,50.94 5778.59,967.63 6350.27,50.94 6984.81,50.94 6076.13,1359.45 7087.1,2821.07 6440.54,2821.07 5747.16,1782.69 5081.2,2821.07 4446,2821.07 "/>
   <path id="3" class="fil1" d="M7306.54 2560.3c-207.95,-201.93 -311.59,-506.15 -311.59,-910.67l0 -434.61c0,-406.53 104.31,-710.08 313.6,-911.34 209.95,-201.92 500.13,-303.56 869.89,-303.56 339.01,0 610.46,83.58 813.06,250.74 201.94,167.16 303.56,399.84 303.56,697.38l0 31.42 -525.55 0 0 -15.38c0,-154.45 -52.16,-276.14 -156.46,-366.41 -104.31,-90.26 -249.41,-135.06 -434.62,-135.06 -219.31,0 -383.8,63.52 -492.11,191.9 -108.32,127.71 -162.48,324.95 -162.48,591.73l0 395.16c0,253.41 54.83,441.3 164.48,564.32 109.66,123.03 274.14,183.87 494.12,183.87 185.21,0 329.64,-42.79 432.61,-129.05 102.97,-86.25 154.45,-205.27 154.45,-356.38l0 -23.41 521.53 0 0 23.41c0,306.9 -100.97,542.92 -301.56,708.74 -202.59,167.16 -474.06,250.74 -815.07,250.74 -369.76,0 -659.27,-100.97 -867.89,-303.56z"/>
   <polygon id="4" class="fil1" points="12340.81,50.94 12340.81,2821.07 11815.93,2821.07 11815.93,1069.93 11137.94,2288.17 10785.57,2288.17 10096.21,1053.89 10096.21,2821.07 9567.31,2821.07 9567.31,50.94 10096.21,50.94 10962.09,1637.6 11815.93,50.94 "/>
   <path id="5" class="fil1" d="M13596.63 2844.47c-336.99,0 -597.76,-74.22 -781.63,-223.32 -183.87,-148.43 -286.85,-363.06 -307.58,-642.55l501.48 0c16.72,146.43 76.23,252.07 178.52,317.6 100.3,64.86 246.06,97.62 436.62,97.62 377.11,0 567,-123.69 568.34,-371.76 0,-110.99 -38.11,-194.57 -113.67,-250.73 -78.9,-58.84 -201.26,-96.95 -368.42,-113.67l-294.2 -35.43c-561.66,-70.21 -841.82,-328.97 -841.82,-775.61 0,-258.75 92.94,-462.69 280.16,-611.12 186.55,-149.11 441.97,-223.33 765.59,-223.33 314.92,0 559.65,70.88 734.83,213.3 175.84,143.75 276.14,348.35 299.55,613.13l-509.5 0c-10.03,-133.06 -58.83,-230.67 -145.09,-291.52 -87.6,-61.52 -217.98,-92.27 -391.82,-92.27 -173.18,0 -304.9,30.75 -393.17,92.27 -87.59,59.5 -131.72,146.42 -131.72,260.09 0,102.3 39.45,181.2 117.68,237.36 75.55,54.83 199.93,92.94 372.43,115.67l332.98 42.79c260.77,34.09 460.02,116.34 597.09,246.72 137.07,131.06 205.94,308.24 205.94,532.9 0,276.81 -98.96,490.1 -297.54,638.54 -198.58,149.1 -470.05,223.32 -815.07,223.32z"/>
  </g>
 </g>
</svg>
