<?xml version="1.0" encoding="UTF-8"?>
<!DOCTYPE svg PUBLIC "-//W3C//DTD SVG 1.1//EN" "http://www.w3.org/Graphics/SVG/1.1/DTD/svg11.dtd">
<!-- Creator: CorelDRAW 2020 (64-Bit) -->
<svg xmlns="http://www.w3.org/2000/svg" xml:space="preserve" width="15.8471mm" height="15.3918mm" version="1.1" style="shape-rendering:geometricPrecision; text-rendering:geometricPrecision; image-rendering:optimizeQuality; fill-rule:evenodd; clip-rule:evenodd"
viewBox="0 0 61.18 59.42"
 xmlns:xlink="http://www.w3.org/1999/xlink"
 xmlns:xodm="http://www.corel.com/coreldraw/odm/2003">
 <defs>
  <style type="text/css">
   <![CDATA[
    .fil1 {fill:#5997FF;fill-rule:nonzero}
    .fil0 {fill:#A8CFFF;fill-rule:nonzero}
   ]]>
  </style>
 </defs>
 <g id="图层_x0020_1">
  <metadata id="CorelCorpID_0Corel-Layer"/>
  <g id="_1528313753040">
   <path class="fil0" d="M42.89 18.28c0,-5.05 4.09,-9.14 9.14,-9.14 5.05,0 9.14,4.09 9.14,9.14l0 36.57c0,2.52 -2.05,4.57 -4.57,4.57l-13.71 0 0 -41.14z"/>
   <path class="fil1" d="M-0 50.28c0,5.05 4.09,9.14 9.14,9.14l45.71 0c-2.52,0 -4.57,-2.05 -4.57,-4.57l0 -45.71c0,-5.05 -4.09,-9.14 -9.14,-9.14l-32 0c-2.42,0 -4.75,0.96 -6.46,2.68 -1.71,1.71 -2.68,4.04 -2.68,6.46l0 41.14zm11.4 -12.12l15.16 0c1.87,0 3.4,1.53 3.4,3.4l0 0c0,1.87 -1.53,3.4 -3.4,3.4l-15.16 0c-1.87,0 -3.4,-1.53 -3.4,-3.4l0 0c0,-1.87 1.53,-3.4 3.4,-3.4zm-3.4 -24.45c0,-1.89 1.53,-3.43 3.43,-3.43l4.57 0c1.22,0 2.36,0.65 2.97,1.71 0.61,1.06 0.61,2.37 0,3.43 -0.61,1.06 -1.74,1.71 -2.97,1.71l-4.57 0c-1.89,0 -3.43,-1.53 -3.43,-3.43zm0 13.71c0,-1.89 1.53,-3.43 3.43,-3.43l27.42 0c1.89,0 3.43,1.53 3.43,3.43 0,1.89 -1.53,3.43 -3.43,3.43l-27.42 0c-0.91,0 -1.78,-0.36 -2.42,-1 -0.64,-0.64 -1,-1.51 -1,-2.42z"/>
  </g>
 </g>
</svg>
