<?xml version="1.0" encoding="UTF-8"?>
<!DOCTYPE svg PUBLIC "-//W3C//DTD SVG 1.1//EN" "http://www.w3.org/Graphics/SVG/1.1/DTD/svg11.dtd">
<!-- Creator: CorelDRAW 2020 (64-Bit) -->
<svg xmlns="http://www.w3.org/2000/svg" xml:space="preserve" width="14.2714mm" height="15.4079mm" version="1.1" style="shape-rendering:geometricPrecision; text-rendering:geometricPrecision; image-rendering:optimizeQuality; fill-rule:evenodd; clip-rule:evenodd"
viewBox="0 0 50.65 54.68"
 xmlns:xlink="http://www.w3.org/1999/xlink"
 xmlns:xodm="http://www.corel.com/coreldraw/odm/2003">
 <defs>
  <style type="text/css">
   <![CDATA[
    .fil0 {fill:#5997FF;fill-rule:nonzero}
    .fil1 {fill:#A8CFFF;fill-rule:nonzero}
   ]]>
  </style>
 </defs>
 <g id="图层_x0020_1">
  <metadata id="CorelCorpID_0Corel-Layer"/>
  <g id="_1528310719424">
   <path class="fil0" d="M7.83 29.26c5.96,-1.42 4.99,-8.56 4.77,-10.12 -0.35,-2.41 -3.27,-6.56 -7.12,-6.15 -4.84,0.54 -5.39,7.56 -5.39,7.56 -0.58,3.25 1.79,10.12 7.74,8.7zm10.85 -12.24c3.31,-0.07 5.9,-3.94 5.79,-8.64 -0.1,-4.7 -2.85,-8.45 -6.17,-8.38 -3.3,0.07 -5.9,3.94 -5.8,8.64 0.1,4.71 2.86,8.45 6.17,8.38zm14.26 0.25c4.43,0.48 7.18,-4.3 7.66,-7.89 0.5,-3.58 -2.44,-7.67 -5.59,-8.31 -3.15,-0.65 -6.96,4.46 -7.24,7.74 -0.34,4.02 0.74,7.99 5.17,8.46zm11.29 20.78c0,0 -6.96,-5.14 -11.07,-10.77 -5.59,-8.31 -13.21,-4.72 -15.69,-0.37 -2.47,4.34 -6.4,7.14 -6.95,7.87 -0.56,0.72 -8.15,5.04 -6.29,12.58 1.87,7.53 7.86,7.26 7.86,7.26 0,0 4.42,0.34 9.53,-0.92 5.1,-1.25 9.54,0.08 9.54,0.08 0,0 12.06,3.75 15.17,-4.04 3.1,-7.79 -2.11,-11.68 -2.11,-11.68zm6.36 -15.16c-0.04,-1.71 -1.57,-6.83 -6.84,-6.72 -5.28,0.11 -5.88,4.99 -5.81,8.43 0.07,3.28 0.45,7.86 7,7.56 6.56,-0.28 5.68,-7.55 5.64,-9.27z"/>
   <path class="fil1" d="M32.77 54.18l0.01 -0.35c0,-3.96 -3.34,-7.17 -7.45,-7.17 -4.12,0 -7.45,3.21 -7.45,7.17 0,0.19 0.01,0.38 0.02,0.56 1.16,-0.15 2.42,-0.36 3.73,-0.69 5.1,-1.25 9.54,0.08 9.54,0.08 0,0 0.62,0.19 1.61,0.4z"/>
  </g>
 </g>
</svg>
