<?xml version="1.0" encoding="UTF-8"?>
<!DOCTYPE svg PUBLIC "-//W3C//DTD SVG 1.1//EN" "http://www.w3.org/Graphics/SVG/1.1/DTD/svg11.dtd">
<!-- Creator: CorelDRAW 2020 (64-Bit) -->
<svg xmlns="http://www.w3.org/2000/svg" xml:space="preserve" width="16.5435mm" height="15.3926mm" version="1.1" style="shape-rendering:geometricPrecision; text-rendering:geometricPrecision; image-rendering:optimizeQuality; fill-rule:evenodd; clip-rule:evenodd"
viewBox="0 0 86 80.01"
 xmlns:xlink="http://www.w3.org/1999/xlink"
 xmlns:xodm="http://www.corel.com/coreldraw/odm/2003">
 <defs>
  <style type="text/css">
   <![CDATA[
    .fil1 {fill:#FEFEFE}
    .fil2 {fill:#5997FF;fill-rule:nonzero}
    .fil0 {fill:#A8CFFF;fill-rule:nonzero}
   ]]>
  </style>
 </defs>
 <g id="图层_x0020_1">
  <metadata id="CorelCorpID_0Corel-Layer"/>
  <path class="fil0" d="M85.99 65.82l-85.99 0 0 -54.46 1.86 0 -1.86 0 0 -4.45 0 -0 -0 -0.18 0 -0.01c0,-3.7 3.02,-6.72 6.72,-6.72l2.77 0 28.88 0 2.14 0c6.28,0 11.37,5.09 11.37,11.37l-8.66 0 35.94 0c3.77,0 6.82,3.06 6.82,6.82l0 47.75 0 -0.11z"/>
  <path class="fil1" d="M10.54 22.35l64.9 0c2.58,0 4.69,2.11 4.69,4.69l0 0c0,2.58 -2.11,4.69 -4.69,4.69 -21.63,0 -43.26,0 -64.9,0 -2.58,0 -4.69,-2.11 -4.69,-4.69l0 -0c0,-2.58 2.11,-4.69 4.69,-4.69z"/>
  <path class="fil2" d="M85.99 73.03l0 -37.9c0,-3.13 -2.53,-5.67 -5.66,-5.68l-74.65 0c-3.14,0 -5.68,2.55 -5.68,5.68l0 37.88c0,3.87 3.13,7 7,7l71.99 0c1.86,0.01 3.64,-0.72 4.96,-2.03 1.32,-1.31 2.05,-3.09 2.05,-4.95z"/>
 </g>
</svg>
