<?xml version="1.0" encoding="UTF-8"?>
<!DOCTYPE svg PUBLIC "-//W3C//DTD SVG 1.1//EN" "http://www.w3.org/Graphics/SVG/1.1/DTD/svg11.dtd">
<!-- Creator: CorelDRAW 2020 (64-Bit) -->
<svg xmlns="http://www.w3.org/2000/svg" xml:space="preserve" width="13.7204mm" height="15.5657mm" version="1.1" style="shape-rendering:geometricPrecision; text-rendering:geometricPrecision; image-rendering:optimizeQuality; fill-rule:evenodd; clip-rule:evenodd"
viewBox="0 0 51.33 58.24"
 xmlns:xlink="http://www.w3.org/1999/xlink"
 xmlns:xodm="http://www.corel.com/coreldraw/odm/2003">
 <defs>
  <style type="text/css">
   <![CDATA[
    .fil0 {fill:#5997FF;fill-rule:nonzero}
    .fil1 {fill:#A8CFFF;fill-rule:nonzero}
   ]]>
  </style>
 </defs>
 <g id="图层_x0020_1">
  <metadata id="CorelCorpID_0Corel-Layer"/>
  <path class="fil0" d="M45.27 3.04c0,-0.02 -0,-0.04 -0,-0.05 -0.1,-0.01 -0.19,-0.03 -0.3,-0.03 -11.9,0 -26.86,0 -38.81,0 -0.05,0 -0.1,0.01 -0.15,0.01 0,0.02 -0,0.05 0,0.08 -3.34,0.21 -6.01,2.96 -6.01,6.33l0 42.49c0,3.51 2.88,6.37 6.42,6.37l38.5 0c3.54,0 6.42,-2.86 6.42,-6.37l0 -42.49c0,-3.39 -2.69,-6.15 -6.07,-6.34zm-5.03 23.14l-14.81 14.4c-0.91,0.89 -2.52,0.89 -3.44,0l-8.61 -8.36c-0.46,-0.44 -0.71,-1.04 -0.71,-1.67 0,-0.63 0.25,-1.22 0.71,-1.66 0.46,-0.44 1.07,-0.69 1.72,-0.69 0.65,0 1.26,0.25 1.72,0.69l6.88 6.69 13.09 -12.73c0.91,-0.89 2.52,-0.89 3.44,0 0.46,0.44 0.71,1.03 0.71,1.66 0,0.63 -0.25,1.22 -0.71,1.67z"/>
  <path class="fil1" d="M34.95 -0l-18.58 0c-2.04,0.03 -3.67,1.85 -3.67,4.1 0,2.27 1.65,4.11 3.71,4.11l18.61 0c1.96,0 3.61,-1.84 3.61,-4.11 0,-2.26 -1.63,-4.08 -3.68,-4.1z"/>
 </g>
</svg>
