<?xml version="1.0" encoding="UTF-8"?>
<!DOCTYPE svg PUBLIC "-//W3C//DTD SVG 1.1//EN" "http://www.w3.org/Graphics/SVG/1.1/DTD/svg11.dtd">
<!-- Creator: CorelDRAW 2019 (64-Bit) -->
<svg xmlns="http://www.w3.org/2000/svg" xml:space="preserve" width="400px" height="78px" version="1.1" style="shape-rendering:geometricPrecision; text-rendering:geometricPrecision; image-rendering:optimizeQuality; fill-rule:evenodd; clip-rule:evenodd"
viewBox="0 0 87.22 16.98"
 xmlns:xlink="http://www.w3.org/1999/xlink">
 <defs>
  <style type="text/css">
   <![CDATA[
    .fil0 {fill:#FEFEFE;fill-rule:nonzero}
   ]]>
  </style>
 </defs>
 <g id="图层_x0020_1">
  <metadata id="CorelCorpID_0Corel-Layer"/>
  <path class="fil0" d="M3.14 3.02l0 4.2 7.43 0 0 2.72 -7.43 0 0 6.79 -3.14 0 0 -16.43 11.73 0 0 2.72 -8.59 0zm11.06 12.16c-1.19,-1.19 -1.78,-2.99 -1.78,-5.4l0 -2.58c0,-2.41 0.6,-4.21 1.82,-5.4 1.22,-1.2 2.9,-1.8 5.03,-1.8 2.11,0 3.76,0.61 4.97,1.81 1.21,1.21 1.81,3.01 1.81,5.39l0 2.58c0,2.39 -0.61,4.18 -1.84,5.39 -1.24,1.21 -2.91,1.81 -5.03,1.81 -2.12,0 -3.78,-0.6 -4.98,-1.8zm8.74 -5.45l0 -2.34c0,-3.1 -1.22,-4.65 -3.67,-4.65 -1.25,0 -2.18,0.38 -2.8,1.14 -0.61,0.75 -0.92,1.92 -0.92,3.51l0 2.34c0,1.51 0.31,2.62 0.92,3.35 0.61,0.73 1.54,1.09 2.8,1.09 2.45,0 3.67,-1.48 3.67,-4.44zm9.35 -1.53l-5.48 -7.9 3.81 0 3.65 5.44 3.39 -5.44 3.76 0 -5.39 7.76 6 8.67 -3.84 0 -4.11 -6.16 -3.95 6.16 -3.77 0 5.93 -8.53zm11.04 6.98c-1.24,-1.2 -1.85,-3 -1.85,-5.4l0 -2.58c0,-2.41 0.62,-4.21 1.86,-5.4 1.24,-1.2 2.96,-1.8 5.16,-1.8 2.01,0 3.62,0.5 4.82,1.49 1.2,0.99 1.8,2.37 1.8,4.13l0 0.19 -3.12 0 0 -0.09c0,-0.92 -0.31,-1.64 -0.93,-2.17 -0.61,-0.54 -1.47,-0.81 -2.57,-0.81 -1.3,0 -2.28,0.38 -2.92,1.14 -0.64,0.76 -0.96,1.93 -0.96,3.51l0 2.34c0,1.51 0.32,2.62 0.97,3.35 0.65,0.73 1.63,1.09 2.93,1.09 1.1,0 1.96,-0.25 2.57,-0.76 0.61,-0.52 0.91,-1.22 0.91,-2.12l0 -0.14 3.1 0 0 0.14c0,1.82 -0.6,3.22 -1.79,4.2 -1.2,1 -2.81,1.49 -4.84,1.49 -2.19,0 -3.91,-0.6 -5.14,-1.8zm29.85 -14.88l0 16.43 -3.11 0 0 -10.39 -4.02 7.23 -2.09 0 -4.09 -7.32 0 10.48 -3.14 0 0 -16.43 3.14 0 5.13 9.41 5.07 -9.41 3.11 0zm7.45 16.57c-2,0 -3.55,-0.44 -4.64,-1.33 -1.09,-0.88 -1.7,-2.15 -1.82,-3.81l2.97 0c0.1,0.87 0.45,1.5 1.06,1.89 0.6,0.38 1.46,0.57 2.59,0.57 2.24,0 3.36,-0.73 3.37,-2.2 0,-0.66 -0.23,-1.15 -0.67,-1.49 -0.47,-0.35 -1.2,-0.57 -2.19,-0.67l-1.74 -0.21c-3.33,-0.42 -5,-1.95 -5,-4.6 0,-1.53 0.56,-2.74 1.67,-3.62 1.1,-0.89 2.62,-1.33 4.54,-1.33 1.86,0 3.31,0.42 4.35,1.27 1.05,0.85 1.64,2.06 1.78,3.63l-3.02 0c-0.06,-0.79 -0.35,-1.37 -0.86,-1.73 -0.52,-0.36 -1.29,-0.54 -2.33,-0.54 -1.02,0 -1.8,0.18 -2.33,0.54 -0.52,0.36 -0.78,0.87 -0.78,1.55 0,0.6 0.24,1.07 0.7,1.4 0.45,0.33 1.19,0.55 2.21,0.69l1.97 0.25c1.55,0.21 2.73,0.69 3.54,1.47 0.82,0.77 1.22,1.82 1.22,3.16 0,1.64 -0.58,2.9 -1.76,3.78 -1.18,0.89 -2.79,1.33 -4.83,1.33z"/>
 </g>
</svg>
