<?xml version="1.0" encoding="UTF-8"?>
<!DOCTYPE svg PUBLIC "-//W3C//DTD SVG 1.1//EN" "http://www.w3.org/Graphics/SVG/1.1/DTD/svg11.dtd">
<!-- Creator: CorelDRAW 2020 (64-Bit) -->
<svg xmlns="http://www.w3.org/2000/svg" xml:space="preserve" width="17.3477mm" height="15.4077mm" version="1.1" style="shape-rendering:geometricPrecision; text-rendering:geometricPrecision; image-rendering:optimizeQuality; fill-rule:evenodd; clip-rule:evenodd"
viewBox="0 0 128.61 114.23"
 xmlns:xlink="http://www.w3.org/1999/xlink"
 xmlns:xodm="http://www.corel.com/coreldraw/odm/2003">
 <defs>
  <style type="text/css">
   <![CDATA[
    .fil0 {fill:#5997FF;fill-rule:nonzero}
    .fil1 {fill:#A8CFFF;fill-rule:nonzero}
   ]]>
  </style>
 </defs>
 <g id="图层_x0020_1">
  <metadata id="CorelCorpID_0Corel-Layer"/>
  <path class="fil0" d="M124.6 0l-120.59 0c-2.22,0 -4.02,1.82 -4.02,4.08 0,2.26 1.8,4.09 4.02,4.09l4.02 0 0 73.47c0,4.51 3.6,8.16 8.04,8.16 42.1,0 54.37,0 96.47,0 4.43,0 8.04,-3.65 8.04,-8.16l0 -73.47 4.02 0c2.21,0 4.02,-1.83 4.02,-4.09 0,-2.25 -1.8,-4.08 -4.02,-4.08zm-98.94 56.65l17.56 -21.48 0.09 -0.11 0.01 -0.01 0.01 -0.01 0.09 -0.13 0 0c2.19,-2.89 6.36,-3.43 9.23,-1.25l17.3 13.17 22.77 -25.58c2.41,-2.71 6.46,-3.23 9.26,-0.93l0 0c2.81,2.29 3.32,6.58 0.93,9.26l-27.01 30.35c-2.39,2.69 -6.46,3.23 -9.26,0.93l0 0 -0.14 -0.12 -16.75 -12.75 -13.89 16.99c-2.29,2.8 -6.46,3.23 -9.26,0.93l0 0c-2.81,-2.29 -3.22,-6.46 -0.93,-9.26z"/>
  <path class="fil1" d="M50.74 89.8l-9.95 18.61c-1.24,1.85 -0.51,4.22 1.63,5.3 2.14,1.06 4.87,0.44 6.11,-1.43l11.16 -20.88c0.34,-0.51 0.49,-1.05 0.54,-1.6l-9.49 0zm17.65 0c0.04,0.55 0.2,1.09 0.53,1.6l11.16 20.88c1.24,1.86 3.97,2.49 6.11,1.43 2.14,-1.08 2.86,-3.45 1.63,-5.3l-9.95 -18.61 -9.49 0z"/>
 </g>
</svg>
