<?xml version="1.0" encoding="UTF-8"?>
<!DOCTYPE svg PUBLIC "-//W3C//DTD SVG 1.1//EN" "http://www.w3.org/Graphics/SVG/1.1/DTD/svg11.dtd">
<!-- Creator: CorelDRAW 2020 (64-Bit) -->
<svg xmlns="http://www.w3.org/2000/svg" xml:space="preserve" width="13.2695mm" height="15.3696mm" version="1.1" style="shape-rendering:geometricPrecision; text-rendering:geometricPrecision; image-rendering:optimizeQuality; fill-rule:evenodd; clip-rule:evenodd"
viewBox="0 0 63.79 73.89"
 xmlns:xlink="http://www.w3.org/1999/xlink"
 xmlns:xodm="http://www.corel.com/coreldraw/odm/2003">
 <defs>
  <style type="text/css">
   <![CDATA[
    .fil0 {fill:#5997FF}
    .fil1 {fill:#A8CFFF;fill-rule:nonzero}
   ]]>
  </style>
 </defs>
 <g id="图层_x0020_1">
  <metadata id="CorelCorpID_0Corel-Layer"/>
  <g id="_1528334886400">
   <path class="fil0" d="M7.65 -0l36.51 0 19.62 19.63 0 46.61c0,4.21 -3.44,7.65 -7.65,7.65l-48.49 0c-4.21,0 -7.65,-3.44 -7.65,-7.65l0 -58.58c0,-4.21 3.44,-7.65 7.65,-7.65zm15.86 30.04c-0.16,0.78 -0.6,1.52 -1.26,1.98l-7.09 4.82 7.08 4.86c0.67,0.47 1.11,1.19 1.27,1.98 0.15,0.75 0.07,1.59 -0.3,2.31l-0.26 0.43c-0.4,0.56 -0.96,0.94 -1.58,1.11 -0.63,0.17 -1.32,0.12 -1.93,-0.18 -2.67,-1.42 -9.07,-5.91 -11.45,-7.81 -0.25,-0.18 -0.48,-0.41 -0.66,-0.65 -0.43,-0.59 -0.65,-1.33 -0.64,-2.04 0,-0.71 0.23,-1.44 0.64,-2.02 0.18,-0.25 0.4,-0.48 0.64,-0.66 2.48,-1.99 8.66,-6.27 11.47,-7.81 0.61,-0.3 1.3,-0.35 1.93,-0.17 0.61,0.17 1.17,0.56 1.57,1.13l0.24 0.4c0.39,0.71 0.48,1.56 0.31,2.33zm12.62 -8.92l0.2 0.08c0.71,0.35 1.25,0.99 1.54,1.72 0.26,0.67 0.31,1.46 0.09,2.2 -1.62,7.23 -3.57,19.56 -5.88,26 -0.31,0.69 -0.84,1.23 -1.44,1.52 -0.65,0.32 -1.41,0.39 -2.15,0.13l-0.23 -0.1c-0.75,-0.34 -1.3,-0.99 -1.58,-1.75 -0.27,-0.71 -0.3,-1.54 -0.05,-2.29 0.88,-3.92 4.74,-23.83 5.83,-25.85 0.3,-0.7 0.83,-1.24 1.45,-1.55 0.67,-0.33 1.43,-0.4 2.18,-0.14l0.05 0.02zm4.11 9.19c-0.17,-0.77 -0.07,-1.63 0.32,-2.34l0.24 -0.38c0.41,-0.58 0.98,-0.97 1.59,-1.14 0.64,-0.18 1.33,-0.12 1.96,0.19 3.48,1.93 7.92,5.4 11.34,7.75 0.34,0.23 0.62,0.52 0.83,0.84 0.37,0.55 0.56,1.22 0.56,1.88 0.01,0.66 -0.18,1.33 -0.58,1.9 -0.22,0.32 -0.5,0.6 -0.83,0.82 -3.49,2.4 -7.77,5.73 -11.33,7.77 -0.62,0.32 -1.32,0.38 -1.96,0.21 -0.61,-0.17 -1.19,-0.56 -1.6,-1.14l-0.24 -0.4c-0.38,-0.73 -0.47,-1.57 -0.32,-2.31 0.17,-0.8 0.61,-1.52 1.29,-1.98l7.08 -4.86 -7.07 -4.81c-0.68,-0.47 -1.12,-1.2 -1.28,-1.98z"/>
   <path class="fil1" d="M63.79 19.63l-14.72 0c-2.72,0 -4.91,-2.19 -4.91,-4.91l0 -14.72 19.63 19.63z"/>
  </g>
 </g>
</svg>
