<?xml version="1.0" encoding="UTF-8"?>
<!DOCTYPE svg PUBLIC "-//W3C//DTD SVG 1.1//EN" "http://www.w3.org/Graphics/SVG/1.1/DTD/svg11.dtd">
<!-- Creator: CorelDRAW 2020 (64-Bit) -->
<svg xmlns="http://www.w3.org/2000/svg" xml:space="preserve" width="16.7231mm" height="15.5276mm" version="1.1" style="shape-rendering:geometricPrecision; text-rendering:geometricPrecision; image-rendering:optimizeQuality; fill-rule:evenodd; clip-rule:evenodd"
viewBox="0 0 67.98 63.12"
 xmlns:xlink="http://www.w3.org/1999/xlink"
 xmlns:xodm="http://www.corel.com/coreldraw/odm/2003">
 <defs>
  <style type="text/css">
   <![CDATA[
    .fil0 {fill:#FFFFFF;fill-rule:nonzero}
    .fil1 {fill:#A8CFFF;fill-rule:nonzero}
   ]]>
  </style>
 </defs>
 <g id="图层_x0020_1">
  <metadata id="CorelCorpID_0Corel-Layer"/>
  <path class="fil0" d="M58.27 -0l-48.56 0c-5.36,0 -9.71,4.35 -9.71,9.71l0 36.42c0,5.36 4.35,9.71 9.71,9.71l48.56 0c5.36,0 9.71,-4.35 9.71,-9.71l0 -36.42c0,-5.36 -4.35,-9.71 -9.71,-9.71zm4.86 46.13c0,2.68 -2.18,4.86 -4.86,4.86l-48.56 0c-2.68,0 -4.86,-2.18 -4.86,-4.86l0 -36.42c0,-2.68 2.18,-4.86 4.86,-4.86l48.56 0c2.68,0 4.86,2.18 4.86,4.86l0 36.42zm-12.14 12.14l-33.99 0c-1.34,0 -2.43,1.09 -2.43,2.43 0,1.34 1.09,2.43 2.43,2.43l33.99 0c1.34,0 2.43,-1.09 2.43,-2.43 0,-1.34 -1.09,-2.43 -2.43,-2.43z"/>
  <path class="fil1" d="M47.73 14.67l-13.34 -4.89c-0.26,-0.09 -0.54,-0.09 -0.8,0l-13.34 4.89c-0.49,0.18 -0.83,0.68 -0.83,1.23l0 15.08c0.37,8.85 13.57,14.27 14.13,14.5 0.14,0.06 0.29,0.08 0.44,0.09 0.15,0 0.29,-0.03 0.44,-0.09 0.56,-0.23 13.76,-5.65 14.13,-14.56l0 -15.02c0,-0.56 -0.33,-1.05 -0.82,-1.23zm-3.56 9.49l-10.3 10.3c-0.47,0.47 -1.1,0.71 -1.72,0.71 -0.62,0 -1.24,-0.24 -1.72,-0.71l-6.87 -6.87c-0.95,-0.95 -0.95,-2.49 0,-3.43 0.95,-0.95 2.48,-0.95 3.43,0l5.15 5.15 8.59 -8.59c0.95,-0.95 2.48,-0.95 3.43,0 0.95,0.95 0.95,2.49 0,3.44z"/>
 </g>
</svg>
