<?xml version="1.0" encoding="UTF-8"?>
<!DOCTYPE svg PUBLIC "-//W3C//DTD SVG 1.1//EN" "http://www.w3.org/Graphics/SVG/1.1/DTD/svg11.dtd">
<!-- Creator: CorelDRAW 2019 (64-Bit) -->
<svg xmlns="http://www.w3.org/2000/svg" xml:space="preserve" width="334px" height="326px" version="1.1" style="shape-rendering:geometricPrecision; text-rendering:geometricPrecision; image-rendering:optimizeQuality; fill-rule:evenodd; clip-rule:evenodd"
viewBox="0 0 44.31 43.24"
 xmlns:xlink="http://www.w3.org/1999/xlink">
 <defs>
  <style type="text/css">
   <![CDATA[
    .fil0 {fill:#FEFEFE}
    .fil1 {fill:#332C2B}
   ]]>
  </style>
 </defs>
 <g id="图层_x0020_1">
  <metadata id="CorelCorpID_0Corel-Layer"/>
  <path class="fil0" d="M9.61 14.29c-1.3,-2.75 -3.32,-4.33 -4.98,-6.13l-3.16 -1.65c0,0 -0.59,0.38 -0.83,1.19 -0.25,0.82 -0.4,3.01 -0.43,4.15 -0.04,1.14 1.03,4.57 1.03,4.57 0,0 0.93,2.6 2.47,4.21 1.54,1.62 3.18,2.56 3.18,2.56l0.45 0.14 0.07 0.3c0,0 -0.22,2.05 -0.37,2.61 -0.15,0.56 -0.94,2.04 -1.11,2.18 -0.17,0.15 -0.8,0.6 -0.69,0.8 0.1,0.2 0.93,0.33 0.93,0.33l1.85 0.07 -1.48 1.19 -1.34 0.6 0.22 0.52c0,0 2.19,1.7 3.01,2.27 0.82,0.57 3.69,1.49 4.31,1.73 0.62,0.24 5.5,1.02 5.5,1.02l0.05 0.29 -0.43 0.73 -0.43 0.14 -0.62 0.28 -1.51 0.49 -0.6 0.13 -0.25 -0.25 -0.43 -0.1c0,0 -0.59,-0.06 -0.64,-0.03 -0.06,0.03 -0.3,0.43 -0.3,0.43 0,0 -0.1,-0.18 -0.23,-0.4 -0.13,-0.23 -0.68,-0.54 -0.83,-0.55 -0.15,-0.02 -0.38,0.17 -0.38,0.17l0.01 0.25 0.1 0.38c0,0 -0.77,0.08 -0.94,0.11 -0.17,0.04 -0.46,0.4 -0.64,0.6 -0.19,0.21 -0.29,0.85 -0.3,1.17 0,0.32 0.2,0.39 0.35,0.85 0.15,0.46 0.72,0.67 1.05,0.86 0.33,0.18 1.91,0.04 1.91,0.04l0.89 -0.25 0.91 -0.58 1.54 -0.49 1.39 -0.53 -0.01 0.53 0.12 0 0.06 0.82 1.2 0.24 2.02 0.25c0,0 1.79,0.05 3.39,-0.07 1.59,-0.11 4.07,-0.89 4.07,-0.89l1.46 -0.54 0.06 -0.1 -0.37 -1.96 -0.08 -1.07 0.51 -2.95 0.88 -0.47c-0.1,0.19 -0.19,0.39 -0.29,0.59 -0.22,1.78 -0.25,2.91 0.36,3.28l0.27 0.19 0.21 -0.33c-0.21,-0.16 -0.5,-0.49 -0.61,-1.09 -0.17,-0.97 -0.02,-1.9 0.14,-2.16 0.16,-0.26 0.49,-0.86 0.66,-0.85 0.15,0.01 0.19,-0.31 0.37,-0.55 0,0 3.19,-2.02 3.35,-2.16 0.15,-0.13 2.21,-2.12 2.21,-2.12 0,0 0,0 1.14,-1.27 1.14,-1.28 1.5,-2.87 1.5,-2.87l-0.21 0c0,0 -0.32,-0.01 -0.96,0.05 -0.65,0.06 -1.14,-0.02 -1.59,-0.15 -0.46,-0.14 -1.35,-0.79 -1.35,-0.79 0,0 1.64,-0.38 1.94,-0.55 0.3,-0.17 1.3,-1.05 1.3,-1.05l-0.11 -0.31c0,0 -0.7,-0.31 -1.2,-0.62 -0.49,-0.31 -1.5,-1.41 -1.84,-1.91 -0.35,-0.5 -1.01,-1.66 -1.01,-1.66 0,0 1.12,-1.36 1.5,-1.97 0.38,-0.6 1.23,-2.17 1.48,-4.47 0.26,-2.29 -0.13,-4.45 -0.62,-6.57 -0.48,-2.13 -2.5,-4.7 -2.5,-4.7l-0.33 -0.13 -0.19 0.01c0,0 -1.85,1.4 -2.84,3.88 -0.28,0.72 -1.51,3.54 -1.78,5.52 -0.03,0.23 -0.37,1.04 0.28,1.51 1.04,0.74 2.1,1.59 3.24,3.43 0.66,1.06 1.1,2.03 1.1,2.03 -7.47,-8.07 -14.13,1.38 -12.05,7.89 0.08,0.25 -1.2,0.44 -1.41,0.45 -0.52,-1.93 -0.9,-3.12 -1.78,-4.85 -3.51,-6.13 -8.98,-4.46 -11.61,0.19 -0.07,-1.67 1.11,-4.47 1.62,-6.08zm22.68 23.13c0.09,0.01 0.44,0.07 0.94,0.26 0.59,0.23 1.7,0.14 2.42,0.19 0.72,0.05 1.81,-0.38 1.81,-0.38 0,0 0.07,-0.11 -0.48,-0.68 -0.55,-0.56 -0.27,-3.59 -0.27,-3.59 0,0 -1.42,0.7 -1.84,0.96 -0.43,0.26 -1.97,0.5 -1.97,0.5l-0.27 -0.03 -0.34 2.77zm6.39 -4.73c0.68,-1.06 0.78,-1.55 1.89,-2.02l0.05 -0.34 -0.26 0.03c0,0 0.8,-1.56 1.18,-1.82 0.38,-0.27 1.14,-0.68 1.4,-0.66 0.26,0.02 0.88,0.36 0.96,0.59 0.09,0.22 -0.01,0.73 -0.02,0.99 -0.02,0.26 -0.53,1.23 -0.53,1.23l-0.13 0.15c0,0 -0.01,0.1 0.03,0.27 0.04,0.16 0.14,0.39 0.19,0.5 0.1,0.23 0.45,0.71 0.59,1.71 0.13,0.99 -0.16,2.08 -0.41,2.63 -0.6,1.32 -2.83,2.02 -3.86,1.07 -0.48,-0.45 -1.14,-1.11 -1.24,-1.9 -0.12,-0.94 -0.11,-1.54 0.16,-2.43z"/>
  <g>
   <path class="fil1" d="M22.99 41.14l-0.05 0.02 -0.04 0.02 0 0 -0.07 0.02 -0.01 0.01 0.01 -0.01 0.07 -0.02 0 0 0.04 -0.02 0.05 -0.02 0.01 0 -0.01 0 0.01 0 -0.01 0zm0 0l-0.05 0.02 -0.04 0.02 0 0 -0.07 0.02 -0.01 0.01 0.17 -0.07zm-15.04 -35.28c0.89,0.21 2.15,0.78 2.95,1.26 0.89,0.53 1.15,0.77 1.85,1.33 0.12,0.1 0.15,0.14 0.27,0.25 0.12,0.11 0.18,0.11 0.28,0.26l0.36 -0.27c2.22,-1.66 4.45,-2.42 7.43,-2.42 1.07,0 1.84,0.09 2.83,0.28 0.2,0.04 0.73,0.13 0.87,0.2 0.71,-1.34 0.67,-1.37 1.61,-2.63 0.5,-0.68 1.16,-1.31 1.79,-1.87l1.15 -0.78c-0.24,-0.06 -0.61,-0.19 -0.83,-0.26 -1.61,-0.51 -3.98,-0.89 -5.68,-0.89 -2.63,0 -3.86,0.15 -6.28,0.78 -1.93,0.51 -3.75,1.38 -5.46,2.4 -0.79,0.46 -1.93,1.29 -2.65,1.93 -0.13,0.11 -0.41,0.31 -0.49,0.43zm3.37 32.96l0 0 -0.02 0 -0.01 0 -0.01 0 -0.01 0.01 -0.01 0 -0.01 0 -0.02 0 0 0 -0.01 0.01 -0.02 0 0 0 -0.02 0 0 0 -0.01 0 -0.02 0.01 0 0 -0.01 0 -0.02 0 0 0 -0.02 0.01 -0.04 0.01 -0.02 0 0 0 -0.01 0c-0.36,0.1 -0.64,0.28 -0.83,0.54l0 0c-0.36,0.5 -0.48,1.02 -0.36,1.57l0 0c0.11,0.54 0.39,0.97 0.82,1.29l0 0c0.43,0.31 1.02,0.46 1.79,0.44l0 0c0.4,-0.01 0.75,-0.06 1.07,-0.17l0 0c0.03,-0.01 0.06,-0.02 0.09,-0.03l0 0c0.21,-0.08 0.38,-0.17 0.55,-0.28l0 0c0.01,-0.11 0.01,-0.16 0,-0.27 -0.24,0.14 -0.62,0.32 -0.77,0.38l0 0c-0.03,0.01 -0.06,0.02 -0.08,0.03l0 0c-0.28,0.09 -0.6,0.14 -0.96,0.15l0 0c-0.68,0.01 -1.21,-0.12 -1.6,-0.4l0 0c-0.38,-0.28 -0.63,-0.66 -0.73,-1.15l0 0c-0.11,-0.49 0,-0.96 0.32,-1.4l0 0c0.17,-0.24 0.42,-0.4 0.74,-0.48l0.01 -0.01 0.01 0 0.01 0 0.04 -0.01 0.01 0 0.01 0 0.01 0 0.01 -0.01 0 0 0.02 0 0.01 0 0 0 0.01 -0.01 0.01 0 0.01 0 0.02 0 0 0 0.01 0 0.01 0 0 0 0.02 -0.01 0.01 0 0 0 0.02 0 0 0c0.18,-0.02 0.39,-0.03 0.6,-0.01l0.01 0 0.04 0c-0.24,-0.33 -0.52,-0.84 -0.02,-0.84l0 0c0.01,0 0.02,0 0.04,0.01l0 0c0.14,0 0.3,0.07 0.47,0.19l0 0c0.17,0.12 0.26,0.27 0.36,0.44l0 0c0.02,0.02 0.11,0.23 0.19,0.38l0.08 -0.01 0.03 0 0.57 -0.13c-0.03,-0.04 -0.06,-0.08 -0.09,-0.12l0 0 -0.29 0.05 -0.03 0c-0.01,-0.03 -0.01,-0.08 0,-0.12l0 0c0.01,-0.09 0.05,-0.13 0.1,-0.14l0 0c0.08,0.03 0.16,0.07 0.23,0.15l0 0c0.08,0.09 0.15,0.22 0.22,0.4l0 0c0.21,0.55 0.34,1.51 0.39,2.87l0 0c-0.02,0.22 -0.3,0.28 -0.43,0.35 -0.07,0.03 -0.18,0.06 -0.18,0.06 0.23,0.2 0.29,0.21 0.65,0.2l0 0c0.37,-0.02 0.65,-0.18 0.85,-0.48l0 0c0.13,-0.2 0.22,-0.4 0.27,-0.62l0.34 -0.1c0.55,-0.16 1.28,-0.45 1.82,-0.68l0 0 0 -0.03 0.06 0.22 0 0c0.07,0.16 0.13,0.15 0.28,0.15l0.02 0c-0.09,-1.13 0.81,-2.98 1.27,-4.05l0.17 0c-1.12,2.22 -1.49,3.51 -1.28,4.86 0.46,0.09 0.87,0.18 1.29,0.26 -0.03,-0.01 -0.06,-0.02 -0.09,-0.02 0,-0.01 0,-0.02 0,-0.03l0 0c0.01,-1.37 0.68,-3.08 2.03,-5.11l0.28 -0.02c-1.37,2.03 -2.07,3.8 -2.1,5.16l0 0c0.01,0.01 0.03,0.03 0.04,0.05 0.52,0.09 1.08,0.16 1.77,0.2 0.31,-0.58 0.85,-1.05 1.52,-1.32l0.01 -0.01 0.07 -0.02 0 0 0.04 -0.02 0.05 -0.02 0.01 0c0.38,-0.13 0.79,-0.21 1.22,-0.21 1.08,0 2.03,0.46 2.61,1.17l0.01 -0.01 0.06 -0.01 0.01 0c1.04,-0.24 2.11,-0.56 3.1,-0.97 -0.02,-0.18 -0.06,-0.33 -0.07,-0.37l0 0c-0.01,-0.01 -0.01,-0.01 -0.01,-0.01l0 0c-0.52,-2.01 -0.49,-3.62 -0.04,-5.62l0.25 -0.11c-0.48,2.03 -0.52,3.63 0,5.65l0 0c0.02,0.04 0.06,0.19 0.08,0.38 0.43,-0.18 0.84,-0.37 1.23,-0.58 0,-0.64 0.08,-1.28 0.11,-1.91l0 0c0.01,-0.03 0.01,-0.05 0.01,-0.08 -0.06,-0.03 -0.12,-0.06 -0.18,-0.1 -0.35,-0.22 -0.56,-0.69 -0.58,-1.34 0.04,-1.23 0.13,-2.1 0.45,-2.54l0.09 -0.04 0.22 -0.12c-0.5,0.36 -0.57,1.17 -0.62,2.71 0.02,0.64 0.2,1.07 0.55,1.3l0 0c0.2,0.12 0.41,0.19 0.62,0.2 0.17,-0.01 0.35,-0.06 0.53,-0.15l0 0 0 0c0.12,-0.06 0.18,-0.11 0.23,-0.19l0 0 0 0c0,-0.02 0.01,-0.03 0.02,-0.04l0 -0.01 0 0c0.04,-0.09 0.07,-0.22 0.09,-0.33 1.35,0.25 3,0.23 4.32,-0.03 0.39,0.55 0.83,0.83 1.31,0.83 0.26,0 0.5,-0.08 0.72,-0.25l0 0c0.23,-0.17 0.43,-0.43 0.61,-0.78l0 0c-0.19,-0.03 -0.37,-0.09 -0.54,-0.19l0 0c-0.26,-0.16 -0.5,-0.4 -0.72,-0.72l0 0c-0.43,-0.62 -0.66,-1.36 -0.7,-2.23l0 0c-0.01,-0.12 -0.01,-0.23 -0.01,-0.34l0 0c0,-0.73 0.15,-1.37 0.46,-1.9l0 0c0.15,-0.28 0.33,-0.5 0.54,-0.65l0 0c-0.23,-0.16 -0.47,-0.23 -0.72,-0.23l0 0c0,0 -0.01,0 -0.01,0l0 0c-0.54,0 -0.99,0.35 -1.35,1.06l0 0c-0.08,0.18 -0.16,0.38 -0.23,0.58l0 0 -0.04 0.13 0.01 -0.03c-1.17,0.82 -2.73,1.43 -3.7,1.47l0.04 -0.24 0 0c0,0 0,-0.01 0,-0.01l0 0c-0.18,-0.18 -0.46,-0.33 -0.68,-0.34 0.22,-0.13 0.45,-0.26 0.66,-0.39l0.28 -0.18c0.29,-0.16 0.68,-0.41 0.95,-0.61 0.39,-0.28 0.79,-0.53 1.16,-0.83l0.37 -0.29c0.03,-0.02 0.04,-0.03 0.06,-0.05 0.26,-0.21 0.53,-0.42 0.78,-0.65 0.04,-0.03 0.08,-0.06 0.12,-0.1l0.34 -0.31c0.23,-0.21 0.45,-0.42 0.66,-0.64 0.08,-0.08 0.14,-0.14 0.22,-0.22 0.03,-0.04 0.06,-0.07 0.1,-0.11l0.31 -0.34c0.03,-0.04 0.06,-0.06 0.1,-0.11l0.48 -0.57c0.02,-0.03 0.03,-0.03 0.05,-0.05 0.19,-0.24 0.36,-0.49 0.55,-0.73l0.13 -0.18c0.05,-0.08 0.13,-0.17 0.17,-0.25l0.12 -0.18c0.37,-0.58 0.72,-1.17 1.01,-1.79 0.02,-0.05 0.04,-0.1 0.06,-0.15 0.05,-0.09 0.08,-0.21 0.07,-0.32l-0.01 -0.05c-0.02,-0.08 -0.06,-0.15 -0.14,-0.18 -0.11,-0.05 -0.22,-0.05 -0.33,-0.03 -0.06,0.01 -0.27,0.14 -0.44,0.19 -0.24,0.06 -0.69,0.14 -0.94,0.14 -0.22,0.01 -0.44,0.02 -0.64,-0.01 -0.08,-0.01 -0.15,-0.01 -0.23,-0.03 -0.36,-0.05 -0.71,-0.18 -1.02,-0.37 -0.09,-0.05 -0.28,-0.17 -0.34,-0.23 0.67,-0.12 1.21,-0.3 1.77,-0.61 0.4,-0.22 0.77,-0.54 1.07,-0.87 0.16,-0.18 0.33,-0.38 0.08,-0.56 -0.1,-0.07 -0.19,-0.12 -0.3,-0.16 -0.11,-0.04 -0.22,-0.1 -0.32,-0.15l-0.69 -0.39 -0.64 -0.47c-0.04,-0.02 -0.05,-0.04 -0.09,-0.07l-0.89 -0.89c-0.37,-0.44 -0.61,-0.82 -0.9,-1.3l0 0.01c-0.12,-0.21 -0.23,-0.43 -0.34,-0.65 2.46,-2.55 3.51,-5.75 3.16,-9.59 -0.36,-3.78 -1.51,-6.55 -3.47,-8.31 -0.12,-0.11 -0.24,-0.21 -0.36,-0.31 -4.82,0.93 -8.16,3.44 -10.02,7.53l-0.01 0c-3.23,-0.86 -6.12,-0.73 -8.68,0.38 -1.05,0.45 -2.06,1.06 -3.01,1.84 -3.29,-3.15 -7.36,-4.25 -12.22,-3.29 -0.07,0.15 -0.15,0.29 -0.22,0.43 -1.15,2.37 -1.17,5.37 -0.07,9 1.11,3.66 3.26,6.21 6.44,7.66l0.01 0.77 0.03 -0.17c-0.06,0.4 -0.14,0.81 -0.2,1.07 -0.01,0.05 -0.01,0.06 -0.02,0.11 -0.08,0.3 -0.15,0.61 -0.25,0.91l-0.19 0.48c-0.05,0.14 -0.1,0.24 -0.16,0.37l-0.27 0.53c-0.22,0.38 -0.52,0.79 -0.88,1.06 -0.13,0.09 -0.22,0.15 -0.37,0.22 -0.1,0.05 -0.28,0.12 -0.25,0.32 0.04,0.24 0.33,0.35 0.53,0.4 0.18,0.05 0.35,0.08 0.54,0.1 0.46,0.05 0.93,0.07 1.4,0.05 0.14,0 0.28,0.01 0.43,-0.02 -0.02,0.05 -0.18,0.18 -0.23,0.22l-0.26 0.21c-0.47,0.34 -0.93,0.7 -1.49,0.89 -0.37,0.12 -0.39,0.1 -0.73,0.15 -0.07,0.01 -0.1,0.02 -0.14,0.05 -0.05,0.03 -0.07,0.06 -0.07,0.1l0.01 0.08c0.03,0.09 0.12,0.19 0.17,0.23 0.07,0.07 0.14,0.14 0.21,0.22 0.27,0.26 0.87,0.84 1.2,1.07l0.33 0.27c0.08,0.05 0.18,0.11 0.24,0.17l1.86 1.16c0.39,0.21 0.78,0.41 1.18,0.59 0.45,0.21 0.92,0.4 1.39,0.56 0.03,0.01 0.04,0.02 0.07,0.03l1.39 0.45c0.23,0.05 0.62,0.17 0.89,0.24l0.92 0.21c0.41,0.09 0.85,0.16 1.26,0.23 0.69,0.12 1.39,0.19 2.08,0.24l-0.23 0.18 -0.05 0.23c-0.05,0.2 -0.13,0.43 -0.18,0.67l0.01 -0.09c-0.69,0.29 -1.63,0.6 -2.38,0.76 -0.02,-0.02 -0.03,-0.04 -0.04,-0.06l0 0c-0.04,-0.09 -0.08,-0.14 -0.11,-0.17l0 0c-0.21,-0.25 -0.48,-0.37 -0.82,-0.37l0 0 0 0 -0.01 0 0 0c-0.02,0 -0.05,0 -0.07,0l0 0c-0.48,0.02 -0.77,0.23 -0.88,0.64l-0.04 -0.07 0 0c-0.14,-0.22 -0.31,-0.4 -0.53,-0.56l0 0c-0.22,-0.16 -0.42,-0.24 -0.61,-0.25l0 0c-0.01,0 -0.03,0 -0.05,0l0 0c-0.18,0 -0.29,0.07 -0.34,0.21l0 0c-0.01,0.02 -0.02,0.04 -0.02,0.07l0 0c0,0.02 0,0.05 0,0.08l0 0c0,0.12 0.04,0.25 0.12,0.41 -0.12,0 -0.23,0.01 -0.33,0.02zm21.57 -0.95c-0.02,0.01 -0.2,-0.04 -0.25,-0.09l0 -0.07 0.31 0.09 -0.06 0.07zm-25.63 -14.71c0.07,-3.44 0.77,-6.34 2.09,-8.69 -0.67,-1.4 -1.66,-2.79 -2.98,-4.16 -2.19,-2.28 -3.92,-3.43 -5.19,-3.44 -1.06,2.34 -1.06,5.28 0.02,8.82 1.06,3.51 3.08,6 6.06,7.47zm23.16 -12.56c0.42,0.33 0.83,0.68 1.2,1.04 1.64,1.56 2.87,3.45 3.7,5.64l0.25 0.62c2.2,-2.49 3.13,-5.55 2.79,-9.2 -0.34,-3.73 -1.47,-6.48 -3.38,-8.24l-0.05 0.03 -0.06 0.03 0 0 -0.05 0.03 -0.01 0.01 -0.04 0.02 -0.02 0.02 -0.03 0.01 -0.03 0.02 -0.03 0.02 -0.03 0.02 -0.02 0.02 -0.04 0.03 -0.01 0.01 -0.05 0.03 0 0 -0.06 0.05 0 0 -0.05 0.04 -0.01 0.01 -0.04 0.04 -0.05 0.04 -0.03 0.02 -0.12 0.12 -0.01 0.01 -0.04 0.05 -0.02 0.01 -0.04 0.05 -0.01 0 -0.05 0.06 -0.06 0.06 0 0.01 -0.05 0.05 -0.01 0.02 -0.04 0.04 -0.02 0.03 -0.03 0.03 -0.03 0.04 -0.03 0.03 -0.03 0.04 -0.02 0.03 -0.04 0.05 -0.01 0.02 -0.05 0.06 0 0.01 -0.06 0.07 -0.05 0.07 -0.01 0.01 -0.04 0.07 -0.02 0.02 -0.03 0.05 -0.02 0.03 -0.04 0.05 -0.02 0.04 -0.03 0.04 -0.03 0.05 -0.02 0.03 -0.04 0.07 -0.01 0.02 -0.05 0.07 -0.01 0.01 -0.05 0.09 0 0 -0.05 0.09 -0.01 0.01 -0.05 0.08 -0.01 0.02 -0.04 0.07 -0.02 0.03 -0.03 0.06 -0.03 0.05 -0.02 0.05 -0.04 0.06 -0.02 0.03 -0.04 0.08 -0.01 0.02 -0.05 0.09 0 0.01 -0.01 0.03 -0.1 0.18 0 0.01 -0.05 0.09 -0.01 0.03 -0.04 0.08 -0.02 0.04 -0.03 0.07 -0.03 0.05 -0.03 0.06 -0.03 0.07 -0.02 0.04 -0.04 0.08 -0.01 0.03 -0.05 0.1 0 0.02 -0.06 0.11 -0.05 0.12 -0.01 0.02 -0.04 0.1 -0.02 0.03 -0.03 0.09 -0.02 0.05 -0.04 0.08 -0.03 0.06 -0.02 0.06 -0.03 0.08 -0.02 0.05 -0.04 0.1 -0.02 0.03 -0.04 0.11 -0.01 0.02 -0.05 0.13c-0.72,1.8 -1.11,3.49 -1.19,5.06zm3.72 5.76c-1.13,-1.24 -2.25,-2.06 -3.38,-2.45l-0.08 -0.03c-0.58,-0.2 -1.15,-0.28 -1.72,-0.25 -1.13,0.05 -2.25,0.53 -3.37,1.43l0 0.01 -0.01 0 -0.05 0.04 0.06 -0.05 -0.01 0.01 -0.39 0.34c-2.45,2.56 -3.12,5.8 -2.04,9.73 0.45,0.02 0.85,0.14 1.2,0.36l0 0c0.5,0.31 0.74,0.71 0.74,1.22l0 0c0,0.49 -0.25,0.94 -0.74,1.35l0 0c-0.49,0.4 -1.09,0.63 -1.78,0.71l0 0c-0.7,0.07 -1.3,-0.04 -1.79,-0.35l0 0c-0.48,-0.3 -0.73,-0.69 -0.74,-1.16l0 -0.01 0 0 0 0 0 0 0 0 0 -0.01 0 0 0 0 0 0 0 0 0 0 0 0 0 0 0 0 0 -0.01 0 0 0 0 0 0 0 0 0 -0.01 0 0 0 0 0 0c0,-0.51 0.25,-0.96 0.74,-1.37l0 0c0.16,-0.13 0.33,-0.25 0.51,-0.34 -0.76,-4.35 -2.62,-7.28 -5.56,-8.81 -1.55,-0.65 -3.04,-0.49 -4.48,0.49l-0.16 0.11c-1.39,0.97 -2.44,2.45 -3.15,4.44 -0.03,0.25 -0.06,0.5 -0.09,0.73 -0.02,0.09 -0.02,0.17 -0.04,0.25 -0.01,0.09 -0.02,0.16 -0.03,0.25 -0.01,0.08 -0.02,0.16 -0.03,0.25 -0.04,0.33 -0.08,0.66 -0.13,0.98 -0.08,0.48 -0.13,0.97 -0.24,1.45 -0.04,0.16 -0.07,0.3 -0.11,0.46 -0.07,0.3 -0.18,0.59 -0.3,0.87 -0.02,0.04 -0.03,0.06 -0.05,0.1 -0.11,0.23 -0.24,0.46 -0.35,0.69 -0.61,1.13 -0.91,0.96 -1.05,1.14 -0.04,0.06 -0.06,0.15 -0.03,0.23 0.1,0.22 0.6,0.26 0.88,0.28 0.26,0.02 1.91,0.02 2.16,-0.02l0.01 0.02c-0.04,0.02 -0.06,0.04 -0.09,0.07 -0.5,0.44 -0.99,0.9 -1.53,1.29 -0.37,0.26 -0.56,0.39 -1,0.53 -0.11,0.04 -0.45,0 -0.42,0.22 0.04,0.18 0.15,0.28 0.27,0.4 0.04,0.03 0.06,0.06 0.1,0.1 0.39,0.39 0.81,0.78 1.26,1.1 0.16,0.11 0.3,0.22 0.46,0.33l1.43 0.85c0.17,0.08 0.34,0.16 0.51,0.24l0.93 0.4c0.13,0.04 0.27,0.11 0.4,0.15l0.82 0.29c0.19,0.05 0.38,0.11 0.57,0.17l1.12 0.32c0.58,0.16 1.17,0.31 1.77,0.42 0.2,0.03 0.4,0.07 0.61,0.11 0.82,0.13 1.68,0.24 2.53,0.28 0.44,0.02 0.88,0.04 1.34,0.04 0.46,0 0.93,-0.01 1.4,-0.03 0.35,-0.02 0.72,-0.06 1.08,-0.08 0.13,0 0.25,-0.03 0.37,-0.04l0.38 -0.03c0.14,-0.03 0.23,-0.03 0.37,-0.05 0.26,-0.04 0.49,-0.07 0.75,-0.11 0.29,-0.05 1.57,-0.28 1.87,-0.38 0.06,-0.02 0.14,-0.04 0.19,-0.05 0.48,-0.12 0.93,-0.26 1.4,-0.4l0.99 -0.35c0.75,-0.28 1.46,-0.57 2.18,-0.91 0.48,-0.22 0.96,-0.47 1.42,-0.74 0.58,-0.33 1.42,-0.82 1.98,-1.23l0.62 -0.43c0.24,-0.14 0.61,-0.44 0.87,-0.63 0.04,-0.03 0.07,-0.05 0.11,-0.09 0.16,-0.12 0.31,-0.23 0.47,-0.36l0.46 -0.38c0.08,-0.06 0.14,-0.12 0.23,-0.19 0.04,-0.04 0.07,-0.07 0.11,-0.1 0.03,-0.03 0.07,-0.06 0.1,-0.1 0.04,-0.03 0.07,-0.06 0.11,-0.1 0.04,-0.03 0.07,-0.06 0.11,-0.1l1.01 -1.03c0.04,-0.03 0.07,-0.07 0.1,-0.11l0.37 -0.44c0.03,-0.05 0.05,-0.07 0.09,-0.12l0.49 -0.69c0.22,-0.32 0.41,-0.63 0.6,-0.98 0.02,-0.03 0.02,-0.04 0.03,-0.06l0.17 -0.33c0.03,-0.05 0.04,-0.08 0.06,-0.13 0.11,-0.22 0.43,-0.78 -0.1,-0.69 -0.16,0.03 -0.32,0.05 -0.48,0.09 -0.07,0.03 -0.21,0.07 -0.29,0.08 -0.19,0.02 -0.4,0.03 -0.58,0.01 -0.35,-0.03 -0.67,-0.12 -0.96,-0.25 -0.26,-0.11 -0.5,-0.23 -0.73,-0.38 -0.12,-0.09 -0.32,-0.2 -0.43,-0.3 -0.02,-0.02 -0.02,-0.02 -0.04,-0.03 -0.1,-0.07 -0.29,-0.2 -0.36,-0.29 0.78,-0.12 1.27,-0.22 1.98,-0.53 0.39,-0.18 0.93,-0.54 1.17,-0.88 0.22,-0.32 -0.19,-0.45 -0.41,-0.55 -0.17,-0.08 -0.35,-0.18 -0.5,-0.29 -0.48,-0.34 -0.89,-0.75 -1.27,-1.2l-0.37 -0.47c-0.19,-0.23 -0.36,-0.49 -0.54,-0.74 -0.3,-0.41 -0.57,-0.84 -0.86,-1.25l-0.51 -0.79c-0.05,-0.08 -0.1,-0.17 -0.16,-0.26 -0.15,-0.25 -0.34,-0.56 -0.53,-0.89zm-8.61 -1.25l-0.28 0.24 -0.06 0.06 0.34 -0.3zm-14.2 6.8c-0.84,0.84 -1.27,1.86 -1.27,3.05 0,1.19 0.42,2.21 1.27,3.05l0 0c0.84,0.84 1.85,1.26 3.05,1.26l0 0c1.19,0.01 2.2,-0.42 3.05,-1.26l0 0c0.84,-0.84 1.26,-1.86 1.26,-3.05l0 0c0,-1.19 -0.42,-2.21 -1.26,-3.05l0 0c-0.84,-0.84 -1.86,-1.26 -3.05,-1.26l0 0c-1.19,0 -2.21,0.42 -3.05,1.26l0 0zm1.24 0.58c0.02,0.03 0.03,0.06 0.02,0.1 0,0.03 -0.02,0.06 -0.05,0.09 -1.16,0.89 -1.53,2.07 -1.11,3.55 0,0.03 0,0.07 -0.02,0.1 -0.01,0.03 -0.04,0.05 -0.08,0.07 -0.03,0 -0.07,0 -0.1,-0.02 -0.03,-0.02 -0.05,-0.04 -0.07,-0.08 -0.44,-1.6 -0.04,-2.88 1.22,-3.84 0.03,-0.02 0.06,-0.03 0.1,-0.02 0.03,0 0.06,0.02 0.09,0.05zm0.38 -0.16c0.02,0.02 0.03,0.05 0.03,0.08 0,0.04 -0.01,0.06 -0.03,0.09 -0.03,0.02 -0.06,0.03 -0.09,0.03 -0.03,0 -0.06,-0.01 -0.09,-0.03 -0.02,-0.03 -0.03,-0.05 -0.03,-0.09 0,-0.03 0.01,-0.06 0.03,-0.08 0.03,-0.03 0.06,-0.04 0.09,-0.04 0.03,0 0.06,0.01 0.09,0.04zm0.72 2.48c0.05,0.05 0.08,0.11 0.08,0.19 0,0.08 -0.03,0.14 -0.08,0.2 -0.05,0.05 -0.12,0.08 -0.19,0.08 -0.08,0 -0.14,-0.03 -0.2,-0.08 -0.05,-0.06 -0.08,-0.12 -0.08,-0.2 0,-0.08 0.03,-0.14 0.08,-0.19 0.06,-0.06 0.12,-0.08 0.2,-0.08 0.07,0 0.14,0.02 0.19,0.08zm2.49 -2.34c-0.11,0.11 -0.25,0.17 -0.41,0.17 -0.16,0 -0.3,-0.06 -0.42,-0.17 -0.11,-0.12 -0.17,-0.26 -0.17,-0.42 0,-0.16 0.06,-0.3 0.17,-0.42 0.12,-0.11 0.26,-0.17 0.42,-0.17 0.16,0 0.3,0.06 0.42,0.17 0.11,0.12 0.17,0.26 0.17,0.42 0,0.17 -0.06,0.3 -0.18,0.42zm0.97 2.36c0.09,0 0.14,0.03 0.16,0.1 0,0.08 0.01,0.17 0.01,0.25 0,0.82 -0.3,1.53 -0.88,2.12 -0.35,0.35 -0.74,0.59 -1.18,0.73 -0.08,0.03 -0.13,0.02 -0.14,-0.02l-0.25 -0.47c-0.01,-0.07 0.01,-0.11 0.07,-0.14 0.23,-0.12 0.46,-0.3 0.69,-0.54 0.53,-0.54 0.79,-1.1 0.79,-1.68 0,-0.09 -0.01,-0.18 -0.01,-0.27 -0.01,-0.06 0.03,-0.09 0.12,-0.08l0.62 0zm-0.1 -0.9c0.1,0.19 0.16,0.4 0.21,0.61 0,0.04 -0.02,0.07 -0.08,0.1l-0.7 0.05c-0.07,0 -0.12,-0.02 -0.13,-0.06 -0.05,-0.19 -0.12,-0.36 -0.22,-0.52 -0.05,-0.09 -0.01,-0.15 0.12,-0.17l0.62 -0.1c0.07,-0.02 0.14,0.01 0.18,0.09zm7.96 -2.78c0,1.19 0.42,2.2 1.26,3.05l0 0c0.84,0.84 1.86,1.26 3.05,1.26l0 0c1.19,0 2.21,-0.42 3.05,-1.26l0 0c0.84,-0.84 1.26,-1.86 1.26,-3.05l0 0c0,-1.19 -0.41,-2.21 -1.26,-3.05l0 0c-0.84,-0.84 -1.85,-1.27 -3.04,-1.27 -2.39,0 -4.32,1.93 -4.32,4.32zm2.5 -2.47c0.02,0.03 0.03,0.06 0.03,0.1 -0.01,0.03 -0.03,0.06 -0.06,0.09 -1.15,0.88 -1.52,2.06 -1.11,3.55 0.01,0.03 0,0.06 -0.01,0.1 -0.02,0.03 -0.05,0.05 -0.09,0.06 -0.03,0.01 -0.07,0.01 -0.1,-0.01 -0.03,-0.02 -0.05,-0.05 -0.06,-0.08 -0.45,-1.61 -0.04,-2.89 1.21,-3.84 0.03,-0.02 0.06,-0.03 0.1,-0.02 0.04,0 0.07,0.02 0.09,0.05zm0.38 -0.17c0.03,0.03 0.04,0.06 0.04,0.09 0,0.03 -0.01,0.06 -0.04,0.09 -0.02,0.02 -0.05,0.03 -0.09,0.03 -0.03,0 -0.06,-0.01 -0.08,-0.03 -0.03,-0.03 -0.04,-0.06 -0.04,-0.09 0,-0.03 0.01,-0.06 0.04,-0.09 0.02,-0.02 0.05,-0.03 0.08,-0.03 0.04,0 0.07,0.01 0.09,0.03zm3.35 0.82c-0.11,0.12 -0.25,0.18 -0.41,0.18 -0.17,0 -0.31,-0.06 -0.42,-0.18 -0.11,-0.11 -0.17,-0.25 -0.17,-0.41 0,-0.17 0.06,-0.31 0.17,-0.42 0.11,-0.12 0.26,-0.17 0.42,-0.17 0.16,0 0.3,0.05 0.41,0.17 0.12,0.11 0.18,0.25 0.18,0.42 0,0.16 -0.06,0.3 -0.18,0.41zm-3.02 1.66c0.06,-0.05 0.13,-0.08 0.2,-0.08 0.08,0 0.14,0.03 0.2,0.08 0.05,0.06 0.08,0.12 0.08,0.2 0,0.07 -0.03,0.14 -0.08,0.19 -0.06,0.06 -0.12,0.08 -0.2,0.08 -0.07,0 -0.14,-0.02 -0.2,-0.08 -0.05,-0.05 -0.08,-0.12 -0.08,-0.19 0,-0.08 0.03,-0.14 0.08,-0.2zm3.24 0.02l0.61 0c0.09,0 0.14,0.04 0.16,0.1 0.01,0.09 0.01,0.17 0.01,0.26 0,0.82 -0.29,1.53 -0.88,2.11 -0.35,0.35 -0.74,0.6 -1.17,0.74 -0.08,0.03 -0.13,0.02 -0.15,-0.02l-0.24 -0.48c-0.02,-0.06 0,-0.11 0.07,-0.14 0.22,-0.11 0.45,-0.29 0.68,-0.53 0.53,-0.55 0.79,-1.11 0.79,-1.68 0,-0.09 0,-0.18 -0.01,-0.27 0,-0.06 0.04,-0.09 0.13,-0.09zm0.52 -0.9c0.09,0.2 0.16,0.4 0.2,0.62 0.01,0.04 -0.02,0.07 -0.07,0.09l-0.71 0.06c-0.07,0 -0.11,-0.02 -0.12,-0.07 -0.05,-0.18 -0.13,-0.35 -0.23,-0.51 -0.05,-0.1 -0.01,-0.15 0.13,-0.17l0.61 -0.1c0.08,-0.02 0.14,0.01 0.19,0.08zm-11.06 13.06c0.91,0.79 1.88,1.17 2.88,1.14l0 0c1.22,-0.13 2.13,-0.86 2.74,-2.2 0.29,-0.65 0.51,-1.45 0.66,-2.39 0,-0.16 -0.05,-0.26 -0.15,-0.31 -0.11,-0.06 -0.25,-0.02 -0.4,0.12 -1.02,0.89 -2.07,1.04 -3.16,0.42 -0.26,-0.11 -0.45,-0.05 -0.59,0.18 -0.77,0.95 -1.91,1.17 -3.42,0.65 -0.24,-0.05 -0.35,0.04 -0.32,0.28 0.57,0.89 1.15,1.59 1.76,2.11zm2.78 -1.38c-1.05,0.17 -1.95,0.54 -2.69,1.1l0 0c0.86,0.75 1.76,1.1 2.71,1.07l0 0c1.15,-0.12 2.01,-0.81 2.58,-2.07 -0.4,-0.14 -0.86,-0.21 -1.38,-0.21 -0.37,0 -0.78,0.04 -1.22,0.11l0 0zm-2.2 -5.17c-0.1,-0.04 -0.16,-0.1 -0.19,-0.19l0 0c-0.02,-0.08 0,-0.17 0.07,-0.26l0 0c0.07,-0.08 0.17,-0.14 0.29,-0.17l0 0c0.12,-0.03 0.23,-0.03 0.34,0.01l0 0c0.1,0.04 0.16,0.1 0.18,0.19l0 0c0.03,0.09 0,0.17 -0.07,0.25l0 0c-0.07,0.09 -0.16,0.15 -0.28,0.18l0 0c-0.05,0.01 -0.1,0.02 -0.15,0.02l0 0c-0.07,0 -0.13,-0.01 -0.19,-0.03l0 0zm-7.4 -6.75l0.01 0c2.42,0 4.03,0.98 4.83,2.91 0.01,0.02 0.01,0.05 0,0.08 -0.01,0.03 -0.03,0.05 -0.06,0.06 -0.03,0.02 -0.06,0.02 -0.08,0 -0.03,-0.01 -0.05,-0.03 -0.06,-0.06 -0.77,-1.83 -2.31,-2.76 -4.61,-2.77 -2.21,0.31 -3.69,1.51 -4.44,3.6 -0.02,0.03 -0.04,0.05 -0.06,0.07 -0.03,0.01 -0.06,0.01 -0.09,0 -0.03,-0.02 -0.05,-0.03 -0.06,-0.06 -0.01,-0.03 -0.01,-0.06 0,-0.09 0.78,-2.17 2.32,-3.42 4.62,-3.74zm14.8 -3.61l0.01 0c2.64,0.07 4.32,1.26 5.07,3.59 0,0.03 0,0.06 -0.02,0.08 -0.02,0.03 -0.03,0.05 -0.06,0.06 -0.03,0.01 -0.06,0.01 -0.09,-0.01 -0.03,-0.01 -0.04,-0.03 -0.05,-0.06 -0.71,-2.22 -2.32,-3.37 -4.84,-3.44 -2.61,0.26 -4.08,1.74 -4.41,4.43 -0.01,0.03 -0.02,0.05 -0.04,0.07 -0.03,0.02 -0.06,0.03 -0.09,0.03 -0.03,-0.01 -0.05,-0.02 -0.07,-0.04 -0.02,-0.03 -0.03,-0.06 -0.03,-0.09 0.35,-2.8 1.89,-4.35 4.62,-4.62zm-3.68 15.58c0.03,0 0.05,0.03 0.05,0.06l0.01 0c-0.01,0.03 -0.03,0.05 -0.06,0.05 -0.62,-0.03 -1.2,0.01 -1.72,0.13 -0.49,0.11 -0.94,0.28 -1.36,0.52l-0.1 0.06c-0.02,0.02 -0.06,0.01 -0.07,-0.02 -0.02,-0.02 -0.01,-0.05 0.02,-0.07 0.45,-0.28 0.94,-0.47 1.48,-0.59 0.54,-0.13 1.13,-0.17 1.75,-0.14zm6.41 -26.3l0 0zm11.35 22.22l-0.01 0c-0.1,0 -0.21,0.01 -0.33,0.04l0 0c-1.2,0.36 -1.97,1.27 -2.26,2.56l0.26 -0.03c0.14,-1 1.14,-2.3 2.27,-2.3 0.51,0 0.94,0.45 0.97,0.95l0 0c0.02,0.59 -0.69,1.12 -0.64,1.86 0.09,0.07 0.15,0.13 0.17,0.17 0.03,-0.41 0.2,-0.89 0.47,-1.29l0 0c0.19,-0.27 0.27,-0.53 0.26,-0.79l0 0c0,-0.21 -0.08,-0.42 -0.23,-0.63l0 0c-0.24,-0.36 -0.56,-0.54 -0.93,-0.54zm-2.55 2.8c-0.43,0.17 -0.81,0.46 -1.17,0.86l0 0c-0.62,0.72 -0.96,1.58 -1,2.59l0 0c-0.05,1 0.2,1.86 0.77,2.57l0 0c0.56,0.72 1.25,1.08 2.1,1.08l0 0c0.83,0 1.56,-0.36 2.19,-1.08l0 0c0.62,-0.71 0.95,-1.57 1,-2.57l0 0c0.05,-1.01 -0.21,-1.87 -0.77,-2.59l0 0c-0.06,-0.08 -0.13,-0.15 -0.19,-0.22l0 0c-0.53,-0.56 -1.16,-0.84 -1.9,-0.84 -0.36,0 -0.71,0.06 -1.03,0.2l0 0zm0.09 0.36c-0.38,0.16 -0.73,0.41 -1.04,0.77l0 0c-0.56,0.64 -0.86,1.41 -0.9,2.32l0 0c-0.05,0.9 0.18,1.67 0.68,2.31l0 0c0.5,0.63 1.13,0.95 1.88,0.96l0 0c0.75,-0.01 1.4,-0.33 1.97,-0.96l0 0c0.55,-0.64 0.85,-1.41 0.9,-2.31l0 0c0.03,-0.91 -0.19,-1.68 -0.69,-2.32l0 0c-0.06,-0.07 -0.12,-0.14 -0.18,-0.19l0 0c-0.47,-0.51 -1.04,-0.76 -1.7,-0.76 -0.33,0 -0.63,0.06 -0.92,0.18l0 0zm-7.61 3.95c0.81,-0.04 2.82,-0.9 3.67,-1.46 -0.1,0.47 -0.14,0.99 -0.11,1.56l0 0c0.05,1 0.29,1.86 0.71,2.57 -1.05,0.21 -3.06,0.21 -4.18,0l0 0c0,0 -0.01,0 -0.01,0l0 0c-0.02,-0.01 -0.04,-0.01 -0.06,-0.01l0 0c-0.01,0 -0.01,-0.01 -0.02,-0.01l-0.25 -0.07c0,-0.65 0.09,-1.51 0.25,-2.58zm-2.08 2.15l0 0zm0.58 1.34l0 0zm-9.89 4.18l0.06 0.01c1.18,-1.79 3.39,-1.66 4.91,-0.43l0.05 0.04 0.12 -0.02c-0.55,-0.63 -1.43,-1.04 -2.42,-1.04 -1.2,0 -2.23,0.59 -2.72,1.44zm5.02 -0.38l-0.14 0.03c-1.27,0.26 -2.48,0.39 -3.49,0.39 -0.42,0 -0.79,-0.01 -1.14,-0.02l-0.09 -0.01 -0.1 0c1.18,-1.79 3.39,-1.66 4.91,-0.43l0.05 0.04zm-8.98 -1.4l-1.31 0.46c-0.3,0.09 -0.56,0.17 -0.71,0.22l-0.08 0.03 0.02 -0.11 0 0c0.02,-0.33 0.03,-0.68 0,-1.07l0 0c-0.02,-0.39 -0.1,-0.74 -0.25,-1.06l0 0 -0.1 -0.21c0.69,-0.2 1.72,-0.54 2.3,-0.76l-0.02 0.16c-0.06,0.83 0.02,1.76 0.15,2.34zm-0.61 0.77l0.48 -0.14 0.26 0.85c1.32,0.64 3.91,0.61 4.74,0.61 3.38,0 6.57,-0.8 9.4,-2.21 0.03,-0.5 0.11,-1.16 0.11,-1.66 0.48,0 1.13,-0.1 1.43,-0.74 0.65,0.1 1.73,0.23 2.69,0.08 -0.12,0.1 -0.68,0.55 -0.8,0.64 -1.33,1.04 -3.43,2.2 -5.03,2.78 -2.47,0.9 -3.67,1.19 -6.16,1.42 -2,0.19 -4.01,-0.01 -5.96,-0.38 -0.07,-0.01 -0.15,-0.03 -0.23,-0.04 0,0 -0.48,-0.08 -0.67,-0.15 -0.42,-0.11 -1.43,-0.42 -1.69,-0.48 0.07,-0.1 1.05,-0.44 1.35,-0.56l0 0c0.04,-0.01 0.06,-0.02 0.07,-0.03l0.01 0.01zm19.39 -23.18c0.95,1.8 1.66,2.48 3.52,3.4 0.58,0.29 0.56,0.45 0.56,0.8 0,0.5 -1.23,1.39 -1.62,1.59 -0.11,0.05 -0.22,0.11 -0.34,0.17l-0.3 0.11c-0.04,0.01 -0.07,0.03 -0.1,0.05 0.75,0.17 1.11,0.25 1.91,0.02 2.26,-0.83 1.59,0.82 0.82,2.11 -0.58,0.97 -0.99,1.64 -1.76,2.53 -0.4,0.45 -0.61,0.72 -1.03,1.15 -0.37,0.36 -0.71,0.7 -1.09,1.05 -0.81,0.68 -1.55,1.26 -2.4,1.88 -0.35,0.26 -0.95,0.66 -1.32,0.86 0.16,0.59 2,-0.37 2.34,-0.58 0.87,-0.51 0.68,-0.22 1.01,-0.95 0.44,-0.99 1.4,-1.87 2.52,-1.28 0.25,-0.16 0.31,-0.37 0.77,-0.67 0.12,-0.08 0.19,-0.09 0.22,-0.25 0.05,-0.28 0.13,-0.47 0.23,-0.73 0.35,-0.85 1.04,-1.59 1.88,-1.97 0.3,-0.13 0.42,-0.14 0.85,-0.14 0.08,-0.17 0.25,-0.96 0.3,-1.18 0.27,-1.31 0.43,-2.58 0.47,-3.84l0 -1.44c-0.06,-1.76 -0.34,-3.51 -0.84,-5.32 -0.16,-0.55 -0.36,-1.07 -0.54,-1.6 -0.45,-1.26 -1.42,-3.08 -2.17,-4.22 -0.16,-0.24 -0.66,-1.02 -0.79,-1.11 0.38,3.5 -1.18,8.27 -3.1,9.56zm-35.42 2.91c0,2.43 0.17,4.34 0.88,6.65 0.26,0.84 0.54,1.59 0.87,2.38 0.66,1.58 1.94,3.7 3.1,5.06 0.13,0.16 0.23,0.29 0.37,0.44l1.4 1.48c0.1,0.08 0.13,0.09 0.22,0.19 0.08,0.07 0.12,0.13 0.2,0.2l2.08 1.65c0.15,-0.22 0.54,-0.59 1.31,-0.66 -0.2,-0.92 0.72,-0.98 1.32,-0.57 0.16,0.11 0.3,0.33 0.43,0.46 0.24,-0.55 1.29,-0.67 1.72,-0.28l0.31 0.3c0.07,0.08 0.23,0.11 1.26,-0.24 0.77,-0.25 0.74,-0.16 0.85,-0.63 -0.31,0 -0.76,-0.08 -1.07,-0.12 -0.33,-0.05 -0.69,-0.12 -1.01,-0.17 -0.34,-0.05 -0.68,-0.12 -0.99,-0.19l-3.61 -1.11c-1.37,-0.54 -2.24,-1.04 -3.46,-1.86 -0.13,-0.09 -0.23,-0.14 -0.36,-0.23 -0.25,-0.17 -0.43,-0.33 -0.67,-0.51l-1.25 -1.12c-0.13,-0.12 -0.5,-0.51 -0.5,-0.67 0,-0.31 -0.08,-0.64 0.47,-0.71 0.25,-0.03 0.43,-0.08 0.66,-0.16 0.26,-0.08 0.93,-0.44 1.04,-0.61 -0.49,0 -1.51,-0.04 -1.87,-0.34 -0.35,-0.29 -0.3,-0.41 -0.3,-0.81 0,-0.1 0.13,-0.18 0.19,-0.24 0.12,-0.13 0.11,-0.12 0.27,-0.21 0.65,-0.34 0.94,-0.92 1.26,-1.55 0.45,-0.9 0.82,-2.17 0.82,-3.2 0,-0.11 -0.07,-0.12 -0.17,-0.16 -2.14,-1.04 -4.37,-3.25 -5.33,-5.41 -0.05,-0.12 -0.05,-0.15 -0.15,-0.23l-0.2 1.54c-0.07,0.49 -0.09,1.08 -0.09,1.61l0 0.03z"/>
  </g>
 </g>
</svg>
