<?xml version="1.0" encoding="UTF-8"?>
<!DOCTYPE svg PUBLIC "-//W3C//DTD SVG 1.1//EN" "http://www.w3.org/Graphics/SVG/1.1/DTD/svg11.dtd">
<!-- Creator: CorelDRAW 2020 (64-Bit) -->
<svg xmlns="http://www.w3.org/2000/svg" xml:space="preserve" width="18.1905mm" height="15.3918mm" version="1.1" style="shape-rendering:geometricPrecision; text-rendering:geometricPrecision; image-rendering:optimizeQuality; fill-rule:evenodd; clip-rule:evenodd"
viewBox="0 0 101.92 86.24"
 xmlns:xlink="http://www.w3.org/1999/xlink"
 xmlns:xodm="http://www.corel.com/coreldraw/odm/2003">
 <defs>
  <style type="text/css">
   <![CDATA[
    .fil1 {fill:#5997FF;fill-rule:nonzero}
    .fil0 {fill:#A8CFFF;fill-rule:nonzero}
   ]]>
  </style>
 </defs>
 <g id="图层_x0020_1">
  <metadata id="CorelCorpID_0Corel-Layer"/>
  <g id="_1528274452432">
   <path class="fil0" d="M100.55 40.45l-4.68 -1.17c-0.09,-0.2 -0.2,-0.29 -0.2,-0.48l2.44 -4.1c0.48,-0.79 0.39,-1.76 -0.29,-2.34l-5.17 -5.27c-0.68,-0.68 -1.65,-0.79 -2.44,-0.29l-4.2 2.63 -0.88 -4c-0.2,-0.88 -0.97,-1.47 -1.85,-1.47l-3.74 0 0 13.18c5.24,0.24 9.29,4.53 9.31,9.75 0,5.37 -4.4,9.76 -9.77,9.76 -5.37,0 -9.76,-4.39 -9.76,-9.76 0,-5.37 4.39,-9.76 9.76,-9.76l0.46 0.01 0 -13.18 -3.58 0c-0.88,0 -1.65,0.59 -1.85,1.47l-0.88 3.8 -4.39 -2.73c-0.97,-0.39 -1.96,-0.2 -2.64,0.39l-5.28 5.28c-0.68,0.68 -0.77,1.65 -0.29,2.44l2.73 4.49 -5.76 1.37c-0.88,0.2 -1.47,0.97 -1.47,1.85l0 7.42c0,0.88 0.59,1.65 1.47,1.85l5.66 1.36 -2.64 4.4c-0.48,0.79 -0.39,1.76 0.29,2.44l5.17 5.17c0.69,0.68 1.66,0.78 2.44,0.29l3.9 -2.34 1.27 5.37c0.2,0.88 0.97,1.47 1.85,1.47l7.42 0c0.88,0 1.65,-0.59 1.85,-1.47l1.27 -5.46 4 2.44c0.78,0.48 1.76,0.39 2.44,-0.29l5.08 -5.17c0.59,-0.69 0.78,-1.66 0.29,-2.34l-2.34 -3.9c0.09,-0.29 0.2,-0.59 0.39,-0.79l4.49 -1.07c0.88,-0.2 1.47,-0.97 1.47,-1.85l0 -7.41c0.11,-1.01 -0.48,-1.79 -1.36,-1.98zm-21.52 12.23c3.21,0 5.82,-2.61 5.82,-5.83 0,-3.21 -2.61,-5.82 -5.82,-5.82 -3.22,0 -5.83,2.61 -5.83,5.82 0,3.22 2.61,5.83 5.83,5.83z"/>
   <path class="fil1" d="M44.7 71.89l0 7.88 6.47 0 0 -7.88c2.51,0 4.15,-0.08 6.66,-0.08 1.63,0 2.79,-1.03 3.22,-2.31 1.46,-4.33 -6.49,-5.64 -6.54,-9.89 -0.15,-1.31 1.83,-3.35 2.34,-4.67 -2.42,-0.98 -5.99,-1.81 -5.99,-4.92l0 -9.31c0,-1.6 0.77,-2.96 2.66,-3.35l3.54 -0.99c-1.43,-2.17 -3.8,-4.77 -1.38,-7.19l7.07 -6.77c0.58,-0.5 1.32,-0.93 2.08,-1.04 2.06,-0.31 4.47,0.47 6.19,1.52 0.85,-2.16 1.13,-4.35 4.05,-4.35l8.27 0c2.75,0 3.67,2.05 4.62,4.18 2.53,-2.33 3.55,-2.29 5.38,-0.69l2.74 3.34c0.02,-3.49 -0.02,-6.98 -0.02,-10.47 -0.74,-8.32 -7.76,-14.9 -16.18,-14.9l-63.7 0c-8.96,0 -16.19,7.23 -16.19,16.19l0 39.5c0,8.95 7.23,16.19 16.19,16.19l28.51 0 0 0.01zm-15.71 -18.49l0 -27.5c0,-2.67 2.18,-4.85 4.85,-4.85l0 0c2.67,0 4.85,2.18 4.85,4.85l0 27.5c0,2.67 -2.18,4.85 -4.85,4.85l0 0c-2.67,0 -4.85,-2.18 -4.85,-4.85zm-16.96 0l0 -18.37c0,-2.67 2.18,-4.85 4.85,-4.85l0 0c2.67,0 4.85,2.18 4.85,4.85l0 18.37c0,2.67 -2.18,4.85 -4.85,4.85l0 0c-2.67,0 -4.85,-2.18 -4.85,-4.85zm65.05 26.37l-58.29 0c-1.83,0 -3.24,1.41 -3.24,3.24 0,1.83 1.41,3.24 3.24,3.24l58.29 0c1.83,0 3.24,-1.41 3.24,-3.24 0,-1.84 -1.39,-3.24 -3.24,-3.24z"/>
  </g>
 </g>
</svg>
