<?xml version="1.0" encoding="UTF-8"?>
<!DOCTYPE svg PUBLIC "-//W3C//DTD SVG 1.1//EN" "http://www.w3.org/Graphics/SVG/1.1/DTD/svg11.dtd">
<!-- Creator: CorelDRAW 2020 (64-Bit) -->
<svg xmlns="http://www.w3.org/2000/svg" xml:space="preserve" width="5.4101mm" height="5.4101mm" version="1.1" style="shape-rendering:geometricPrecision; text-rendering:geometricPrecision; image-rendering:optimizeQuality; fill-rule:evenodd; clip-rule:evenodd"
viewBox="0 0 11.43 11.43"
 xmlns:xlink="http://www.w3.org/1999/xlink"
 xmlns:xodm="http://www.corel.com/coreldraw/odm/2003">
 <defs>
  <style type="text/css">
   <![CDATA[
    .fil0 {fill:#5997FF}
    .fil1 {fill:#A8CFFF}
   ]]>
  </style>
 </defs>
 <g id="图层_x0020_1">
  <metadata id="CorelCorpID_0Corel-Layer"/>
  <g id="_1528530580496">
   <path class="fil0" d="M9.52 0c1.05,0 1.91,0.8 1.91,1.78l0 6.35c-0,0.98 -0.86,1.78 -1.91,1.78l-7.62 0c-1.05,0 -1.9,-0.8 -1.9,-1.78l0 -6.35c0,-0.98 0.86,-1.78 1.9,-1.78l7.62 0 -0 0zm-5.63 5.15c-0.13,-0.82 0.32,-1.65 1.13,-1.97 0.6,-0.23 1.24,-0.12 1.7,0.21l-0.39 0.63 1.74 -0.01 -0.62 -1.81 -0.32 0.52c-0.67,-0.44 -1.59,-0.58 -2.39,-0.26 -1.11,0.43 -1.75,1.56 -1.63,2.69l0.78 0zm3.65 -0.45c0.13,0.82 -0.32,1.65 -1.13,1.97 -0.55,0.21 -1.16,0.13 -1.62,-0.16 0.09,-0.14 0.35,-0.57 0.35,-0.57l-1.87 -0.11 0.79 1.86 0.33 -0.54c0.67,0.44 1.5,0.55 2.3,0.23 1.11,-0.43 1.75,-1.56 1.63,-2.69l-0.78 0 0 0z"/>
   <path class="fil1" d="M9.14 10.67c0.21,0 0.37,0.17 0.37,0.38 0,0.21 -0.17,0.38 -0.37,0.38l-6.86 0c-0.21,-0 -0.37,-0.17 -0.37,-0.38 0,-0.21 0.17,-0.38 0.37,-0.38l6.86 0 -0 0z"/>
  </g>
 </g>
</svg>
