<?xml version="1.0" encoding="UTF-8"?>
<!DOCTYPE svg PUBLIC "-//W3C//DTD SVG 1.1//EN" "http://www.w3.org/Graphics/SVG/1.1/DTD/svg11.dtd">
<!-- Creator: CorelDRAW 2019 (64-Bit) -->
<svg xmlns="http://www.w3.org/2000/svg" xml:space="preserve" width="58.4972mm" height="9.8323mm" version="1.1" style="shape-rendering:geometricPrecision; text-rendering:geometricPrecision; image-rendering:optimizeQuality; fill-rule:evenodd; clip-rule:evenodd"
viewBox="0 0 5849.72 983.23"
 xmlns:xlink="http://www.w3.org/1999/xlink">
 <defs>
  <style type="text/css">
   <![CDATA[
    .fil3 {fill:#2979FF;fill-rule:nonzero}
    .fil6 {fill:#4D4D4D;fill-rule:nonzero}
    .fil2 {fill:gray;fill-rule:nonzero}
    .fil7 {fill:gray;fill-rule:nonzero}
    .fil0 {fill:#CCCCFF;fill-rule:nonzero}
    .fil5 {fill:#FF7770;fill-rule:nonzero}
    .fil4 {fill:white;fill-rule:nonzero}
    .fil1 {fill:black;fill-rule:nonzero}
   ]]>
  </style>
 </defs>
 <g id="图层_x0020_1">
  <metadata id="CorelCorpID_0Corel-Layer"/>
  <g id="_2844338830784">
   <polygon class="fil0" points="2790.58,78.51 3026.1,78.51 2990.77,0 2833.76,0 "/>
   <polygon class="fil0" points="2598.23,510.3 2598.23,471.05 2676.74,471.05 2676.74,314.03 2637.49,314.03 2696.37,211.97 2755.25,314.03 2716,314.03 2716,510.3 "/>
   <polygon class="fil0" points="3226.29,510.3 3226.29,471.05 3147.79,471.05 3147.79,314.03 3187.04,314.03 3128.16,211.97 3069.28,314.03 3108.53,314.03 3108.53,510.3 "/>
   <path class="fil0" d="M2794.5 314.03l78.51 0 0 78.51 -78.51 0 0 -78.51zm117.77 78.51l117.75 0 0 -78.51 -117.75 0 0 78.51zm-117.77 -196.27l78.51 0 0 -78.51 -78.51 0 0 78.51zm117.77 0l117.75 0 0 -78.51 -117.75 0 0 78.51zm117.75 39.25l-39.25 0 0 39.26 39.25 0 0 -39.26zm-196.26 196.27l-39.26 0 0 39.26 39.26 0 0 -39.26zm-39.26 -157.01l157.02 0 0 -39.26 -157.02 0 0 39.26zm78.51 196.27l157.01 0 0 -39.26 -157.01 0 0 39.26z"/>
   <path class="fil1" d="M2912.27 588.81l-117.77 0 0 -78.51 117.77 0 0 78.51zm39.25 0l78.5 0 0 -78.51 -78.5 0 0 78.51z"/>
  </g>
  <g id="_2844338832608">
   <path class="fil0" d="M138.77 153.27c0,46.58 24.85,89.62 65.2,112.91 40.34,23.29 90.04,23.29 130.38,0 40.34,-23.29 65.19,-66.33 65.19,-112.91 0,-72.02 -58.37,-130.39 -130.38,-130.39 -72.01,0 -130.39,58.37 -130.39,130.39z"/>
   <path class="fil0" d="M494.16 611.69l-450 0c-24.29,0 -44.16,-19.87 -44.16,-44.16l0 -85.05c0,-90.86 74.34,-165.19 165.2,-165.19l207.88 0c90.86,0 165.2,74.33 165.2,165.19l0 85.05c0.04,24.29 -19.83,44.16 -44.12,44.16z"/>
  </g>
  <polygon class="fil2" points="1926.02,283.57 1955.42,283.57 1930.92,306.84 1892.95,344.82 1878.25,330.12 1901.53,306.84 987.76,306.84 987.76,283.57 "/>
  <polygon class="fil2" points="1017.16,512.45 987.76,512.45 1012.26,535.72 1050.23,573.7 1064.93,559 1041.65,535.72 1955.42,535.72 1955.42,512.45 "/>
  <g id="_2844338835264">
   <path class="fil3" d="M269.15 701.09c-81.3,0 -147.21,-65.91 -147.21,-147.2 0,-81.29 65.91,-147.2 147.21,-147.2 81.28,0 147.2,65.91 147.2,147.2 0,81.29 -65.92,147.2 -147.2,147.2z"/>
   <path class="fil4" d="M271.72 464.59c-17.91,0 -32.14,5.15 -42.44,15.7 -10.55,10.3 -15.71,24.29 -15.71,42.2l26.01 0c0,-10.8 2.21,-19.38 6.62,-25.27 4.91,-6.87 13.01,-10.3 24.05,-10.3 8.83,0 15.7,2.45 20.6,7.36 4.67,4.9 7.12,11.53 7.12,20.11 0,6.38 -2.21,12.27 -6.62,17.91l-4.18 4.66c-15.21,13.5 -24.53,23.56 -27.96,30.43 -3.19,6.37 -4.67,14.22 -4.67,23.3l0 4.17 26.26 0 0 -4.17c0,-6.13 1.22,-11.53 3.92,-16.44 2.21,-4.41 5.64,-8.58 10.06,-12.51 11.78,-10.06 18.65,-16.44 20.85,-19.13 5.89,-7.85 9.08,-17.91 9.08,-29.93 0,-14.73 -4.91,-26.5 -14.47,-35.09 -9.82,-8.83 -22.57,-13 -38.52,-13zm-4.17 143.52c-5.15,0 -9.32,1.47 -12.51,4.91 -3.69,3.19 -5.4,7.36 -5.4,12.51 0,4.91 1.71,9.08 5.4,12.51 3.19,3.44 7.36,5.16 12.51,5.16 4.9,0 9.32,-1.72 13,-4.91 3.44,-3.44 5.15,-7.61 5.15,-12.76 0,-5.15 -1.71,-9.32 -5.15,-12.51 -3.43,-3.44 -7.85,-4.91 -13,-4.91z"/>
  </g>
  <path class="fil5" d="M1474.65 454.04c-81.29,0 -147.21,-65.91 -147.21,-147.2 0,-81.29 65.92,-147.21 147.21,-147.21 81.29,0 147.2,65.92 147.2,147.21 0,81.29 -65.91,147.2 -147.2,147.2z"/>
  <path class="fil4" d="M1540.89 354.67c5.52,5.52 5.52,12.89 0,18.41 -5.52,5.52 -12.89,5.52 -18.41,0l-47.84 -47.84 -47.84 47.84c-5.52,5.52 -12.87,5.52 -18.39,0 -5.52,-5.52 -5.52,-12.89 0,-18.41l47.84 -47.84 -47.84 -47.84c-5.52,-5.52 -5.52,-12.87 0,-18.39 5.52,-5.52 12.87,-5.52 18.39,0l47.84 47.84 47.84 -47.84c5.52,-5.52 12.89,-5.52 18.41,0 5.52,5.52 5.52,12.87 0,18.39l-47.84 47.84 47.84 47.84z"/>
  <path class="fil3" d="M2912.26 406.68c-81.33,0 -147.2,65.87 -147.2,147.2 0,81.33 65.87,147.21 147.2,147.21 81.33,0 147.21,-65.88 147.21,-147.21 0,-81.33 -65.88,-147.2 -147.21,-147.2z"/>
  <path class="fil4" d="M3006.47 504.35l-116.28 116.29c-6.64,6.62 -17.12,6.62 -23.74,0l-6.26 -6.26 -42.32 -42.32c-5.52,-5.52 -4.97,-14.72 1.47,-19.32 5.15,-3.68 12.33,-2.94 16.75,1.66l42.31 41.76 110.22 -110.21c5.53,-5.52 14.73,-4.97 19.32,1.47 3.87,5.33 3.13,12.51 -1.47,16.93z"/>
  <path class="fil6" d="M114.43 844.61c-0.35,-1.31 -0.77,-2.74 -1.25,-4.28 -0.47,-1.55 -1.01,-3.15 -1.6,-4.82 -2.14,-6.9 -4.11,-12.43 -5.89,-16.59l11.06 -2.68c0.95,2.03 2.02,4.61 3.21,7.76 1.19,3.16 2.38,6.52 3.57,10.08l3.39 10.53 46.03 0 0 11.77 -72.79 0 -0.54 24.09 -0.35 6.06 57.26 0c-0.11,5.71 -0.32,12.02 -0.62,18.91 -0.3,6.9 -0.59,13.71 -0.89,20.43 -0.3,6.72 -0.63,12.99 -0.98,18.82 -0.36,5.83 -0.72,10.59 -1.07,14.27 -0.36,3.22 -0.9,5.92 -1.61,8.12 -0.71,2.2 -1.84,4.02 -3.39,5.44 -1.54,1.43 -3.54,2.5 -5.98,3.21 -2.43,0.72 -5.5,1.25 -9.18,1.61 -1.43,0.12 -3.18,0.24 -5.27,0.36 -2.08,0.12 -4.22,0.23 -6.42,0.35 -2.2,0.12 -4.37,0.18 -6.51,0.18 -2.14,0 -3.98,0 -5.53,0l-2.32 -12.66c3.09,0.23 6.93,0.41 11.51,0.53 4.58,0.12 8.59,0.06 12.04,-0.18 2.26,-0.12 4.07,-0.33 5.44,-0.62 1.37,-0.3 2.44,-0.81 3.21,-1.52 0.78,-0.71 1.34,-1.75 1.7,-3.12 0.35,-1.37 0.65,-3.18 0.89,-5.44 0.24,-2.38 0.5,-5.89 0.8,-10.53 0.3,-4.64 0.6,-9.69 0.89,-15.16 0.3,-5.47 0.54,-11 0.72,-16.59 0.18,-5.59 0.26,-10.65 0.26,-15.17l-45.49 0c-0.59,9.28 -1.45,17.52 -2.58,24.71 -1.13,7.2 -2.47,13.53 -4.02,19 -1.07,3.57 -2.47,7.2 -4.19,10.88 -1.72,3.69 -3.66,7.35 -5.8,10.98 -2.14,3.62 -4.49,7.13 -7.05,10.52 -2.55,3.39 -5.14,6.51 -7.76,9.37l-10.34 -6.6c6.66,-7.26 11.89,-14.22 15.7,-20.88 3.8,-6.66 6.54,-13.08 8.2,-19.26 3.57,-12.49 5.89,-31.58 6.96,-57.27l0.54 -22.84 -24.45 0 0 -11.77 50.49 0zm-85.81 119.88c2.26,-2.02 3.69,-3.71 4.28,-5.08 0.6,-1.37 0.9,-3 0.9,-4.91l0 -66.18 -23.91 0 0 -11.42 35.68 0 0 74.39c3.21,-2.38 6.72,-5.26 10.53,-8.65 3.8,-3.39 7.79,-7.22 11.95,-11.51l6.24 10.17c-2.38,2.14 -5.17,4.61 -8.38,7.41 -3.21,2.79 -6.6,5.65 -10.17,8.56 -3.57,2.91 -7.14,5.74 -10.71,8.47 -3.56,2.74 -6.77,5.18 -9.63,7.32l-6.78 -8.57zm1.43 -143.07c1.78,1.9 3.83,4.16 6.15,6.78 2.32,2.61 4.85,5.65 7.59,9.1 2.73,3.44 5.17,6.57 7.31,9.36 2.14,2.8 3.87,5.32 5.17,7.58l-9.81 7.5c-1.43,-2.26 -3.15,-4.85 -5.17,-7.76 -2.02,-2.92 -4.4,-6.1 -7.14,-9.55 -2.85,-3.69 -5.32,-6.78 -7.4,-9.28 -2.08,-2.49 -4.02,-4.75 -5.8,-6.77l9.1 -6.96z"/>
  <path id="1" class="fil6" d="M302.29 871.37l0 70.65 -65.48 0 0 -70.65 65.48 0zm37.28 -40.5l0 126.85c0,4.4 -0.29,7.99 -0.89,10.79 -0.59,2.79 -1.55,5.08 -2.85,6.87 -1.31,1.78 -3.04,3.09 -5.18,3.92 -2.14,0.83 -4.75,1.49 -7.85,1.96 -3.92,0.6 -8.08,0.96 -12.48,1.07 -4.41,0.12 -8.69,0.06 -12.85,-0.17l-1.96 -13.56c3.57,0.24 7.31,0.44 11.24,0.62 3.92,0.18 7.25,0.15 9.99,-0.09 2.5,-0.23 4.49,-0.53 5.97,-0.89 1.49,-0.36 2.59,-0.98 3.3,-1.87 0.72,-0.89 1.16,-2.17 1.34,-3.84 0.18,-1.66 0.27,-3.86 0.27,-6.6l0 -113.64 -82.42 0 0 -11.42 94.37 0zm-91.34 99.55l42.64 0 0 -48.35 -42.64 0 0 48.35zm-36.57 -76.71l0 129.34 -11.95 0 0 -129.34 11.95 0zm-2.85 -35.68c2.14,1.78 4.49,3.77 7.04,5.97 2.56,2.21 5.12,4.52 7.67,6.96 2.56,2.44 5.09,4.88 7.59,7.32 2.49,2.43 4.81,4.78 6.95,7.04l-8.2 9.1c-1.91,-2.14 -4.08,-4.49 -6.51,-7.04 -2.44,-2.56 -5,-5.15 -7.68,-7.77 -2.67,-2.61 -5.29,-5.11 -7.85,-7.49 -2.55,-2.38 -4.84,-4.46 -6.86,-6.24l7.85 -7.85z"/>
  <path id="2" class="fil6" d="M443.94 817.49l0 20.52 42.46 0 0 10.35 -42.46 0 0 24.62 16.59 0c17.72,-13.21 33.18,-28.85 46.38,-46.92l9.1 6.95c-5.47,7.73 -11.33,14.87 -17.57,21.41 -6.25,6.54 -12.94,12.73 -20.07,18.56l49.95 0 0 10.34 -63.51 0 -4.64 3.21c-9.16,6.19 -19.27,12.19 -30.33,18.02l72.61 0 0 74.57 -101.86 0 0 -60.47c-4.64,2.02 -9.4,4.07 -14.28,6.15 -4.87,2.08 -9.99,4.13 -15.34,6.16l-5.89 -9.82c16.65,-6.18 31.67,-12.4 45.05,-18.64 13.38,-6.24 25.18,-12.64 35.41,-19.18l-75.46 0 0 -10.34 62.08 0 0 -24.62 -44.78 0 0 -10.35 44.78 0 0 -20.52 11.78 0zm46.74 151.29l0 -21.95 -78.32 0 0 21.95 78.32 0zm-78.32 -31.94l78.32 0 0 -21.94 -78.32 0 0 21.94z"/>
  <path class="fil6" d="M2563.25 810.36c2.02,3.56 4.04,7.58 6.06,12.04 2.02,4.46 3.87,8.95 5.53,13.47l59.41 0 0 11.24 -128.81 0 0 40.49c0,11.18 -0.41,21.14 -1.24,29.89 -0.84,8.74 -1.97,16.38 -3.39,22.92 -1.43,6.54 -3.45,13.29 -6.07,20.25 -2.62,6.96 -6.01,14.18 -10.17,21.67l-10.52 -5.7c4.16,-7.26 7.55,-14.16 10.17,-20.7 2.61,-6.54 4.57,-12.84 5.88,-18.91 1.31,-6.06 2.35,-13.14 3.12,-21.23 0.78,-8.09 1.16,-17.3 1.16,-27.65l0 -52.27 67.97 0c-1.3,-3.45 -2.85,-7.02 -4.63,-10.71 -1.79,-3.68 -3.57,-7.07 -5.36,-10.16l10.89 -4.64zm18.73 148.78c2.85,-7.13 5.71,-14.6 8.56,-22.39 2.86,-7.79 5.56,-15.7 8.12,-23.72 2.56,-8.03 4.99,-16.03 7.31,-24 2.32,-7.97 4.43,-15.76 6.34,-23.37l11.41 3.39c-4.52,15.22 -9.21,30.24 -14.09,45.05 -4.88,14.8 -10.17,29.82 -15.88,45.04l42.46 0 0 11.24 -130.59 0 0 -11.24 76.36 0zm-56.55 -91.87c2.02,4.16 4.1,9.18 6.24,15.07 2.14,5.89 4.4,12.64 6.78,20.25 2.38,7.61 4.46,14.57 6.24,20.87 1.79,6.31 3.15,11.66 4.11,16.06l-11.24 3.57c-0.95,-4.64 -2.23,-10.02 -3.84,-16.15 -1.6,-6.12 -3.6,-12.99 -5.98,-20.6 -2.37,-7.73 -4.57,-14.48 -6.6,-20.25 -2.02,-5.77 -3.98,-10.8 -5.88,-15.08l10.17 -3.74zm41.74 -6.43c1.43,4.05 2.83,8.92 4.19,14.63 1.37,5.71 2.83,12.19 4.37,19.45 3.1,14.63 5,26.4 5.71,35.32l-11.41 2.32c-0.36,-4.52 -0.99,-9.69 -1.88,-15.52 -0.89,-5.83 -2.11,-12.37 -3.65,-19.62 -2.98,-14.28 -5.83,-25.57 -8.57,-33.9l11.24 -2.68z"/>
  <path id="1" class="fil6" d="M2759.66 965.03c2.62,0.24 5.71,0.45 9.28,0.62 3.57,0.18 6.72,0.15 9.46,-0.09 4.16,-0.11 6.87,-0.8 8.11,-2.05 1.25,-1.25 1.88,-3.95 1.88,-8.11l0 -29.08 -47.46 0 0 51.91 -11.41 0 0 -51.91 -47.64 0c-0.24,5.82 -0.74,11.24 -1.51,16.23 -0.78,5 -1.91,9.78 -3.39,14.36 -1.49,4.58 -3.39,9.04 -5.71,13.38 -2.32,4.34 -5.27,8.65 -8.83,12.94l-10.89 -6.6c4.05,-5.24 7.32,-10.2 9.82,-14.9 2.49,-4.7 4.46,-9.6 5.88,-14.72 1.43,-5.11 2.38,-10.7 2.86,-16.77 0.47,-6.06 0.71,-13.02 0.71,-20.87l0 -84.56 128.98 0 0 132.01c0,3.45 -0.23,6.37 -0.71,8.74 -0.47,2.38 -1.34,4.38 -2.59,5.98 -1.24,1.61 -2.94,2.89 -5.08,3.84 -2.14,0.95 -4.88,1.6 -8.21,1.96 -1.3,0.24 -2.88,0.39 -4.72,0.45 -1.85,0.05 -3.75,0.14 -5.71,0.26 -1.97,0.12 -3.9,0.18 -5.8,0.18 -1.9,0 -3.57,0 -5,0l-2.32 -13.2zm-18.73 -128.63l0 33.54 47.46 0 0 -33.54 -47.46 0zm-58.69 33.54l47.28 0 0 -33.54 -47.28 0 0 33.54zm58.69 44.25l47.46 0 0 -32.47 -47.46 0 0 32.47zm-58.69 0l47.28 0 0 -32.47 -47.28 0 0 30.32 0 2.15z"/>
  <path id="2" class="fil6" d="M2937.17 839.97c-0.47,-1.43 -0.98,-3.03 -1.51,-4.82 -0.54,-1.78 -1.16,-3.68 -1.88,-5.7 -2.02,-5.83 -3.8,-10.47 -5.35,-13.92l10.88 -2.5c0.84,1.79 1.82,4.05 2.95,6.78 1.13,2.74 2.17,5.71 3.12,8.92 0.71,2.14 1.37,4.13 1.96,5.98 0.6,1.84 1.13,3.6 1.61,5.26l44.6 0 0 11.24 -69.04 0c-0.12,4.04 -0.24,8.15 -0.36,12.31 -0.12,4.16 -0.3,8.33 -0.54,12.49l-0.35 6.06 54.23 0c-0.24,12.13 -0.59,24.38 -1.07,36.75 -0.47,12.37 -1.07,23.91 -1.78,34.61 -0.24,3.57 -0.69,6.57 -1.34,9.01 -0.66,2.44 -1.7,4.46 -3.12,6.07 -1.43,1.6 -3.33,2.82 -5.71,3.66 -2.38,0.83 -5.35,1.48 -8.92,1.96 -1.55,0.24 -3.36,0.41 -5.44,0.53 -2.08,0.12 -4.26,0.21 -6.51,0.27 -2.26,0.06 -4.46,0.09 -6.61,0.09 -2.14,0 -4.1,0 -5.88,0l-2.32 -13.74c3.45,0.24 7.28,0.42 11.5,0.54 4.23,0.12 8.06,0.06 11.51,-0.18 2.26,-0.12 4.1,-0.33 5.53,-0.62 1.43,-0.3 2.5,-0.78 3.21,-1.43 0.72,-0.66 1.22,-1.58 1.52,-2.77 0.3,-1.19 0.56,-2.79 0.8,-4.81 0.36,-3.69 0.66,-8.03 0.89,-13.03 0.24,-4.99 0.48,-10.14 0.72,-15.43 0.24,-5.29 0.44,-10.58 0.62,-15.88 0.18,-5.29 0.27,-10.19 0.27,-14.71l-42.82 0c-1.42,18.91 -3.98,33.89 -7.67,44.95 -2.38,7.26 -5.94,14.66 -10.7,22.21 -4.76,7.56 -10.76,14.78 -18.02,21.68l-9.45 -7.67c7.13,-6.31 13.08,-13.14 17.84,-20.52 4.75,-7.37 8.08,-14.15 9.99,-20.34 4.04,-12.72 6.66,-32.35 7.85,-58.87l0.71 -23.19 -20.87 0 0 -11.24 44.95 0zm-97.05 -14.63l50.49 0 0 10.71c-1.78,6.89 -3.98,14.21 -6.6,21.94 -2.62,7.73 -5.35,15.16 -8.21,22.3 4.64,6.42 8.18,13.38 10.62,20.87 2.44,7.5 3.6,15.05 3.48,22.66 0,4.04 -0.33,7.49 -0.98,10.35 -0.66,2.85 -1.7,5.23 -3.13,7.13 -1.42,1.91 -3.36,3.33 -5.79,4.28 -2.44,0.96 -5.51,1.55 -9.19,1.79 -1.9,0.24 -3.93,0.38 -6.07,0.44 -2.14,0.06 -4.04,0.03 -5.71,-0.09l-2.14 -11.77c1.67,0.24 3.48,0.42 5.44,0.54 1.97,0.11 4.14,0.11 6.52,0 2.26,-0.12 4.04,-0.39 5.35,-0.81 1.31,-0.41 2.29,-1.16 2.94,-2.23 0.66,-1.07 1.1,-2.52 1.34,-4.37 0.24,-1.84 0.42,-4.25 0.53,-7.22 0.24,-6.78 -0.95,-13.62 -3.56,-20.52 -2.62,-6.9 -6.25,-13.32 -10.89,-19.27 1.43,-3.56 2.89,-7.37 4.37,-11.41 1.49,-4.05 2.86,-8.09 4.11,-12.14 1.25,-4.04 2.41,-7.93 3.48,-11.68 1.07,-3.75 1.96,-7.17 2.67,-10.26l-28.36 0 0 145.75 -10.71 0 0 -156.99z"/>
  <path id="3" class="fil6" d="M3010.14 970.02c13.79,-7.61 25.39,-15.58 34.79,-23.9 9.39,-8.33 16.83,-16.71 22.3,-25.16 5.47,-8.56 9.69,-17.92 12.66,-28.09 2.98,-10.17 4.46,-21.38 4.46,-33.63l0 -44.24 12.31 0 0 46.2c0,3.93 -0.18,7.73 -0.53,11.42 1.66,19.15 8.47,36.78 20.42,52.89 11.96,16.12 29.65,30.3 53.08,42.55l-6.78 12.31c-25.45,-14.39 -44.48,-30.56 -57.09,-48.52 -3.33,-4.76 -6.27,-9.73 -8.83,-14.9 -2.56,-5.17 -4.67,-10.61 -6.33,-16.32 -1.55,4.75 -3.36,9.33 -5.44,13.73 -2.09,4.4 -4.43,8.69 -7.05,12.85 -11.78,18.91 -31.82,36.81 -60.12,53.7l-7.85 -10.89zm105.08 -78.49c6.54,-7.49 12.84,-15.67 18.91,-24.53 6.06,-8.86 11.41,-17.93 16.05,-27.21l11.06 6.43c-4.99,9.63 -10.31,18.7 -15.96,27.2 -5.65,8.5 -12.16,17.22 -19.54,26.14l-10.52 -8.03zm-85.81 -51.92c2.61,2.86 5.47,6.4 8.56,10.62 3.09,4.22 6.54,9.07 10.35,14.54 3.8,5.47 7.1,10.44 9.9,14.9 2.79,4.46 5.14,8.41 7.04,11.86l-10.52 7.67c-1.79,-3.57 -4.08,-7.58 -6.87,-12.04 -2.79,-4.46 -6.1,-9.43 -9.9,-14.9 -3.81,-5.47 -7.26,-10.32 -10.35,-14.54 -3.09,-4.22 -5.89,-7.82 -8.38,-10.79l10.17 -7.32z"/>
  <path id="4" class="fil6" d="M3338.75 898.13l0 78.5 -93.12 0 0 -78.5 93.12 0zm-82.24 69.22l71.18 0 0 -59.94 -71.18 0 0 59.94zm40.32 -153.25l0 18.56 48.17 0 0 9.1 -48.17 0 0 33.71 53.52 0 0 9.64 -114.18 0 0 -9.64 49.24 0 0 -33.71 -44.6 0 0 -9.1 44.6 0 0 -18.56 11.42 0zm-88.13 47.1l0 -44.96 11.06 0 0 44.96 19.8 0 0 10.7 -19.8 0 0 62.44c3.69,-1.3 7.13,-2.58 10.35,-3.83 3.21,-1.25 6,-2.41 8.38,-3.48l1.07 6.07 1.25 6.06c-3.09,1.31 -6.69,2.77 -10.79,4.37 -4.11,1.61 -8.45,3.21 -13.03,4.82 -4.58,1.6 -9.24,3.15 -14,4.64 -4.76,1.48 -9.28,2.76 -13.56,3.83l-3.21 -12.48c3.21,-0.72 6.75,-1.61 10.61,-2.68 3.87,-1.07 7.82,-2.26 11.87,-3.57l0 -66.19 -20.16 0 0 -10.7 20.16 0zm105.43 58.87l0 32.83 -43.88 0 0 -32.83 43.88 0zm-35.32 24.27l26.58 0 0 -15.7 -26.58 0 0 15.7zm29.43 -77.25c3.1,-2.5 6.61,-6.19 10.53,-11.06 2.02,-2.62 3.81,-4.97 5.35,-7.05 1.55,-2.08 2.92,-3.95 4.11,-5.62l8.2 6.07c-2.38,3.45 -5.59,7.73 -9.63,12.84 -2.02,2.62 -3.99,4.91 -5.89,6.87 -1.9,1.96 -3.57,3.6 -4.99,4.91l-7.68 -6.96zm-53.69 -23.91c2.73,2.74 6.24,6.6 10.52,11.6 4.28,4.87 7.55,8.98 9.81,12.31l-7.85 6.42c-2.26,-3.33 -5.41,-7.37 -9.45,-12.13 -2.02,-2.62 -3.93,-4.91 -5.71,-6.87 -1.78,-1.96 -3.33,-3.6 -4.64,-4.91l7.32 -6.42z"/>
  <path class="fil6" d="M5303.64 825.34l0 130.23c0,3.69 -0.12,6.87 -0.36,9.55 -0.24,2.67 -0.98,4.9 -2.23,6.69 -1.25,1.78 -3.12,3.24 -5.62,4.37 -2.49,1.13 -5.94,1.93 -10.34,2.41 -2.86,0.24 -6.13,0.41 -9.82,0.53 -3.68,0.12 -7.96,0.18 -12.84,0.18l-2.32 -13.02c4.76,0.24 9.16,0.41 13.2,0.53 4.04,0.12 7.26,0.12 9.63,0 2.26,-0.12 4.02,-0.38 5.27,-0.8 1.25,-0.42 2.2,-1.13 2.85,-2.14 0.66,-1.01 1.07,-2.44 1.25,-4.28 0.18,-1.85 0.27,-4.19 0.27,-7.05l0 -115.96 -116.85 0 0 143.97 -11.06 0 0 -155.21 138.97 0zm-77.96 127.2c5.71,-8.56 11.03,-17.24 15.97,-26.05 4.93,-8.8 9.54,-17.72 13.82,-26.76 -7.61,-14.51 -14.33,-26.04 -20.16,-34.6l8.57 -5.71c2.49,3.56 5.17,7.67 8.02,12.31 2.86,4.63 5.89,9.93 9.1,15.87 5.35,-12.48 9.99,-24.79 13.92,-36.93l10.17 3.57c-5.24,15.58 -11.12,30.69 -17.67,45.32 0.12,0.35 0.42,0.89 0.9,1.6 9.51,18.08 16.41,32.95 20.69,44.6l-9.45 4.64c-2.03,-5.23 -4.46,-10.97 -7.32,-17.22 -2.85,-6.24 -6.36,-13.4 -10.52,-21.49 -3.93,8.2 -8.15,16.2 -12.67,23.99 -4.52,7.79 -9.34,15.55 -14.45,23.28l-8.92 -6.42zm-47.1 -2.32c4.64,-7.13 9.19,-14.6 13.65,-22.39 4.46,-7.79 8.77,-16.08 12.93,-24.88l1.96 -4.11 -0.53 -1.25c-4.16,-8.56 -8.06,-16.11 -11.69,-22.65 -3.62,-6.54 -6.98,-12.13 -10.08,-16.77l8.75 -5.35c5.35,7.85 11.77,19.02 19.26,33.53 2.74,-6.06 5.27,-12.19 7.59,-18.37 2.31,-6.18 4.54,-12.43 6.69,-18.73l9.99 3.74c-2.86,7.97 -5.74,15.67 -8.66,23.11 -2.91,7.43 -6.09,14.89 -9.54,22.39 3.45,7.13 6.45,13.58 9.01,19.35 2.56,5.77 4.67,10.97 6.33,15.61l-9.63 4.82c-1.31,-3.93 -2.95,-8.12 -4.91,-12.58 -1.96,-4.46 -4.19,-9.36 -6.69,-14.72 -4.16,8.45 -8.26,16.36 -12.31,23.73 -4.04,7.38 -8.32,14.45 -12.84,21.23l-9.28 -5.71z"/>
  <path id="1" class="fil6" d="M5445.65 815.53l0 31.04 47.63 0 0 10.71 -47.63 0 0 38.53 35.85 0 0 79.92 -75.99 0 0 -79.92 28.36 0 0 -80.28 11.78 0zm-28.73 149.5l52.99 0 0 -58.52 -52.99 0 0 58.52zm-87.23 -9.99c4.52,-0.48 9.81,-1.16 15.87,-2.05 6.07,-0.89 12.85,-2.05 20.34,-3.48 0.24,0 0.48,-0.03 0.71,-0.09 0.24,-0.06 0.48,-0.09 0.72,-0.09 1.66,-5.11 3.36,-10.97 5.08,-17.57 1.73,-6.6 3.54,-14.13 5.44,-22.57 2.03,-9.28 3.66,-17.51 4.91,-24.71 1.25,-7.19 2.17,-13.53 2.76,-19l11.24 1.79c-0.59,5.47 -1.57,11.8 -2.94,19 -1.37,7.19 -3.12,15.43 -5.26,24.7 -1.67,7.26 -3.27,13.86 -4.82,19.81 -1.55,5.94 -3.09,11.3 -4.64,16.05 4.52,-0.95 8.6,-1.87 12.22,-2.76 3.63,-0.89 6.99,-1.82 10.08,-2.77l1.43 11.6c-4.52,1.31 -9.72,2.61 -15.61,3.92 -5.89,1.31 -12.58,2.62 -20.07,3.93 -7.49,1.31 -14.18,2.44 -20.07,3.39 -5.89,0.95 -11.09,1.72 -15.61,2.32l-1.78 -11.42zm75.82 -109.18l0 11.06 -72.43 0 0 -11.06 72.43 0zm-55.67 20.34c1.08,3.56 2.29,8.11 3.66,13.64 1.37,5.53 2.71,11.39 4.02,17.58 1.3,6.18 2.55,12.31 3.74,18.37 1.19,6.07 2.08,11.48 2.68,16.24l-10.71 2.14c-0.71,-5.12 -1.57,-10.5 -2.58,-16.15 -1.01,-5.65 -2.11,-11.3 -3.3,-16.95 -1.19,-5.65 -2.47,-11.18 -3.84,-16.59 -1.37,-5.41 -2.7,-10.55 -4.01,-15.43l10.34 -2.85zm16.95 -54.77c0.95,1.9 1.94,4.07 2.95,6.51 1.01,2.44 2.02,4.99 3.03,7.67 1.01,2.68 1.96,5.29 2.85,7.85 0.9,2.56 1.64,4.91 2.23,7.05l-10.52 3.56c-1.31,-4.75 -2.92,-9.72 -4.82,-14.89 -1.9,-5.18 -3.86,-9.9 -5.89,-14.19l10.17 -3.56z"/>
  <path id="2" class="fil6" d="M5658.3 825.52l0 48.17 -79.21 0 0 -48.17 79.21 0zm-45.14 135.94l0 -23.37 -37.64 0 0 -11.06 37.64 0 0 -23.73 -40.32 0 0 -11.24 93.49 0 0 11.24 -42.11 0 0 23.73 37.47 0 0 11.06 -37.47 0 0 23.37 47.82 0 0 11.78 -109.36 0 0 -11.78 50.48 0zm-101.68 -128.45c4.4,-0.47 9.06,-1.19 14,-2.14 4.94,-0.95 9.9,-1.99 14.9,-3.12 4.99,-1.13 9.81,-2.38 14.45,-3.75 4.63,-1.36 8.86,-2.76 12.66,-4.19l4.11 11.6c-4.05,1.31 -8.09,2.55 -12.14,3.74 -4.04,1.19 -8.26,2.26 -12.66,3.22l0 28.18 23.9 0 0 11.24 -23.9 0 0 11.06c2.73,2.86 5.35,5.71 7.85,8.57 2.5,2.85 4.93,5.64 7.31,8.38 5.12,5.95 8.8,10.7 11.06,14.27l-8.74 7.67c-1.19,-1.78 -2.61,-3.83 -4.28,-6.15 -1.67,-2.32 -3.63,-4.85 -5.89,-7.58 -1.42,-1.79 -2.73,-3.42 -3.92,-4.91 -1.19,-1.49 -2.32,-2.88 -3.39,-4.19l0 77.6 -10.53 0 0 -75.64c-2.73,7.14 -5.65,13.98 -8.74,20.52 -3.09,6.54 -6.24,12.66 -9.45,18.37l-10.17 -5.71c6.18,-10.11 11.62,-20.57 16.32,-31.4 4.7,-10.82 8.53,-21.11 11.51,-30.86l-24.62 0 0 -11.24 25.15 0 0 -26.04c-3.45,0.59 -6.93,1.19 -10.43,1.78 -3.51,0.59 -7.23,1.13 -11.15,1.61l-3.21 -10.89zm78.67 30.33l56.91 0 0 -27.65 -56.91 0 0 27.65z"/>
  <path id="3" class="fil6" d="M5756.06 876.01c1.79,1.07 3.87,2.29 6.25,3.65 2.37,1.37 4.87,2.86 7.49,4.46 2.61,1.61 5.29,3.25 8.03,4.91 2.73,1.67 5.35,3.33 7.85,5 11.65,-6.43 23.07,-13.98 34.25,-22.66l-85.45 0 0 -10.35 101.86 0 0 10.71c-6.9,5.59 -13.76,10.67 -20.6,15.25 -6.84,4.58 -13.95,8.95 -21.32,13.11l2.85 2.14 -3.21 3.57 53.7 0 0 9.99c-2.86,5.71 -5.8,11.33 -8.83,16.86 -3.03,5.53 -6.22,10.79 -9.55,15.79l-10.34 -4.64c5.94,-8.68 11.41,-17.9 16.41,-27.65l-41.92 0 0 45.85c0,3.45 -0.24,6.3 -0.72,8.56 -0.47,2.26 -1.25,4.07 -2.32,5.44 -1.07,1.37 -2.52,2.38 -4.37,3.03 -1.84,0.66 -4.07,1.1 -6.69,1.34 -4.28,0.48 -8.68,0.77 -13.2,0.89 -4.52,0.12 -8.68,0.06 -12.49,-0.17l-2.32 -12.31c7.26,0.59 14.28,0.77 21.05,0.53 2.03,0 3.66,-0.12 4.91,-0.36 1.25,-0.23 2.23,-0.71 2.94,-1.42 0.72,-0.72 1.19,-1.76 1.43,-3.13 0.24,-1.36 0.36,-3.24 0.36,-5.61l0 -42.64 -56.2 0 0 -10.35 58.87 0c-6.06,-4.4 -11.86,-8.38 -17.39,-11.95 -5.53,-3.57 -11.27,-7.08 -17.22,-10.53l5.89 -7.31zm-66.54 101.33c7.85,-13.2 12.96,-25.81 15.34,-37.82 1.19,-6.07 2.08,-13.14 2.68,-21.23 0.59,-8.09 0.89,-17.37 0.89,-27.83l0 -57.27 66.72 0 -1.96 -4.99c-0.95,-2.5 -1.82,-4.7 -2.59,-6.6 -0.77,-1.91 -1.46,-3.57 -2.05,-5l11.6 -2.85c1.3,2.85 3.09,7.25 5.35,13.2 0.83,2.14 1.54,4.22 2.14,6.24l62.08 0 0 10.71 -129.87 0 0 45.31c0,11.89 -0.33,22.3 -0.98,31.22 -0.66,8.92 -1.64,16.47 -2.95,22.66 -2.5,12.25 -7.91,25.63 -16.23,40.14l-10.17 -5.89z"/>
  <path class="fil0" d="M5435.01 296.24c5.23,5.23 5.23,13.64 0,18.78 -2.56,2.57 -6.01,3.9 -9.38,3.9 -3.37,0 -6.83,-1.33 -9.39,-3.9l-31.82 -31.81c-2.47,-2.48 -3.89,-5.84 -3.89,-9.39 0,-3.54 1.42,-6.91 3.89,-9.39l31.28 -31.27c5.23,-5.23 13.65,-5.23 18.79,0 5.13,5.22 5.22,13.64 0,18.78l-21.89 21.88 22.41 22.42zm-228.99 -170.75l0 -13.59 602.46 0 0 -67.49c0,-11.78 -4.68,-23.07 -13.01,-31.4 -8.33,-8.33 -19.63,-13 -31.4,-13l-513.65 0c-11.76,0 -23.07,4.67 -31.4,13 -8.32,8.33 -13,19.62 -13,31.4l0 419.62c0,11.77 4.68,23.08 13,31.41 8.33,8.32 19.64,13 31.4,13l513.65 0c11.77,0 23.07,-4.68 31.4,-13 8.33,-8.33 13.01,-19.64 13.01,-31.41l0 -26.48 0 -194.9 0 -95.74 0 -21.42 -602.46 0zm32.76 31.11l536.93 0 0 295.07c0,13.98 -11.44,25.42 -25.42,25.42l-486.09 0c-13.98,0 -25.42,-11.44 -25.42,-25.42l0 -295.07zm502.08 -114.53c7.21,0 13.69,4.34 16.45,10.99 2.76,6.65 1.23,14.31 -3.85,19.4 -5.1,5.09 -12.75,6.62 -19.41,3.86 -6.65,-2.76 -10.98,-9.24 -10.98,-16.45 0,-9.82 7.96,-17.8 17.79,-17.8zm-46.14 0c9.83,0 17.8,7.98 17.8,17.8 0,9.83 -7.97,17.8 -17.8,17.8 -9.84,0 -17.8,-7.97 -17.8,-17.8 0,-9.82 7.96,-17.8 17.8,-17.8zm-46.14 0c9.82,0 17.79,7.98 17.79,17.8 0,9.83 -7.97,17.8 -17.79,17.8 -9.84,0 -17.81,-7.97 -17.81,-17.8 0,-9.82 7.96,-17.8 17.8,-17.8l0.01 0zm-21.31 222.18c2.49,2.48 3.9,5.85 3.9,9.39 0,3.55 -1.41,6.91 -3.9,9.4l-31.8 31.8c-2.57,2.58 -6.03,3.91 -9.39,3.91 -3.37,0 -6.83,-1.33 -9.4,-3.91 -5.23,-5.22 -5.23,-13.64 0,-18.78l22.41 -22.42 -21.88 -21.88c-5.23,-5.23 -5.23,-13.64 0,-18.78 5.23,-5.23 13.65,-5.23 18.79,0l31.27 31.27zm-83.77 -39.07l-47.39 105.79c-2.22,4.97 -7.09,7.89 -12.14,7.89 -1.78,0 -3.64,-0.36 -5.41,-1.15 -6.73,-3.01 -9.66,-10.9 -6.73,-17.55l47.4 -105.79c3.01,-6.74 10.9,-9.66 17.54,-6.74 6.73,2.93 9.75,10.81 6.73,17.55z"/>
  <polygon class="fil2" points="4644.3,327.36 4673.7,327.36 4649.2,350.63 4611.23,388.61 4596.53,373.91 4619.81,350.63 3706.04,350.63 3706.04,327.36 "/>
  <g id="_2844338840032">
   <path class="fil3" d="M5507.25 359.23c-81.33,0 -147.21,65.87 -147.21,147.2 0,81.33 65.88,147.2 147.21,147.2 81.32,0 147.2,-65.87 147.2,-147.2 0,-81.33 -65.88,-147.2 -147.2,-147.2z"/>
   <path class="fil4" d="M5601.45 456.89l-116.28 116.29c-6.63,6.63 -17.12,6.63 -23.74,0l-6.26 -6.26 -42.32 -42.31c-5.52,-5.52 -4.96,-14.73 1.47,-19.32 5.15,-3.68 12.33,-2.95 16.75,1.65l42.31 41.77 110.22 -110.22c5.53,-5.51 14.73,-4.96 19.33,1.48 3.86,5.33 3.12,12.51 -1.48,16.92z"/>
  </g>
  <path class="fil7" d="M1233.95 706.21c3.33,-4.4 6.56,-9.19 9.69,-14.38 3.12,-5.18 5.98,-10.53 8.58,-16.06 2.59,-5.52 4.91,-11.05 6.96,-16.57 2.06,-5.53 3.67,-10.78 4.84,-15.77l9.24 2.49c-1.07,3.91 -2.24,7.8 -3.52,11.66 -1.27,3.87 -2.64,7.7 -4.1,11.52l58.23 0 0 9.09 -15.55 0c-3.23,25.04 -10.07,45.03 -20.53,59.99l-2.5 3.52c4.99,5.87 10.78,11.4 17.38,16.58 6.6,5.18 14.21,10.12 22.81,14.81l-6.3 9.68c-9,-5.67 -16.77,-11.17 -23.33,-16.5 -6.55,-5.33 -12.27,-10.92 -17.16,-16.79 -5.47,5.87 -11.9,11.54 -19.29,17.01 -7.38,5.48 -15.96,11 -25.74,16.58l-6.45 -8.95c20.14,-10.85 35.25,-21.76 45.32,-32.71 -4.4,-6.45 -8.12,-13.4 -11.15,-20.83 -3.03,-7.43 -5.72,-15.84 -8.06,-25.23 -1.67,2.94 -3.4,5.8 -5.21,8.58 -1.81,2.79 -3.69,5.5 -5.65,8.15l-8.51 -5.87zm-44.29 47.82c2.74,-0.49 6.21,-1.28 10.41,-2.35 4.21,-1.08 8.66,-2.3 13.35,-3.67l0 -76.27 -19.95 0 0 -9.1 49.43 0 0 9.1 -19.8 0 0 73.48c4.4,-1.36 8.58,-2.71 12.54,-4.03 3.96,-1.32 7.51,-2.57 10.64,-3.74l1.61 9.83c-3.23,1.27 -7.29,2.71 -12.18,4.33 -4.88,1.61 -9.99,3.22 -15.32,4.84 -5.33,1.61 -10.52,3.1 -15.55,4.47 -5.04,1.37 -9.27,2.44 -12.69,3.23l-2.49 -10.12zm72.16 -75.84c-0.39,0.98 -0.78,1.93 -1.17,2.86 -0.39,0.93 -0.83,1.88 -1.32,2.86 1.96,9.78 4.52,18.73 7.7,26.84 3.18,8.12 7.16,15.7 11.96,22.74 0.78,-0.98 1.46,-1.96 2.05,-2.93 4.4,-7.04 8.02,-14.87 10.85,-23.47 2.84,-8.61 4.94,-18.24 6.31,-28.9l-36.38 0z"/>
  <polygon id="1" class="fil7" points="1410.12,643.58 1410.12,667.34 1461.46,667.34 1461.46,676.73 1410.12,676.73 1410.12,703.57 1470.84,703.57 1470.84,713.1 1410.12,713.1 1410.12,767.96 1446.49,767.96 1446.49,725.72 1456.17,725.72 1456.17,777.64 1354.23,777.64 1354.23,726.01 1363.91,726.01 1363.91,767.96 1400.44,767.96 1400.44,713.1 1339.42,713.1 1339.42,703.57 1400.44,703.57 1400.44,676.73 1348.8,676.73 1348.8,667.34 1400.44,667.34 1400.44,643.58 "/>
  <path id="2" class="fil7" d="M1555.18 768.4c3.33,0.2 6.85,0.37 10.56,0.51 3.72,0.15 7.39,0.17 11.01,0.08 1.56,0 2.78,-0.08 3.66,-0.22 0.88,-0.15 1.54,-0.47 1.98,-0.96 0.44,-0.49 0.71,-1.15 0.81,-1.98 0.1,-0.83 0.15,-1.93 0.15,-3.3l0 -55.3 -50.46 0 0 -9.38 85.22 0 0 9.38 -24.79 0 0 56.62c0,2.64 -0.24,4.84 -0.73,6.6 -0.49,1.76 -1.25,3.18 -2.28,4.26 -1.02,1.07 -2.39,1.88 -4.1,2.42 -1.71,0.54 -3.79,0.9 -6.24,1.1 -3.62,0.39 -7.45,0.61 -11.51,0.66 -4.06,0.05 -7.8,0.07 -11.22,0.07l-2.06 -10.56zm-72.31 -36.96c3.52,-3.62 7.09,-7.41 10.71,-11.37 3.62,-3.96 7.16,-8.04 10.63,-12.25 3.47,-4.2 6.77,-8.41 9.9,-12.61 3.13,-4.21 6.02,-8.31 8.66,-12.32l7.62 4.84c-2.24,3.42 -4.59,6.84 -7.04,10.26 -2.44,3.43 -4.98,6.85 -7.62,10.27l0 72.75 -9.68 0 0 -61.01c-2.84,3.32 -5.68,6.47 -8.51,9.46 -2.84,2.98 -5.58,5.74 -8.22,8.28l-6.45 -6.3zm128.93 -77.45l0 9.39 -69.38 0 0 -9.39 69.38 0zm-126.29 28.9c2.84,-2.25 5.94,-4.92 9.31,-8 3.38,-3.08 6.75,-6.31 10.13,-9.68 3.37,-3.37 6.6,-6.77 9.68,-10.19 3.08,-3.43 5.64,-6.6 7.7,-9.54l7.48 5.28c-5.18,7.04 -11.1,13.91 -17.75,20.61 -6.65,6.7 -13.49,12.74 -20.54,18.12l-6.01 -6.6z"/>
  <path id="3" class="fil7" d="M1700.98 645.19c-0.29,6.36 -0.58,12.32 -0.88,17.89 -0.29,5.58 -0.68,10.96 -1.17,16.14l54.57 0c-0.3,14.18 -0.76,28.19 -1.4,42.02 -0.63,13.84 -1.44,26.53 -2.42,38.07 -0.29,3.42 -0.81,6.16 -1.54,8.21 -0.73,2.05 -1.86,3.69 -3.37,4.91 -1.52,1.23 -3.5,2.11 -5.94,2.64 -2.45,0.54 -5.58,0.96 -9.39,1.25 -1.76,0.2 -3.67,0.34 -5.72,0.44 -2.05,0.1 -4.11,0.17 -6.16,0.22 -2.06,0.05 -4.06,0.07 -6.02,0.07 -1.95,0 -3.66,0 -5.13,0l-2.05 -10.7c3.62,0.29 7.33,0.49 11.14,0.58 3.82,0.1 7.63,0.05 11.45,-0.14 2.64,-0.1 4.76,-0.3 6.38,-0.59 1.61,-0.29 2.88,-0.78 3.81,-1.47 0.93,-0.68 1.61,-1.68 2.05,-3 0.44,-1.32 0.76,-3.11 0.96,-5.36 0.49,-4.89 0.95,-10.31 1.39,-16.28 0.44,-5.96 0.83,-12.03 1.17,-18.19 0.35,-6.16 0.59,-12.12 0.74,-17.89 0.14,-5.77 0.22,-10.86 0.22,-15.26l-45.77 0c-1.27,9.39 -3.08,18.19 -5.42,26.41 -2.35,8.21 -5.68,16.03 -9.98,23.46 -4.3,7.44 -9.8,14.67 -16.5,21.71 -6.7,7.04 -14.94,14.08 -24.72,21.12l-6.89 -8.36c8.9,-6.25 16.45,-12.41 22.66,-18.48 6.21,-6.06 11.37,-12.44 15.48,-19.14 4.1,-6.7 7.36,-13.84 9.75,-21.41 2.4,-7.58 4.28,-16.02 5.65,-25.31l-50.17 0 0 -9.53 51.34 0c0.49,-5.18 0.93,-10.66 1.32,-16.43 0.39,-5.77 0.69,-11.64 0.88,-17.6l9.68 0zm21.27 92.7c-1.66,-2.25 -3.54,-4.64 -5.65,-7.19 -2.1,-2.54 -4.22,-5.06 -6.38,-7.55 -2.15,-2.49 -4.22,-4.82 -6.23,-6.97 -2,-2.15 -3.74,-3.96 -5.21,-5.43l7.04 -6.3c1.57,1.66 3.45,3.66 5.65,6.01 2.2,2.35 4.4,4.79 6.6,7.34 2.2,2.54 4.33,5.01 6.38,7.4 2.06,2.4 3.77,4.48 5.14,6.24l-7.34 6.45zm-52.51 -62.48c-1.47,-1.96 -3.13,-4.06 -4.99,-6.31 -1.85,-2.25 -3.74,-4.45 -5.64,-6.6 -1.91,-2.15 -3.74,-4.16 -5.5,-6.02 -1.76,-1.85 -3.28,-3.42 -4.55,-4.69l6.89 -6.01c1.37,1.36 2.96,3 4.77,4.91 1.81,1.91 3.69,3.94 5.65,6.09 1.95,2.15 3.88,4.32 5.79,6.52 1.91,2.2 3.59,4.18 5.06,5.94l-7.48 6.17z"/>
 </g>
</svg>
