<?xml version="1.0" encoding="UTF-8"?>
<!DOCTYPE svg PUBLIC "-//W3C//DTD SVG 1.1//EN" "http://www.w3.org/Graphics/SVG/1.1/DTD/svg11.dtd">
<!-- Creator: CorelDRAW 2019 (64-Bit) -->
<svg xmlns="http://www.w3.org/2000/svg" xml:space="preserve" width="12.4324mm" height="4.632mm" version="1.1" style="shape-rendering:geometricPrecision; text-rendering:geometricPrecision; image-rendering:optimizeQuality; fill-rule:evenodd; clip-rule:evenodd"
viewBox="0 0 229.56 85.53"
 xmlns:xlink="http://www.w3.org/1999/xlink">
 <defs>
  <style type="text/css">
   <![CDATA[
    .fil0 {fill:#2979FF;fill-rule:nonzero}
   ]]>
  </style>
 </defs>
 <g id="图层_x0020_1">
  <metadata id="CorelCorpID_0Corel-Layer"/>
  <g id="_2844338851712">
   <polygon class="fil0" points="144.16,61.54 139.29,61.54 139.29,70.36 129.01,70.36 129.01,61.54 104.66,61.54 104.66,52.4 121.87,15.17 132.29,15.17 115.01,52.4 129.01,52.4 129.01,39.45 139.29,39.45 139.29,52.4 144.16,52.4 "/>
   <path id="1" class="fil0" d="M150.78 51l0 -17.09c0,-6.46 1.53,-11.34 4.61,-14.64 3.06,-3.3 7.57,-4.95 13.51,-4.95 6.04,0 10.55,1.65 13.55,4.95 2.99,3.31 4.48,8.18 4.48,14.64l0 17.09c0,6.69 -1.49,11.72 -4.48,15.11 -3.03,3.4 -7.53,5.1 -13.55,5.1 -12.08,0 -18.12,-6.73 -18.12,-20.21zm24.17 8.31c1.18,-1.93 1.78,-4.98 1.78,-9.18l0 -14.67c0,-4.22 -0.61,-7.26 -1.82,-9.14 -1.22,-1.86 -3.22,-2.81 -6.01,-2.81 -2.79,0 -4.79,0.95 -6.01,2.81 -1.22,1.88 -1.83,4.92 -1.83,9.14l0 14.67c0,4.22 0.61,7.28 1.83,9.18 1.22,1.89 3.22,2.85 6.01,2.85 2.86,0 4.88,-0.96 6.05,-2.85z"/>
   <path id="2" class="fil0" d="M199.31 67.47c-3.08,-2.49 -4.61,-5.95 -4.61,-10.38l0 -0.63 9.74 0 0 0.31c0,1.65 0.67,3 2.01,4.06 1.32,1.04 3.12,1.56 5.38,1.56 2.53,0 4.44,-0.75 5.74,-2.27 1.29,-1.5 1.94,-3.61 1.94,-6.31l0 -2.51c0,-2.84 -0.65,-4.98 -1.98,-6.43 -1.32,-1.48 -3.22,-2.22 -5.7,-2.22 -1.67,0 -3.14,0.35 -4.38,1.05 -1.25,0.71 -2.2,1.68 -2.86,2.93l-8.91 0 0 -31.47 32.28 0 0 8.98 -23.52 0 0 12.88c2.56,-1.97 5.74,-2.97 9.52,-2.97 4.91,0 8.74,1.49 11.48,4.45 2.74,2.97 4.12,7.11 4.12,12.42l0 3.05c0,5.41 -1.56,9.63 -4.69,12.68 -3.12,3.04 -7.49,4.56 -13.12,4.56 -5.23,0 -9.38,-1.24 -12.44,-3.74z"/>
   <path class="fil0" d="M96.17 75.35l0 -0.01 -41.56 -71.98 -0.01 0c-0.52,-1.91 -2.9,-3.35 -5.75,-3.35 -2.87,0 -5.24,1.47 -5.74,3.41l-42.54 73.67 0.04 0.05c-0.97,0.96 -0.78,3.26 0.53,5.39 1.33,2.18 3.33,3.4 4.62,2.9l0.05 0.08 86.11 0 0.05 -0.11c1.44,0.22 3.21,-1.04 4.31,-3.29 1.29,-2.59 1.21,-5.5 -0.1,-6.74zm-53.34 -49.36c0,-3.19 2.59,-5.77 5.77,-5.77 3.19,0 5.77,2.58 5.77,5.77l0 29.74c0,3.18 -2.58,5.77 -5.77,5.77 -3.18,0 -5.77,-2.59 -5.77,-5.77l0 -29.74zm5.77 51.91c-3.46,0 -6.28,-2.81 -6.28,-6.28 0,-3.47 2.81,-6.26 6.28,-6.26 3.46,0 6.28,2.8 6.28,6.26 0,3.46 -2.81,6.28 -6.28,6.28z"/>
  </g>
 </g>
</svg>
