<?xml version="1.0" encoding="utf-8"?>
<!-- Generator: Adobe Illustrator 26.3.1, SVG Export Plug-In . SVG Version: 6.00 Build 0)  -->
<svg version="1.1" id="图层_1" xmlns="http://www.w3.org/2000/svg" xmlns:xlink="http://www.w3.org/1999/xlink" x="0px" y="0px"
	 viewBox="0 0 120 120" width="120px" height="120px" style="enable-background:new 0 0 120 120;" xml:space="preserve">
<style type="text/css">
	.st0{clip-path:url(#SVGID_00000076584894709605250540000008262997579216339123_);}
	.st1{fill-rule:evenodd;clip-rule:evenodd;fill:#3B80BE;}
	.st2{clip-path:url(#SVGID_00000079472210479187177970000003403216693953561504_);}
	.st3{clip-path:url(#SVGID_00000065043783544358334900000007905535929847207091_);}
	.st4{clip-path:url(#SVGID_00000079464689849916374190000001839151096295737506_);}
	.st5{clip-path:url(#SVGID_00000000930866982736879190000010486273090166876562_);}
	.st6{clip-path:url(#SVGID_00000060736097388634892130000010559809560253744523_);}
	.st7{clip-path:url(#SVGID_00000121253267738799056800000009312566247331394960_);}
	.st8{clip-path:url(#SVGID_00000070823292031212734070000010975462560711500427_);}
	.st9{fill:#E62129;}
	.st10{fill-rule:evenodd;clip-rule:evenodd;fill:#E62129;}
	.st11{clip-path:url(#SVGID_00000079487307851776371100000017424653460314129334_);}
	.st12{clip-path:url(#SVGID_00000159442728310352924940000007428249061165178260_);}
	.st13{clip-path:url(#SVGID_00000149349094597775376760000015062398539591658146_);}
	.st14{clip-path:url(#SVGID_00000115514979053161379530000010068423225429881732_);}
	.st15{clip-path:url(#SVGID_00000175295327792492064710000002708772244355062719_);}
	.st16{clip-path:url(#SVGID_00000162320692672614756510000014699854322370674322_);}
	.st17{clip-path:url(#SVGID_00000077314591440584715040000002130103703397364886_);}
	.st18{clip-path:url(#SVGID_00000170280790781333689650000011119229270482239629_);}
	.st19{clip-path:url(#SVGID_00000152958027536271700800000004003504305583341728_);}
	.st20{clip-path:url(#SVGID_00000046306357346631046350000005128288229813998001_);}
	.st21{clip-path:url(#SVGID_00000134243046662905200860000001454082448249842360_);}
	.st22{clip-path:url(#SVGID_00000144300204885428324580000010980325427103211143_);}
	.st23{clip-path:url(#SVGID_00000070114205058532719560000007096283401993370248_);}
	.st24{clip-path:url(#SVGID_00000080171526801086397370000009075009310890162073_);}
	.st25{clip-path:url(#SVGID_00000113312852632768737790000009061178648299374243_);}
	.st26{clip-path:url(#SVGID_00000137116530582670846740000009195226430037110145_);}
	.st27{clip-path:url(#SVGID_00000151520259596774108090000014940315154963741360_);}
</style>
<g>
	<polygon class="st9" points="82.75,54.7 65.3,54.73 60,39.02 54.7,54.73 37.25,54.7 51.39,64.5 46,80.26 60,70.48 73.99,80.26 
		68.62,64.5 	"/>
	<g>
		<g>
			<path class="st9" d="M51.29,14.23c0.72,0.66,1.23,1.46,1.54,2.41c0.07,0.23,0.18,0.4,0.31,0.52c0.13,0.12,0.25,0.16,0.36,0.14
				c0.19-0.04,0.3-0.24,0.33-0.61c0.03-0.37,0.01-0.72-0.06-1.04c-0.07-0.33-0.26-0.62-0.59-0.87c-0.32-0.26-0.93-0.55-1.8-0.87
				L51.29,14.23z"/>
			<path class="st9" d="M52.77,12.68c0.19-0.04,0.31-0.2,0.36-0.48c0.06-0.28,0.05-0.59-0.02-0.92c-0.07-0.33-0.17-0.59-0.3-0.78
				c-0.13-0.19-0.37-0.37-0.72-0.53c-0.35-0.16-0.86-0.31-1.53-0.45l-0.04,0.34c0.71,0.63,1.27,1.37,1.67,2.22
				C52.39,12.52,52.58,12.72,52.77,12.68z"/>
			<path class="st9" d="M50.72,17.46c0.23,0.46,0.41,0.67,0.56,0.64c0.15-0.03,0.26-0.2,0.35-0.5c0.08-0.3,0.08-0.67-0.01-1.09
				c-0.07-0.35-0.27-0.63-0.59-0.83c-0.32-0.2-0.92-0.35-1.79-0.45l-0.26-1.28l2.11-0.43c0.2-0.04,0.28-0.13,0.26-0.27
				c-0.03-0.14-0.15-0.31-0.38-0.53l-0.7-0.64c-0.24-0.21-0.39-0.31-0.46-0.3c-0.07,0.01-0.13,0.13-0.19,0.35l-0.31,1.15l-0.45,0.09
				l-0.67-3.29c0.62-0.3,1.23-0.52,1.82-0.64c0.18-0.04,0.26-0.09,0.25-0.16c-0.01-0.07-0.16-0.27-0.45-0.59
				c-0.29-0.32-0.65-0.67-1.08-1.05c-0.62,0.92-2.01,2.14-4.18,3.66l0.11,0.35c0.99-0.34,1.81-0.67,2.47-1.01l0.6,2.97l-2.07,0.42
				c-0.26,0.05-0.5,0.07-0.7,0.04l0.39,0.72c0.14-0.1,0.33-0.17,0.57-0.22l1.62-0.33c-0.09,1.92-0.22,3.44-0.39,4.56
				c-0.17,1.13-0.42,2.28-0.77,3.45l0.21,0.25c0.94-1.8,1.54-3.67,1.82-5.61l1.28,6.3c0.11,0.55,0.22,1.12,0.33,1.71l0.15,0.87
				c0.03,0.17,0.09,0.25,0.16,0.23c0.07-0.01,0.22-0.11,0.44-0.29c0.22-0.18,0.36-0.31,0.41-0.39c0.06-0.08,0.08-0.18,0.05-0.3
				l-1.9-9.34C49.92,16.18,50.39,16.77,50.72,17.46z"/>
			<path class="st9" d="M58.83,16.46c-0.02-0.13-0.16-0.29-0.4-0.48c-0.24-0.2-0.49-0.4-0.73-0.62c-0.25-0.22-0.42-0.31-0.51-0.3
				c-0.09,0.02-0.15,0.14-0.18,0.36l-0.18,1.43l-0.48,0.26l-1.9-9.34c0.27-0.3,0.39-0.53,0.36-0.69c-0.01-0.07-0.05-0.12-0.12-0.15
				c-0.07-0.03-0.29-0.08-0.68-0.13c-0.39-0.05-0.74-0.09-1.07-0.12c0.13,0.53,0.26,1.15,0.41,1.86l1.86,9.15l-3.61,1.86
				c-0.18,0.09-0.4,0.16-0.66,0.22l0.51,0.78c0.1-0.19,0.26-0.32,0.47-0.4l3.44-1.72L56,21.61c0.15,0.75,0.28,1.41,0.37,1.97
				c0.1,0.57,0.15,0.89,0.17,0.97c0.02,0.08,0.06,0.11,0.14,0.09c0.08-0.02,0.24-0.13,0.49-0.33c0.25-0.21,0.41-0.36,0.47-0.44
				c0.06-0.09,0.08-0.18,0.06-0.29l-0.15-0.69c-0.12-0.48-0.23-1-0.34-1.55l-0.71-3.5l2.16-1.09C58.8,16.68,58.86,16.58,58.83,16.46
				z"/>
		</g>
		<g>
			<path class="st9" d="M33.82,25.53c-1.51-2.27-2.79-3.74-3.84-4.39c0.02-0.51,0.01-1.07-0.03-1.69c-0.03-0.58,0.03-0.91,0.19-1.02
				c0.14-0.09,0.19-0.17,0.15-0.22c-0.05-0.08-0.3-0.19-0.73-0.35c-0.43-0.15-0.82-0.25-1.17-0.3c0.26,0.94,0.46,1.96,0.6,3.07
				c-0.74-0.28-1.74-0.49-3-0.63l0.03,0.29c1.31,0.41,2.33,0.86,3.07,1.33c0.11,1.42,0.09,2.77-0.04,4.02l0.28,0.2
				c0.31-1.14,0.51-2.33,0.6-3.58c0.34,0.3,0.63,0.6,0.86,0.9c0.96,2.83,1.47,5.41,1.52,7.74l0.27,0.11c0.25-1.69,0.25-3.49,0-5.38
				c0.87,1.3,1.56,2.43,2.07,3.38c0.51,0.95,0.79,1.55,0.83,1.8c0.05,0.25-0.03,0.44-0.24,0.58c-0.21,0.14-0.68,0.33-1.4,0.57
				l0.22,0.43c0.56-0.12,0.97-0.15,1.23-0.08c0.25,0.07,0.52,0.26,0.79,0.59c0.16,0.2,0.28,0.27,0.36,0.22
				c0.12-0.08,0.27-0.41,0.46-0.99c0.18-0.58-0.05-1.46-0.68-2.64C35.61,28.33,34.8,27,33.82,25.53z"/>
			<path class="st9" d="M44.39,25.34c-1.1-0.25-2.51-1.23-4.25-2.94c-1.73-1.71-3.65-4.02-5.76-6.94c0.36-0.42,0.62-0.68,0.76-0.77
				c0.14-0.09,0.25-0.14,0.32-0.14c0.07,0,0.13-0.01,0.17-0.04c0.09-0.06,0.09-0.15,0.01-0.27c-0.02-0.03-0.06-0.07-0.1-0.1
				c-0.05-0.03-0.23-0.14-0.55-0.31c-0.32-0.17-0.69-0.34-1.11-0.51c-0.81,1.71-1.7,3.16-2.66,4.33c-0.39-0.11-0.78-0.15-1.16-0.12
				c0.91,1.34,1.71,2.52,2.39,3.54c2.03,3.04,3.38,5.31,4.06,6.8c0.68,1.49,1.11,2.96,1.28,4.4l0.32,0.1
				c0.05-1.58-0.14-3.01-0.58-4.3c-0.44-1.29-1.28-2.94-2.54-4.95c-1.25-2.01-2.34-3.68-3.26-5.01c0.29-0.26,0.51-0.46,0.65-0.6
				l6.6,9.91c0.27,0.41,0.29,0.89,0.04,1.42c0.63,0.37,1.03,0.59,1.23,0.67c0.19,0.07,0.32,0.09,0.37,0.05
				c0.05-0.04,0.07-0.11,0.06-0.23c-0.02-0.39,0.08-1.27,0.3-2.66c0.21,0.26,0.39,0.51,0.55,0.75c0.16,0.24,0.32,0.41,0.49,0.51
				c0.17,0.1,0.31,0.11,0.42,0.03c0.12-0.08,0.15-0.25,0.11-0.52c-0.04-0.27-0.17-0.56-0.38-0.87c-0.64-0.97-1.76-1.73-3.36-2.3
				l-0.03,0.31c0.64,0.46,1.19,0.94,1.65,1.46l-0.57,0.89L33.1,16.82c0.32-0.31,0.63-0.64,0.93-0.98c1.02,1.53,1.94,2.86,2.77,3.99
				c0.83,1.13,1.64,2.15,2.42,3.06c0.78,0.91,1.59,1.74,2.42,2.49c0.83,0.75,1.37,1.19,1.6,1.33c0.24,0.14,0.37,0.21,0.41,0.21
				c0.04,0,0.08-0.02,0.13-0.05c0.05-0.03,0.08-0.09,0.08-0.17c0.01-0.42,0.13-0.71,0.37-0.87c0.08-0.05,0.17-0.1,0.28-0.14
				L44.39,25.34z"/>
		</g>
		<g>
			<path class="st9" d="M16.91,52.08c0.56,0.04,0.88,0.05,0.96,0.03c0.08-0.02,0.13-0.09,0.14-0.19c0.03-0.17-0.12-0.37-0.44-0.58
				c-0.32-0.21-0.65-0.34-0.98-0.39c-0.33-0.05-0.61-0.06-0.83-0.02c-0.22,0.04-0.52,0.14-0.89,0.33c-0.37,0.18-0.87,0.48-1.51,0.89
				l0.19,0.21c0.78-0.17,1.4-0.27,1.84-0.29C15.85,52.03,16.35,52.04,16.91,52.08z"/>
			<path class="st9" d="M14.84,54.55c-0.42,0.15-1.11,0.5-2.06,1.05l0.21,0.2c0.51-0.13,0.98-0.2,1.42-0.23
				c0.44-0.03,1.02-0.01,1.74,0.04c0.72,0.05,1.13,0.07,1.21,0.05c0.08-0.02,0.13-0.09,0.15-0.19c0.02-0.16-0.12-0.37-0.43-0.6
				c-0.31-0.24-0.65-0.39-1.04-0.45C15.66,54.36,15.26,54.4,14.84,54.55z"/>
			<path class="st9" d="M14.97,58.23c-0.84-0.13-1.86-0.15-3.05-0.06l-0.04,0.25c1.04,0.18,1.82,0.37,2.33,0.57
				c0.51,0.2,1.02,0.5,1.53,0.89c0.51,0.39,0.84,0.6,0.99,0.62c0.15,0.02,0.29-0.01,0.41-0.09c0.12-0.08,0.19-0.21,0.22-0.38
				c0.06-0.37-0.12-0.74-0.53-1.08C16.43,58.6,15.81,58.36,14.97,58.23z"/>
			<path class="st9" d="M9.51,51.35c-0.05-0.01-0.11,0.01-0.17,0.06C9.27,51.47,9.12,51.66,8.88,52c-0.24,0.34-0.42,0.64-0.54,0.9
				c0.52,0.06,1.11,0.14,1.77,0.24l10.65,1.63c0.66,0.1,1.26,0.2,1.78,0.29l0.77,0.15c0.21,0.03,0.32,0.02,0.33-0.05
				c0.01-0.06-0.04-0.24-0.14-0.52c-0.11-0.28-0.19-0.47-0.25-0.55c-0.06-0.08-0.14-0.13-0.25-0.15l-0.68-0.08
				c-0.49-0.07-0.95-0.13-1.39-0.2l-11.09-1.7C9.74,51.57,9.63,51.37,9.51,51.35z"/>
			<path class="st9" d="M21.26,57.94c-0.61-0.34-1.24-0.6-1.89-0.79c-0.65-0.18-1.69-0.4-3.11-0.65c-1.42-0.25-3.8-0.63-7.13-1.15
				c-0.39-0.06-0.63-0.11-0.74-0.16c-0.11-0.05-0.2-0.15-0.27-0.3c-0.07-0.15-0.16-0.24-0.28-0.25c-0.11-0.02-0.29,0.17-0.53,0.56
				c-0.24,0.39-0.43,0.74-0.56,1.06c2.96,0.4,5.49,0.75,7.58,1.07c2.1,0.32,3.73,0.66,4.89,1.01c1.16,0.36,2.04,0.74,2.64,1.14
				c0.59,0.4,1.4,1.21,2.4,2.41l0.3-0.1c-0.46-0.96-0.98-1.75-1.54-2.39C22.46,58.77,21.87,58.28,21.26,57.94z"/>
			<path class="st9" d="M26.08,51.1c-0.13-0.3-0.23-0.5-0.3-0.59c-0.07-0.09-0.15-0.14-0.26-0.16l-0.68-0.09
				c-0.49-0.06-0.96-0.12-1.39-0.19L9.26,47.91c-0.08-0.35-0.18-0.53-0.31-0.55c-0.13-0.02-0.3,0.12-0.53,0.43
				c-0.23,0.31-0.45,0.68-0.65,1.13c0.52,0.06,1.11,0.14,1.79,0.24l13.81,2.11c0.66,0.1,1.26,0.2,1.78,0.3l0.77,0.13
				c0.21,0.03,0.32,0.02,0.33-0.05C26.27,51.59,26.21,51.41,26.08,51.1z"/>
		</g>
		<g>
			<path class="st9" d="M99.75,57.86l-1.15-5.32c1.26,0.51,2.38,0.93,3.37,1.25c0.99,0.32,2.1,0.61,3.33,0.85
				c0.28,0.05,0.46,0.1,0.54,0.15c0.08,0.05,0.16,0.16,0.24,0.32c0.08,0.17,0.16,0.24,0.26,0.23c0.09-0.01,0.17-0.06,0.24-0.15
				c0.07-0.09,0.2-0.32,0.38-0.7c0.19-0.38,0.34-0.73,0.45-1.07c-1.82-0.13-3.19-0.27-4.11-0.44c-0.92-0.16-1.87-0.4-2.85-0.7
				c-0.98-0.3-1.57-0.53-1.77-0.67c-0.2-0.14-0.34-0.35-0.42-0.63c-1.03,0.34-1.64,0.55-1.81,0.63c-0.18,0.07-0.26,0.13-0.26,0.17
				c0.01,0.04,0.05,0.09,0.13,0.16c0.24,0.2,0.61,0.82,1.1,1.87c0.49,1.05,1.04,2.49,1.66,4.33c-0.2,0.09-0.48,0.18-0.83,0.29
				c-0.35,0.11-0.63,0.24-0.85,0.39c-0.22,0.15-0.32,0.32-0.29,0.49c0.03,0.18,0.27,0.33,0.73,0.45c0.46,0.12,0.92,0.15,1.38,0.08
				c0.46-0.07,1.03-0.38,1.69-0.91c0.66-0.54,1.67-1.56,3.03-3.05l-0.4-0.22C102.56,56.44,101.3,57.18,99.75,57.86z"/>
			<path class="st9" d="M111.17,52.4c0.2,0.07,0.33,0.14,0.37,0.23c0.11,0.2,0.23,0.29,0.37,0.27c0.07-0.01,0.13-0.04,0.2-0.1
				c0.07-0.06,0.2-0.25,0.4-0.57c0.2-0.32,0.42-0.72,0.64-1.19c-4.24-0.09-8.02-0.92-11.36-2.5l-0.23,0.23
				c2.36,1.54,5.07,2.63,8.13,3.27C110.47,52.21,110.97,52.33,111.17,52.4z"/>
			<path class="st9" d="M109.17,56.08c-1.37,0.58-2.46,1.22-3.28,1.92c-0.82,0.7-1.22,1.15-1.19,1.34c0.01,0.08,0.07,0.14,0.17,0.17
				c0.36,0.12,0.61,0.29,0.76,0.52c0.15,0.23,0.27,0.62,0.35,1.18l0.4-0.03c0.37-1.42,1.13-2.59,2.28-3.51
				c1.15-0.92,2.8-1.67,4.92-2.27c0.29,0.38,0.51,0.57,0.67,0.54c0.07-0.01,0.12-0.05,0.15-0.11c0.03-0.07,0.07-0.27,0.11-0.6
				c0.04-0.34,0.06-0.65,0.06-0.94C112.34,54.91,110.54,55.51,109.17,56.08z"/>
		</g>
		<g>
			<path class="st9" d="M102.64,39.39c-0.03-0.06-0.11-0.08-0.24-0.08l-0.72,0.05l-1.65-2.75c-0.14-0.23-0.23-0.45-0.27-0.65
				l-0.6,0.71c0.16,0.08,0.3,0.22,0.42,0.43l0.18,0.3c-1.97,1.13-3.6,1.85-4.86,2.16c-1.27,0.31-2.78,0.32-4.54,0.03l-0.14,0.28
				c1.91,0.7,3.54,0.93,4.89,0.72c1.34-0.22,3.1-0.94,5.27-2.16l0.88,1.47c-1.73,1.02-2.99,1.73-3.76,2.14
				c-0.78,0.41-1.36,0.68-1.76,0.81c-0.39,0.13-0.67,0.19-0.82,0.18c-0.15-0.02-0.29-0.13-0.41-0.33c-0.12-0.21-0.26-0.72-0.41-1.54
				l-0.41,0.13c0.03,0.57-0.01,1.03-0.12,1.4c-0.11,0.37-0.31,0.69-0.62,0.96c-0.13,0.12-0.17,0.22-0.13,0.28
				c0.04,0.07,0.24,0.18,0.6,0.35c0.36,0.17,0.7,0.25,1.04,0.25c0.34,0,0.71-0.08,1.12-0.24c0.41-0.16,1.15-0.52,2.23-1.09
				c1.07-0.56,2.29-1.23,3.65-2c0.31,0.08,0.52,0.09,0.61,0.04c0.09-0.05,0.17-0.17,0.23-0.36c0.06-0.18,0.14-0.46,0.25-0.84
				C102.64,39.66,102.67,39.44,102.64,39.39z"/>
			<path class="st9" d="M96.92,35.7c2.74,0.28,5.52,0.01,8.34-0.81c0.49-0.14,0.81-0.16,0.96-0.05c0.15,0.11,0.26,0.14,0.34,0.1
				c0.08-0.04,0.12-0.17,0.14-0.38c0.02-0.21,0.01-0.69-0.05-1.43c-3.34,1.31-6.56,2.08-9.64,2.3L96.92,35.7z"/>
			<path class="st9" d="M108.49,34.36c-2.55,1.73-4.24,3.34-5.06,4.83c-0.82,1.49-1.16,2.35-1.03,2.57c0.04,0.06,0.1,0.08,0.2,0.06
				c0.58-0.13,0.98,0,1.21,0.39c0.05,0.09,0.1,0.19,0.14,0.32l0.36-0.18c-0.13-1.03-0.02-1.99,0.35-2.89
				c0.37-0.9,0.86-1.68,1.48-2.33c0.62-0.66,1.11-1.09,1.46-1.3c0.35-0.21,0.65-0.22,0.89-0.02c0.09,0.07,0.16,0.08,0.23,0.04
				C108.93,35.72,108.85,35.22,108.49,34.36z"/>
			<path class="st9" d="M90.73,38.96l9.49-5.68c0.24,0.07,0.4,0.08,0.47,0.04c0.13-0.08,0.14-0.34,0.04-0.8
				c1.33-0.19,2.56-0.45,3.68-0.77c0.37-0.11,0.62-0.16,0.74-0.17c0.12-0.01,0.23,0.02,0.33,0.11c0.1,0.08,0.19,0.11,0.25,0.07
				c0.06-0.04,0.11-0.1,0.14-0.18c0.03-0.08,0.05-0.31,0.06-0.69c0.01-0.38,0-0.72-0.01-1.04c-4.24,1.62-7.84,2.47-10.8,2.53
				l-0.12,0.31c1.16,0.14,2.49,0.15,3.97,0.03l-6.46,3.87c-0.59,0.36-1.17,0.69-1.72,1l-1.34,0.77c-0.13,0.08-0.17,0.15-0.13,0.21
				c0.04,0.07,0.2,0.17,0.47,0.31c0.27,0.14,0.46,0.21,0.57,0.21C90.47,39.08,90.59,39.04,90.73,38.96z"/>
		</g>
		<g>
			<path class="st9" d="M106.61,77.35c0.11,0.03,0.5-0.06,1.19-0.29c0.68-0.23,1.03-0.38,1.06-0.45c0.02-0.05-0.04-0.14-0.15-0.25
				l-0.99-0.92l1.86-5.94c0.08-0.26,0.18-0.47,0.3-0.63l-0.92-0.02c0.05,0.16,0.03,0.36-0.04,0.6l-2.39,7.65
				C106.47,77.23,106.5,77.31,106.61,77.35z"/>
			<path class="st9" d="M112.92,71.33l-0.9-0.02c0.02,0.1,0,0.26-0.06,0.47l-2.25,7.19l-12.42-3.88c-0.32-0.1-0.5-0.23-0.55-0.38
				c-0.05-0.16-0.02-0.4,0.08-0.72c0.1-0.33,0.4-0.93,0.88-1.8l-0.44-0.14c-0.42,0.58-0.81,0.98-1.19,1.2
				c-0.37,0.23-0.85,0.29-1.44,0.2c-0.19-0.03-0.3,0.01-0.33,0.1c-0.03,0.1,0,0.35,0.09,0.77c0.09,0.41,0.26,0.77,0.52,1.07
				c0.26,0.3,0.7,0.54,1.32,0.74l12.57,3.93c0.17,0.49,0.32,0.75,0.44,0.79c0.12,0.04,0.25,0.03,0.38-0.03
				c0.13-0.05,0.42-0.2,0.87-0.43c0.45-0.23,0.69-0.38,0.71-0.46c0.03-0.08-0.03-0.18-0.18-0.3l-0.62-0.56l2.22-7.11
				C112.69,71.7,112.79,71.49,112.92,71.33z"/>
			<path class="st9" d="M98.92,72.9c0.06,0.13,0.13,0.21,0.22,0.24l0.49,0.12c0.19,0.05,0.42,0.12,0.69,0.2l3.05,0.95
				c0.25,0.5,0.44,0.78,0.57,0.82c0.13,0.04,0.43-0.1,0.89-0.43c0.47-0.33,0.71-0.53,0.73-0.6c0.02-0.07,0-0.14-0.08-0.21
				l-0.49-0.44l0.83-2.66c0.5-0.29,0.94-0.66,1.34-1.12c-0.56-0.15-1.1-0.3-1.64-0.47l-4.73-1.48c-0.23-0.07-0.45-0.14-0.65-0.22
				l-0.67-0.22c-0.1-0.03-0.16-0.03-0.17,0c-0.02,0.07,0,0.26,0.07,0.56c0.07,0.3,0.13,0.5,0.2,0.6c0.07,0.1,0.16,0.17,0.29,0.21
				l1.09,0.34l-0.92,2.95L99,71.71c-0.13-0.04-0.2-0.03-0.22,0.02c-0.03,0.11-0.03,0.3,0,0.57C98.82,72.57,98.86,72.77,98.92,72.9z
				 M101.55,69.27l3.72,1.16l-0.92,2.95l-3.72-1.16L101.55,69.27z"/>
		</g>
		<path class="st9" d="M76.93,12.73c0.21,0.04,0.33-0.01,0.36-0.15c0.03-0.13-0.1-0.5-0.38-1.1c-0.28-0.61-0.47-0.92-0.57-0.94
			c-0.05-0.01-0.13,0.05-0.24,0.2l-0.78,1.03l-1.56-0.32l0.47-2.3c0.35-0.22,0.53-0.38,0.55-0.48c0.02-0.1,0-0.2-0.06-0.27
			c-0.06-0.07-0.23-0.21-0.5-0.42c-0.27-0.21-0.58-0.41-0.92-0.62c-0.08,0.46-0.17,0.99-0.29,1.58l-0.46,2.26l-1.56-0.32
			c-0.23-0.05-0.42-0.12-0.59-0.22l0.06,0.89c0.14-0.07,0.32-0.08,0.53-0.03l1.44,0.29l-0.64,3.15l-2.08-0.42
			c-0.18-0.04-0.31-0.07-0.38-0.1l0.75-0.42l-0.04-0.44l-2.4,0.82l0.52-2.56l1.89,0.39c0.16,0.03,0.26-0.01,0.28-0.13
			c0.02-0.11-0.08-0.42-0.31-0.95c-0.23-0.53-0.37-0.8-0.45-0.82c-0.07-0.01-0.17,0.05-0.28,0.19l-0.64,0.79l-0.37-0.08l0.64-3.11
			c0.31-0.2,0.47-0.35,0.49-0.45c0.04-0.17-0.42-0.57-1.35-1.2c-0.12,0.66-0.25,1.37-0.41,2.13L67.13,11l-1.75-0.36
			c-0.26-0.05-0.48-0.13-0.66-0.24l0.07,0.85c0.18-0.03,0.38-0.03,0.6,0.02l1.62,0.33l-0.66,3.21c-0.94,0.33-1.73,0.53-2.38,0.62
			c0.08,0.48,0.15,0.87,0.21,1.16c0.06,0.29,0.1,0.46,0.12,0.51c0.02,0.04,0.04,0.07,0.08,0.08c0.04,0.01,0.11-0.02,0.22-0.09
			c0.11-0.07,0.6-0.34,1.46-0.82l-1.09,5.33c-0.05,0.22-0.11,0.37-0.2,0.43c-0.09,0.06-0.28,0.07-0.58,0.01
			c-0.29-0.06-0.79-0.2-1.48-0.43l-0.11,0.35c0.59,0.42,0.97,0.76,1.13,1.02c0.16,0.26,0.23,0.62,0.23,1.08
			c0,0.22,0.04,0.34,0.11,0.35c0.07,0.01,0.29-0.07,0.66-0.24c0.37-0.18,0.64-0.37,0.81-0.57c0.17-0.2,0.32-0.59,0.43-1.15l1.41-6.9
			l1.73-0.98l0.04,0.62c0.16-0.05,0.34-0.05,0.53-0.01l0.38,0.08c-0.25,2.39-0.17,4.37,0.26,5.93c-1.19,1.22-2.68,2.18-4.47,2.88
			l0.03,0.41c1.7-0.32,3.31-1.04,4.84-2.16c0.49,0.99,1.02,1.84,1.59,2.55c0.58,0.71,0.91,1.08,1.01,1.1
			c0.04,0.01,0.09-0.04,0.16-0.15c0.26-0.43,0.5-0.71,0.74-0.84c0.23-0.14,0.58-0.17,1.04-0.1l0.08-0.39
			c-1.76-1.04-2.94-2.1-3.53-3.16c0.9-0.94,1.89-2.4,2.98-4.39c0.11-0.2,0.2-0.34,0.29-0.43c0.08-0.09,0.21-0.16,0.38-0.22
			c0.17-0.05,0.27-0.13,0.29-0.23c0.02-0.1-0.14-0.36-0.47-0.79c-0.34-0.43-0.54-0.65-0.61-0.67c-0.05-0.01-0.12,0.03-0.2,0.12
			l-0.55,0.71l-0.94-0.19l0.64-3.15L76.93,12.73z M73.81,16.01c-0.91,1.92-1.77,3.31-2.58,4.18c-0.52-1.31-0.77-2.93-0.76-4.87
			L73.81,16.01z"/>
		<g>
			<path class="st9" d="M25.42,44.21c-0.38-0.23-0.92-0.53-1.62-0.88l-0.15,0.24c0.55,0.44,0.92,0.79,1.12,1.03
				c0.2,0.24,0.42,0.6,0.66,1.08c0.23,0.48,0.44,0.76,0.61,0.87c0.17,0.11,0.34,0.16,0.52,0.16c0.17,0,0.32-0.09,0.42-0.27
				c0.11-0.18,0.05-0.48-0.17-0.92C26.59,45.07,26.13,44.64,25.42,44.21z"/>
			<path class="st9" d="M26.85,42.99c-0.26-0.16-0.6-0.29-1.02-0.38c-0.41-0.09-0.99-0.18-1.72-0.27l-0.05,0.24
				c0.67,0.29,1.17,0.54,1.5,0.74c0.33,0.2,0.69,0.44,1.07,0.71c0.38,0.27,0.64,0.43,0.76,0.47c0.12,0.04,0.22,0.01,0.28-0.09
				c0.1-0.16,0.05-0.39-0.14-0.71C27.34,43.38,27.12,43.15,26.85,42.99z"/>
			<path class="st9" d="M27.39,41.4c-0.26-0.16-0.61-0.26-1.06-0.32c-0.45-0.06-1.05-0.08-1.78-0.06l0.03,0.25
				c0.99,0.27,1.94,0.68,2.82,1.23c0.46,0.28,0.74,0.34,0.84,0.17c0.06-0.1,0-0.3-0.19-0.6C27.87,41.78,27.65,41.56,27.39,41.4z"/>
			<path class="st9" d="M28.04,39.83c-0.27-0.17-0.65-0.25-1.13-0.24c-0.48,0.01-1.11,0.08-1.91,0.19l0.05,0.26
				c0.84,0.07,1.85,0.43,3.04,1.07c0.45,0.24,0.71,0.3,0.79,0.17c0.08-0.13,0.03-0.36-0.16-0.7C28.54,40.25,28.31,39.99,28.04,39.83
				z"/>
			<path class="st9" d="M31.36,38.03c-0.27-0.23-0.67-0.6-1.2-1.11l-2.22-2.09c-0.25-0.23-0.41-0.44-0.48-0.63
				c-0.07-0.19-0.08-0.41-0.02-0.67c0.02-0.11-0.02-0.2-0.13-0.26c-0.11-0.07-0.27-0.08-0.49-0.03c-0.22,0.05-0.5,0.1-0.85,0.17
				c-0.35,0.07-0.54,0.13-0.58,0.2c-0.04,0.07-0.02,0.18,0.06,0.32l0.25,0.44l-1.36,2.22c-0.14,0.23-0.29,0.41-0.45,0.54l0.84,0.16
				c0.01-0.17,0.07-0.35,0.2-0.56l1.25-2.04l3.33,3.2c0.55,0.52,1.02,1.01,1.43,1.47c0.07,0.07,0.12,0.13,0.18,0.16
				c0.05,0.03,0.1,0.03,0.15-0.01c0.05-0.04,0.11-0.12,0.18-0.23c0.07-0.11,0.14-0.25,0.23-0.43c0.08-0.18,0.12-0.3,0.11-0.37
				C31.77,38.4,31.63,38.25,31.36,38.03z"/>
			<path class="st9" d="M23.94,33.37c-0.57-0.35-1.49-0.22-2.76,0.39l0.08,0.21c1.14,0.19,2,0.41,2.59,0.65
				c0.29,0.11,0.49,0.17,0.59,0.18c0.1,0.01,0.18-0.04,0.24-0.14c0.06-0.1,0.01-0.31-0.17-0.62C24.34,33.72,24.15,33.5,23.94,33.37z
				"/>
			<path class="st9" d="M22.26,36.69l0.27-0.06c-0.56-1.2-1.18-2.25-1.84-3.12c-0.66-0.88-1.62-1.95-2.88-3.23
				c1.8,0.82,3.36,1.35,4.67,1.58c1.31,0.23,2.01,0.28,2.08,0.16c0.02-0.04,0.01-0.14-0.05-0.31c-0.06-0.16-0.07-0.3-0.05-0.4
				c0.02-0.1,0.07-0.22,0.14-0.33c0.07-0.12,0.17-0.27,0.31-0.46l-0.25-0.2c-0.83,0.34-1.95,0.45-3.36,0.36
				c-1.41-0.1-2.67-0.37-3.79-0.83c-0.1-0.21-0.15-0.39-0.15-0.51c0.01-0.13-0.02-0.21-0.08-0.24c-0.14-0.08-0.68,0.19-1.64,0.83
				c1.43,1.15,2.64,2.23,3.62,3.23C20.26,34.15,21.26,35.33,22.26,36.69z"/>
			<path class="st9" d="M24.89,37.71l-0.34-0.14l-1.19,2.44l-1.26-0.78l1.31-2.13c0.09-0.14,0.1-0.23,0.03-0.28
				c-0.07-0.04-0.38-0.05-0.93-0.01c-0.55,0.03-0.85,0.08-0.89,0.14c-0.04,0.06-0.01,0.16,0.09,0.32l0.48,0.75l-0.56,0.91
				l-1.68-1.03l0.66-1.07c0.27,0.17,0.43,0.22,0.48,0.15c0.04-0.07,0.06-0.26,0.04-0.56c-0.02-0.3-0.06-0.49-0.13-0.55
				c-0.07-0.06-0.16-0.13-0.28-0.2l-1.47-0.87l-2.62-1.61c-0.05-0.48-0.13-0.75-0.24-0.82c-0.11-0.07-0.4-0.04-0.88,0.09
				c-0.48,0.13-0.73,0.21-0.76,0.26c-0.03,0.05,0,0.14,0.09,0.28l0.39,0.63l-1.65,2.68c-0.33,0.08-0.82,0.28-1.46,0.61
				c0.51,0.28,1,0.56,1.48,0.86l3.76,2.31c0.7,0.43,1.22,0.77,1.56,1.02c0.17,0.13,0.28,0.15,0.33,0.07
				c0.05-0.08,0.08-0.24,0.1-0.48c0.02-0.25,0.01-0.41-0.02-0.5c-0.03-0.09-0.13-0.18-0.29-0.28l-0.24-0.15l0.65-1.06l1.68,1.03
				l-1.06,1.73c-0.14,0.23-0.29,0.41-0.45,0.54l0.82,0.21c-0.01-0.17,0.05-0.36,0.19-0.57l0.99-1.61l1.33,0.82
				c-0.51,1.03-0.95,1.86-1.34,2.48c0.52,0.07,1,0.19,1.43,0.34c0.14,0.05,0.22,0.06,0.25,0.02c0.02-0.04,0.05-0.16,0.06-0.34
				c0.02-0.18,0.16-0.76,0.44-1.75L24.89,37.71z M18.3,39.46l-2.94-1.81c0.44,0.1,1.07,0.35,1.88,0.77c0.23,0.12,0.38,0.18,0.47,0.2
				c0.08,0.01,0.15-0.01,0.19-0.07c0.04-0.06-0.01-0.2-0.15-0.43c-0.14-0.22-0.29-0.38-0.47-0.49c-0.17-0.11-0.4-0.18-0.69-0.22
				c-0.29-0.04-0.78-0.07-1.46-0.08l0.07,0.22l-1.23-0.76l0.65-1.06l4.33,2.66L18.3,39.46z M19.44,37.6l-4.33-2.66l0.66-1.08
				l1.13,0.69l-0.78,0.32c0.91,0.67,1.77,1.41,2.59,2.19l0.3-0.07c-0.84-1.16-1.32-1.83-1.43-2.01l2.52,1.54L19.44,37.6z"/>
		</g>
		<g>
			<path class="st9" d="M26.19,73.29c-0.54-0.69-1.08-1.19-1.6-1.49c-0.53-0.3-1.2-0.48-2.02-0.55c0.33-1.03,0.67-1.9,1.01-2.6
				c0.34-0.7,0.86-1.45,1.55-2.25c0.31-0.36,0.45-0.58,0.43-0.69c-0.03-0.1-0.16-0.17-0.38-0.2c-0.23-0.03-0.48-0.01-0.75,0.06
				c-0.79,0.2-1.33,0.7-1.6,1.5c-0.28,0.8-0.49,2.19-0.62,4.16c-0.45-0.01-1.04,0.02-1.78,0.08c-0.42,0.04-0.71-0.01-0.87-0.14
				c-0.16-0.13-0.28-0.19-0.36-0.16c-0.09,0.02-0.18,0.18-0.25,0.47c-0.08,0.29-0.12,0.74-0.13,1.34c1.32-0.31,2.46-0.46,3.44-0.45
				c0.98,0.01,1.87,0.31,2.68,0.91c0.81,0.6,1.66,1.53,2.56,2.79l0.36-0.13C27.28,74.87,26.73,73.98,26.19,73.29z"/>
			<path class="st9" d="M23.56,73.79c-0.06-0.03-0.15-0.03-0.28,0.01l-4.32,1.1l-1.33-5.23l4.01-1.02c0.21-0.05,0.3-0.12,0.29-0.19
				c-0.03-0.11-0.13-0.26-0.32-0.46c-0.18-0.2-0.32-0.33-0.41-0.39c-0.09-0.06-0.2-0.07-0.31-0.04l-0.5,0.14
				c-0.17,0.05-0.51,0.14-1.03,0.28l-1.81,0.46c-0.29-0.29-0.51-0.41-0.64-0.38c-0.13,0.03-0.3,0.28-0.51,0.74
				c-0.21,0.46-0.3,0.73-0.28,0.81c0.02,0.08,0.1,0.13,0.25,0.15l0.66,0.07l1.26,4.93c-0.2,0.6-0.34,1.15-0.39,1.64
				c0.33-0.11,0.68-0.22,1.06-0.31l2.82-0.72c0.93-0.24,1.68-0.41,2.25-0.52c0.16-0.03,0.23-0.08,0.21-0.16
				c-0.02-0.08-0.12-0.24-0.31-0.49C23.74,73.96,23.62,73.82,23.56,73.79z"/>
			<path class="st9" d="M14.57,66.76c-0.05-0.21-0.12-0.3-0.21-0.27c-0.13,0.03-0.4,0.31-0.81,0.83c-0.41,0.52-0.6,0.82-0.58,0.91
				c0.01,0.05,0.11,0.1,0.28,0.13l1.2,0.24l0.98,3.84l-1.71,0.44l-0.62-2.44l0.88-0.22c0.19-0.05,0.28-0.12,0.26-0.2
				c-0.03-0.11-0.12-0.25-0.29-0.44c-0.16-0.18-0.3-0.3-0.4-0.36c-0.1-0.05-0.21-0.07-0.31-0.04l-0.54,0.17
				c-0.21,0.06-0.54,0.15-0.99,0.27l-1.11,0.28c-0.3-0.26-0.51-0.37-0.64-0.34c-0.12,0.03-0.31,0.29-0.55,0.77
				c-0.24,0.48-0.36,0.76-0.34,0.82c0.02,0.07,0.1,0.12,0.26,0.14l0.63,0.11l0.58,2.28l-1.28,0.33c-0.31-0.19-0.51-0.27-0.59-0.25
				c-0.09,0.02-0.15,0.14-0.2,0.35c-0.05,0.21-0.09,0.67-0.14,1.37c0.62-0.18,1.45-0.4,2.5-0.67l0.53,2.07
				c-0.15,0.33-0.29,0.82-0.42,1.45c0.5-0.16,0.99-0.3,1.49-0.42l1.36-0.35c0.66-0.17,1.29-0.31,1.88-0.42
				c0.16-0.03,0.23-0.08,0.21-0.14c-0.04-0.14-0.14-0.33-0.31-0.55c-0.17-0.22-0.28-0.35-0.34-0.36c-0.06-0.02-0.15-0.01-0.26,0.02
				l-0.41,0.11L14.01,74l1.71-0.44l1.22,4.78c0.07,0.26,0.09,0.49,0.07,0.7l0.68-0.52c-0.12-0.12-0.2-0.3-0.26-0.53L14.57,66.76z
				 M11.16,73.52l-0.62-2.44l1.95-0.5l0.62,2.44L11.16,73.52z M12,76.86l-0.56-2.2l1.95-0.49l0.56,2.2L12,76.86z"/>
		</g>
		<g>
			<path class="st9" d="M95.14,19.16c-0.11-0.54-0.19-0.82-0.23-0.85c-0.05-0.03-0.12-0.01-0.23,0.06l-0.69,0.47l-1.04-0.71
				c-0.09-0.43-0.24-0.9-0.46-1.41c-0.32,0.52-0.7,1.09-1.12,1.71c-0.92,1.35-1.7,2.25-2.33,2.7c-0.63,0.45-1.34,0.77-2.11,0.95
				l-0.01,0.26c1.23,0,2.22-0.26,2.96-0.76c0.74-0.51,1.63-1.51,2.68-3.02l1.18,0.81l-2.27,3.32c-0.22,0.32-0.34,0.56-0.35,0.71
				c-0.01,0.15,0.09,0.35,0.32,0.61c0.23,0.25,0.5,0.49,0.8,0.69c0.31,0.21,0.59,0.39,0.86,0.54c0.27,0.15,0.44,0.23,0.51,0.23
				c0.07,0,0.13-0.03,0.18-0.1c0.05-0.07,0.08-0.22,0.11-0.47c0.03-0.25,0.05-0.49,0.05-0.72c0.01-0.23-0.02-0.37-0.08-0.41
				c-0.06-0.04-0.15-0.04-0.25,0c-0.11,0.04-0.22,0.03-0.35-0.03c-0.13-0.06-0.28-0.15-0.45-0.27c-0.18-0.12-0.27-0.21-0.28-0.28
				c-0.01-0.07,0.03-0.16,0.12-0.3l1.86-2.72c0.43,0.01,0.68-0.03,0.73-0.11C95.28,19.99,95.25,19.69,95.14,19.16z"/>
			<path class="st9" d="M91.35,24.56c-0.04-0.03-0.1-0.02-0.18,0.02l-0.64,0.29l-2.81-1.92c-0.27-0.19-0.46-0.34-0.56-0.46
				l-0.28,0.81c0.17-0.02,0.43,0.1,0.8,0.35c-1.18,2.24-1.84,3.95-1.99,5.1c-1.35,0.71-3.01,1.22-4.99,1.53l-0.08,0.31
				c1.92,0.09,3.57-0.12,4.96-0.65c-0.01,0.59,0.07,1.35,0.25,2.26c0.18,0.92,0.32,1.41,0.41,1.47c0.05,0.04,0.14,0.03,0.25-0.02
				c0.46-0.2,0.84-0.29,1.13-0.27c0.29,0.02,0.56,0.14,0.8,0.35l0.32-0.34c-1.02-1.44-1.63-2.8-1.82-4.07
				c0.82-0.45,1.86-1.22,3.13-2.31c0.35-0.3,0.59-0.48,0.72-0.55c0.13-0.07,0.25-0.09,0.36-0.05c0.24,0.1,0.39,0.1,0.45,0
				c0.06-0.09,0.06-0.42-0.02-0.97C91.48,24.9,91.41,24.6,91.35,24.56z M86.84,28.06c0.03-1.23,0.42-2.62,1.16-4.19l2.13,1.46
				C89,26.44,87.9,27.35,86.84,28.06z"/>
			<path class="st9" d="M82.07,28.84c0.21-0.18,0.52-0.56,0.92-1.15l6.91-10.11c0.37-0.01,0.57-0.05,0.63-0.13
				c0.04-0.06,0.01-0.34-0.08-0.85c-0.09-0.51-0.16-0.78-0.21-0.81c-0.05-0.03-0.14-0.01-0.27,0.06l-0.59,0.37l-1.06-0.73
				c-0.16-0.55-0.36-1.03-0.6-1.43c-1.59,2.43-2.76,4.18-3.49,5.26c-0.74,1.08-1.54,2.21-2.41,3.41c-0.87,1.19-1.64,2.12-2.29,2.76
				c-0.65,0.65-1.54,1.32-2.67,2.03l0.04,0.29c1.25-0.51,2.37-1.16,3.34-1.95c0.97-0.79,1.94-1.87,2.91-3.24l1.34,0.91l-2.38,3.48
				c-0.17,0.24-0.31,0.39-0.43,0.45c-0.12,0.06-0.27,0.02-0.46-0.11c-0.19-0.13-0.51-0.45-0.98-0.96l-0.26,0.28
				c0.25,0.31,0.42,0.64,0.52,0.97c0.1,0.34,0.04,0.74-0.19,1.2c-0.1,0.21-0.11,0.34-0.04,0.38c0.07,0.05,0.34,0.03,0.8-0.04
				C81.51,29.14,81.85,29.01,82.07,28.84z M87.86,15.9l1.25,0.85l-1.96,2.87l-1.28-0.88C86.75,17.5,87.42,16.55,87.86,15.9z
				 M83.49,22.13l2.02-2.88l1.3,0.88l-1.98,2.9L83.49,22.13z"/>
		</g>
	</g>
	<g>
		<path class="st9" d="M78.08,104.18l-0.31,0.2c-0.09-0.16-0.17-0.33-0.24-0.5c-0.28-0.68-0.36-1.31-0.21-1.89
			c0.14-0.58,0.48-0.98,1.01-1.21c0.49-0.2,0.97-0.17,1.45,0.1c0.48,0.27,0.85,0.73,1.12,1.38c0.19,0.47,0.3,0.9,0.32,1.3
			c0.02,0.4-0.07,0.91-0.25,1.53c-0.19,0.62-0.52,1.48-1,2.59l1.83-0.76c0.23-0.09,0.36-0.2,0.4-0.31c0.04-0.11,0.02-0.3-0.04-0.54
			l-0.09-0.31l0.29-0.12l0.56,2l-0.22,0.09l-0.14-0.23l-3.07,1.28l-0.18-0.43l0.3-0.85c0.44-1.22,0.72-2.19,0.84-2.91
			c0.12-0.72,0.05-1.38-0.2-1.99c-0.2-0.48-0.47-0.83-0.81-1.04c-0.34-0.22-0.68-0.25-1.01-0.11c-0.38,0.16-0.62,0.46-0.71,0.9
			c-0.09,0.44-0.01,0.94,0.22,1.5C77.97,103.96,78.02,104.07,78.08,104.18z"/>
		<path class="st9" d="M72.06,106.21l-0.33,0.17c-0.08-0.17-0.14-0.35-0.19-0.52c-0.22-0.71-0.23-1.34-0.03-1.9
			c0.2-0.56,0.57-0.93,1.12-1.1c0.51-0.16,0.99-0.07,1.43,0.25c0.45,0.32,0.78,0.81,0.98,1.48c0.15,0.48,0.21,0.92,0.19,1.32
			c-0.02,0.4-0.16,0.9-0.4,1.5c-0.24,0.6-0.66,1.43-1.25,2.48l1.89-0.58c0.23-0.07,0.37-0.16,0.43-0.27
			c0.05-0.11,0.05-0.29,0.01-0.55l-0.05-0.31l0.3-0.09l0.36,2.05l-0.23,0.07l-0.12-0.25l-3.18,0.97l-0.14-0.44l0.39-0.81
			c0.56-1.17,0.94-2.11,1.13-2.81c0.19-0.7,0.19-1.37-0.01-2.01c-0.15-0.49-0.39-0.87-0.7-1.12c-0.32-0.25-0.65-0.32-1-0.21
			c-0.4,0.12-0.66,0.4-0.79,0.83c-0.13,0.43-0.11,0.93,0.07,1.52C71.97,105.97,72.01,106.09,72.06,106.21z"/>
		<path class="st9" d="M53.6,107.31l-0.37,0.03c0-0.19,0.01-0.37,0.02-0.55c0.07-0.73,0.31-1.32,0.71-1.77
			c0.4-0.44,0.89-0.64,1.46-0.58c0.53,0.05,0.94,0.31,1.23,0.78c0.29,0.47,0.4,1.05,0.33,1.75c-0.05,0.5-0.16,0.93-0.34,1.29
			c-0.18,0.36-0.49,0.77-0.95,1.23c-0.46,0.46-1.16,1.06-2.11,1.8l1.97,0.2c0.24,0.02,0.41-0.01,0.5-0.09
			c0.09-0.08,0.16-0.25,0.22-0.5l0.07-0.31l0.32,0.03l-0.46,2.03l-0.24-0.02l-0.01-0.27l-3.31-0.33l0.05-0.46l0.67-0.6
			c0.97-0.86,1.68-1.58,2.12-2.16c0.45-0.58,0.7-1.19,0.77-1.85c0.05-0.52-0.02-0.95-0.22-1.3c-0.2-0.35-0.48-0.55-0.84-0.58
			c-0.41-0.04-0.76,0.11-1.05,0.46c-0.29,0.35-0.46,0.82-0.52,1.43C53.61,107.07,53.6,107.19,53.6,107.31z"/>
		<path class="st9" d="M30.69,98.18l-0.34-0.15c0.09-0.17,0.18-0.32,0.29-0.47c0.42-0.61,0.91-1.01,1.47-1.21
			c0.56-0.2,1.08-0.13,1.56,0.19c0.44,0.3,0.67,0.72,0.7,1.27c0.03,0.55-0.15,1.11-0.55,1.69c-0.29,0.42-0.59,0.74-0.92,0.97
			c-0.33,0.23-0.8,0.44-1.42,0.62c-0.62,0.18-1.53,0.37-2.72,0.57l1.63,1.12c0.2,0.14,0.36,0.19,0.48,0.16
			c0.12-0.03,0.26-0.14,0.43-0.33l0.21-0.24l0.26,0.18l-1.38,1.56l-0.2-0.14l0.12-0.24l-2.75-1.88l0.26-0.38l0.88-0.2
			c1.27-0.29,2.23-0.58,2.9-0.87c0.67-0.29,1.19-0.71,1.56-1.25c0.29-0.43,0.44-0.85,0.43-1.25c0-0.4-0.16-0.71-0.46-0.91
			c-0.34-0.24-0.72-0.27-1.14-0.1c-0.42,0.17-0.8,0.5-1.14,1C30.82,97.97,30.75,98.07,30.69,98.18z"/>
		<path class="st9" d="M28.14,92.27l1.74,1.6c0.1,0.09,0.18,0.14,0.23,0.14c0.05,0,0.12-0.04,0.2-0.12l0.21,0.19l-0.79,0.86
			l-1.93-1.78l-1.37,1.38c0.29,0.12,0.58,0.3,0.85,0.55c0.47,0.43,0.68,0.94,0.64,1.54c-0.04,0.6-0.32,1.17-0.83,1.72
			c-0.5,0.54-1.06,0.87-1.69,0.99c-0.63,0.11-1.15-0.03-1.58-0.41c-0.37-0.34-0.55-0.76-0.56-1.27c-0.01-0.51,0.12-0.91,0.39-1.2
			c0.12-0.13,0.24-0.2,0.36-0.23c0.12-0.03,0.22-0.01,0.28,0.05c0.13,0.12,0.09,0.4-0.15,0.82c-0.34,0.63-0.33,1.12,0.04,1.46
			c0.28,0.26,0.64,0.34,1.07,0.24c0.43-0.1,0.83-0.36,1.21-0.77c0.41-0.44,0.63-0.89,0.66-1.35c0.04-0.45-0.12-0.84-0.47-1.16
			c-0.34-0.31-0.71-0.51-1.13-0.59L28.14,92.27z"/>
		<path class="st9" d="M98.53,94.81c-0.23-0.77-0.77-1.58-1.6-2.42c-0.89-0.9-1.71-1.48-2.47-1.73c-0.76-0.26-1.36-0.17-1.8,0.26
			c-0.45,0.44-0.56,1.04-0.33,1.79c0.23,0.75,0.79,1.57,1.67,2.47c0.87,0.88,1.69,1.45,2.44,1.7c0.76,0.25,1.35,0.16,1.76-0.25
			C98.66,96.19,98.76,95.59,98.53,94.81z M97.85,96.22c-0.27,0.27-0.7,0.28-1.27,0.03c-0.58-0.25-1.23-0.75-1.97-1.49
			c-0.77-0.78-1.3-1.48-1.58-2.09c-0.28-0.61-0.28-1.06,0.01-1.34c0.29-0.29,0.73-0.29,1.31-0.03c0.59,0.27,1.26,0.79,2.02,1.56
			c0.76,0.77,1.26,1.45,1.53,2.04C98.15,95.49,98.14,95.93,97.85,96.22z"/>
		<path class="st9" d="M93.27,98.15c-0.33-0.4-0.69-0.66-1.09-0.77c-0.4-0.11-0.84-0.12-1.34-0.04c0.3-0.8,0.21-1.49-0.26-2.07
			c-0.3-0.38-0.68-0.6-1.15-0.68c-0.46-0.08-0.88,0.03-1.25,0.33c-0.4,0.32-0.61,0.73-0.64,1.22c-0.03,0.49,0.14,0.97,0.51,1.42
			c0.28,0.35,0.58,0.58,0.89,0.69c0.31,0.11,0.67,0.15,1.08,0.1c-0.2,0.44-0.28,0.87-0.23,1.28c0.04,0.41,0.2,0.78,0.47,1.12
			c0.37,0.46,0.83,0.73,1.37,0.81c0.55,0.08,1.04-0.05,1.48-0.41c0.46-0.37,0.69-0.84,0.71-1.41
			C93.86,99.18,93.67,98.65,93.27,98.15z M89.94,97.49c-0.32,0.06-0.61,0.05-0.87-0.01c-0.26-0.06-0.48-0.21-0.68-0.45
			c-0.21-0.26-0.31-0.55-0.3-0.88c0.01-0.33,0.13-0.59,0.37-0.78c0.25-0.2,0.54-0.27,0.86-0.2c0.32,0.07,0.59,0.24,0.8,0.5
			c0.21,0.26,0.33,0.55,0.35,0.85c0.02,0.3,0.01,0.6-0.02,0.89L89.94,97.49z M92.81,100.74c-0.3,0.24-0.66,0.33-1.07,0.24
			c-0.41-0.08-0.75-0.29-1.02-0.63c-0.2-0.25-0.33-0.56-0.38-0.93c-0.05-0.37-0.01-0.75,0.11-1.14l0.7-0.11
			c0.79-0.13,1.38,0.04,1.76,0.51c0.25,0.3,0.36,0.67,0.34,1.08C93.25,100.19,93.1,100.51,92.81,100.74z"/>
		<path class="st9" d="M88.48,103.74c-0.23,0.1-0.42,0.03-0.56-0.21l-0.66-1.09l0.62-0.37l-0.31-0.51l-0.61,0.37l-2.53-4.21
			l-0.44,0.26l0.44,5.31l0.38,0.63l1.78-1.07l0.66,1.09c0.07,0.11,0.09,0.22,0.06,0.34c-0.03,0.12-0.1,0.22-0.21,0.3l0.19,0.31
			l1.39-0.84L88.48,103.74z M84.85,103.18l-0.29-3.7l1.71,2.84L84.85,103.18z"/>
		<path class="st9" d="M69.36,108.23c-0.29-0.3-0.67-0.53-1.14-0.71c0.66-0.54,0.93-1.18,0.82-1.92c-0.07-0.48-0.29-0.87-0.65-1.17
			c-0.36-0.3-0.77-0.42-1.24-0.35c-0.5,0.08-0.89,0.32-1.17,0.73c-0.27,0.41-0.37,0.91-0.28,1.49c0.07,0.45,0.21,0.8,0.42,1.05
			c0.21,0.25,0.51,0.46,0.89,0.64c-0.39,0.28-0.68,0.61-0.85,0.99c-0.17,0.37-0.22,0.78-0.16,1.2c0.09,0.58,0.35,1.05,0.78,1.4
			c0.43,0.35,0.92,0.48,1.48,0.4c0.58-0.09,1.02-0.37,1.32-0.86c0.3-0.48,0.41-1.04,0.31-1.66
			C69.83,108.93,69.65,108.52,69.36,108.23z M66.62,106.75c-0.19-0.18-0.31-0.43-0.36-0.73c-0.05-0.33,0.01-0.63,0.19-0.91
			c0.17-0.28,0.41-0.45,0.71-0.49c0.32-0.05,0.6,0.04,0.84,0.26c0.24,0.22,0.39,0.5,0.44,0.84c0.05,0.33,0.01,0.64-0.12,0.91
			c-0.13,0.27-0.29,0.53-0.47,0.76l-0.48-0.18C67.06,107.08,66.81,106.93,66.62,106.75z M69.09,110.84
			c-0.22,0.35-0.52,0.55-0.88,0.61c-0.38,0.06-0.73-0.05-1.04-0.33c-0.31-0.28-0.5-0.63-0.56-1.05c-0.05-0.32,0-0.65,0.14-0.99
			c0.14-0.34,0.37-0.65,0.67-0.92l0.66,0.25c0.75,0.29,1.17,0.73,1.26,1.33C69.4,110.12,69.32,110.49,69.09,110.84z"/>
		<path class="st9" d="M62.92,109c-0.26-0.32-0.61-0.6-1.07-0.82c0.71-0.47,1.04-1.08,1.01-1.83c-0.02-0.48-0.2-0.89-0.53-1.23
			c-0.33-0.34-0.73-0.49-1.2-0.47c-0.51,0.03-0.92,0.23-1.23,0.61c-0.31,0.38-0.45,0.87-0.42,1.45c0.02,0.45,0.13,0.81,0.31,1.09
			c0.19,0.27,0.46,0.51,0.82,0.72c-0.42,0.24-0.73,0.54-0.94,0.9c-0.21,0.36-0.3,0.75-0.27,1.18c0.03,0.59,0.24,1.07,0.64,1.46
			c0.39,0.39,0.87,0.57,1.44,0.54c0.59-0.03,1.06-0.27,1.4-0.72c0.35-0.45,0.51-0.99,0.47-1.62C63.32,109.74,63.17,109.32,62.92,109
			z M60.33,107.25c-0.17-0.2-0.27-0.46-0.29-0.77c-0.02-0.33,0.08-0.63,0.27-0.89c0.2-0.26,0.45-0.4,0.76-0.42
			c0.32-0.02,0.59,0.1,0.81,0.34c0.22,0.25,0.34,0.54,0.35,0.87c0.02,0.34-0.05,0.64-0.21,0.89c-0.16,0.26-0.34,0.49-0.54,0.71
			l-0.46-0.23C60.74,107.63,60.51,107.45,60.33,107.25z M62.39,111.57c-0.26,0.33-0.57,0.5-0.94,0.52
			c-0.39,0.02-0.72-0.12-1.01-0.43c-0.28-0.3-0.43-0.67-0.45-1.1c-0.02-0.32,0.06-0.65,0.24-0.97c0.18-0.33,0.43-0.61,0.76-0.85
			l0.63,0.32c0.72,0.36,1.09,0.84,1.12,1.44C62.77,110.89,62.65,111.25,62.39,111.57z"/>
		<path class="st9" d="M50.72,104.85c-0.21-0.77-0.62-1.22-1.22-1.35c-0.62-0.13-1.17,0.11-1.67,0.72c-0.5,0.61-0.87,1.53-1.13,2.76
			c-0.25,1.22-0.27,2.21-0.05,2.98c0.22,0.77,0.61,1.21,1.19,1.33c0.61,0.12,1.17-0.13,1.68-0.75c0.51-0.62,0.89-1.52,1.13-2.67
			C50.91,106.62,50.93,105.62,50.72,104.85z M49.95,107.65c-0.22,1.05-0.5,1.85-0.85,2.4c-0.35,0.55-0.72,0.78-1.12,0.7
			c-0.38-0.08-0.62-0.43-0.73-1.04c-0.11-0.62-0.06-1.44,0.15-2.47c0.22-1.08,0.51-1.9,0.86-2.47c0.35-0.57,0.72-0.82,1.12-0.74
			c0.4,0.08,0.65,0.44,0.75,1.08C50.23,105.74,50.17,106.59,49.95,107.65z"/>
		<path class="st9" d="M43.17,102.97c0.59-0.35,1.3-0.38,2.15-0.09l0.18-0.48l-0.28-0.1c-0.99-0.36-1.87-0.25-2.64,0.34
			c-0.78,0.59-1.39,1.5-1.84,2.74c-0.39,1.06-0.52,1.94-0.4,2.64c0.12,0.7,0.49,1.16,1.11,1.39c0.55,0.2,1.08,0.14,1.58-0.19
			c0.5-0.33,0.89-0.88,1.18-1.65c0.26-0.71,0.32-1.34,0.17-1.91c-0.15-0.56-0.47-0.93-0.95-1.11c-0.6-0.22-1.2-0.02-1.78,0.6
			C42.07,104.05,42.58,103.33,43.17,102.97z M42,105.29c0.36-0.29,0.71-0.37,1.05-0.25c0.33,0.12,0.53,0.39,0.61,0.81
			c0.08,0.42,0.02,0.92-0.19,1.49c-0.22,0.59-0.5,1.04-0.85,1.32c-0.35,0.29-0.69,0.37-1.02,0.25c-0.34-0.12-0.54-0.41-0.62-0.86
			c-0.08-0.45-0.01-0.96,0.19-1.53C41.36,106,41.64,105.58,42,105.29z"/>
		<path class="st9" d="M38.53,99.48c-0.57-0.27-1.16-0.18-1.8,0.29c-0.63,0.47-1.22,1.27-1.77,2.4c-0.54,1.12-0.8,2.08-0.78,2.87
			c0.02,0.8,0.3,1.32,0.83,1.58c0.56,0.27,1.16,0.16,1.81-0.31c0.65-0.48,1.23-1.25,1.75-2.31c0.55-1.14,0.82-2.11,0.81-2.91
			C39.36,100.29,39.08,99.75,38.53,99.48z M37.94,103.61c-0.47,0.97-0.94,1.68-1.41,2.12c-0.47,0.44-0.89,0.58-1.26,0.4
			c-0.35-0.17-0.5-0.57-0.45-1.19c0.04-0.63,0.29-1.41,0.75-2.35c0.48-0.99,0.96-1.72,1.44-2.19c0.48-0.47,0.9-0.62,1.27-0.44
			c0.36,0.18,0.52,0.59,0.46,1.23C38.68,101.83,38.41,102.64,37.94,103.61z"/>
	</g>
	<path class="st10" d="M60,0C26.86,0,0,26.86,0,60c0,33.14,26.86,60,60,60c33.14,0,60-26.86,60-60C120,26.86,93.14,0,60,0z
		 M100.3,100.3c-10.31,10.31-24.56,16.69-40.3,16.69c-15.74,0-29.98-6.38-40.3-16.69C9.39,89.98,3.01,75.74,3.01,60
		c0-15.74,6.38-29.99,16.69-40.3C30.02,9.39,44.26,3.01,60,3.01c15.74,0,29.99,6.38,40.3,16.69c10.31,10.31,16.69,24.56,16.69,40.3
		C116.99,75.74,110.61,89.98,100.3,100.3z"/>
</g>
</svg>
