<?xml version="1.0" encoding="UTF-8"?>
<!DOCTYPE svg PUBLIC "-//W3C//DTD SVG 1.1//EN" "http://www.w3.org/Graphics/SVG/1.1/DTD/svg11.dtd">
<!-- Creator: CorelDRAW 2019 (64-Bit) -->
<svg xmlns="http://www.w3.org/2000/svg" xml:space="preserve" width="400px" height="78px" version="1.1" style="shape-rendering:geometricPrecision; text-rendering:geometricPrecision; image-rendering:optimizeQuality; fill-rule:evenodd; clip-rule:evenodd"
viewBox="0 0 34.67 6.75"
 xmlns:xlink="http://www.w3.org/1999/xlink">
 <defs>
  <style type="text/css">
   <![CDATA[
    .fil0 {fill:#2979FF;fill-rule:nonzero}
   ]]>
  </style>
 </defs>
 <g id="图层_x0020_1">
  <metadata id="CorelCorpID_0Corel-Layer"/>
  <path class="fil0" d="M1.25 1.2l0 1.67 2.95 0 0 1.08 -2.95 0 0 2.7 -1.25 0 0 -6.53 4.66 0 0 1.08 -3.41 0zm4.4 4.83c-0.48,-0.47 -0.72,-1.19 -0.72,-2.14l0 -1.03c0,-0.95 0.25,-1.67 0.73,-2.14 0.49,-0.48 1.15,-0.72 2,-0.72 0.84,0 1.49,0.24 1.98,0.72 0.47,0.48 0.72,1.19 0.72,2.14l0 1.03c0,0.95 -0.25,1.66 -0.74,2.14 -0.49,0.48 -1.16,0.72 -2,0.72 -0.84,0 -1.5,-0.24 -1.97,-0.72zm3.47 -2.16l0 -0.93c0,-1.23 -0.49,-1.85 -1.46,-1.85 -0.5,0 -0.87,0.15 -1.11,0.45 -0.25,0.3 -0.37,0.77 -0.37,1.4l0 0.93c0,0.6 0.12,1.04 0.37,1.33 0.24,0.29 0.61,0.43 1.11,0.43 0.97,0 1.46,-0.59 1.46,-1.76zm3.71 -0.61l-2.17 -3.14 1.51 0 1.45 2.16 1.35 -2.16 1.49 0 -2.14 3.08 2.38 3.45 -1.52 0 -1.63 -2.45 -1.57 2.45 -1.5 0 2.35 -3.39zm4.39 2.77c-0.49,-0.47 -0.73,-1.19 -0.73,-2.14l0 -1.03c0,-0.95 0.24,-1.67 0.74,-2.14 0.49,-0.48 1.17,-0.72 2.05,-0.72 0.8,0 1.43,0.2 1.91,0.59 0.48,0.4 0.72,0.94 0.72,1.64l0 0.08 -1.24 0 0 -0.04c0,-0.36 -0.12,-0.65 -0.37,-0.86 -0.25,-0.21 -0.59,-0.32 -1.02,-0.32 -0.52,0 -0.91,0.15 -1.16,0.45 -0.26,0.3 -0.39,0.77 -0.39,1.4l0 0.93c0,0.6 0.13,1.04 0.39,1.33 0.26,0.29 0.65,0.43 1.17,0.43 0.43,0 0.77,-0.1 1.02,-0.3 0.24,-0.21 0.36,-0.49 0.36,-0.84l0 -0.06 1.23 0 0 0.06c0,0.72 -0.24,1.28 -0.71,1.67 -0.48,0.39 -1.12,0.59 -1.92,0.59 -0.87,0 -1.56,-0.24 -2.05,-0.72zm11.87 -5.91l0 6.53 -1.24 0 0 -4.13 -1.6 2.87 -0.83 0 -1.62 -2.91 0 4.17 -1.25 0 0 -6.53 1.25 0 2.04 3.74 2.01 -3.74 1.24 0zm2.96 6.58c-0.8,0 -1.41,-0.17 -1.85,-0.52 -0.43,-0.35 -0.67,-0.86 -0.72,-1.52l1.18 0c0.04,0.35 0.18,0.6 0.42,0.75 0.24,0.15 0.58,0.23 1.03,0.23 0.89,0 1.34,-0.29 1.34,-0.87 0,-0.27 -0.09,-0.46 -0.27,-0.6 -0.18,-0.13 -0.47,-0.22 -0.87,-0.26l-0.69 -0.09c-1.32,-0.16 -1.98,-0.77 -1.98,-1.82 0,-0.61 0.22,-1.1 0.66,-1.45 0.44,-0.35 1.04,-0.52 1.8,-0.52 0.74,0 1.32,0.17 1.73,0.5 0.42,0.34 0.65,0.82 0.71,1.45l-1.2 0c-0.02,-0.32 -0.14,-0.55 -0.34,-0.69 -0.21,-0.15 -0.52,-0.22 -0.93,-0.22 -0.4,0 -0.72,0.07 -0.92,0.22 -0.21,0.14 -0.31,0.34 -0.31,0.61 0,0.24 0.09,0.43 0.27,0.56 0.18,0.13 0.47,0.22 0.88,0.27l0.79 0.11c0.61,0.08 1.08,0.27 1.4,0.58 0.33,0.31 0.49,0.72 0.49,1.25 0,0.65 -0.23,1.16 -0.7,1.51 -0.47,0.35 -1.11,0.52 -1.92,0.52z"/>
 </g>
</svg>
